<svg width="64" height="64" viewBox="0 0 64 64" fill="none" xmlns="http://www.w3.org/2000/svg">
<circle cx="32" cy="32" r="32" fill="#008DA6"/>
<path d="M28.3114 43.7189H27.053C26.9383 43.7189 26.8284 43.6733 26.7473 43.5922C26.6662 43.5111 26.6206 43.4011 26.6206 43.2864C26.6206 43.1718 26.6662 43.0618 26.7473 42.9807C26.8284 42.8996 26.9383 42.854 27.053 42.854H28.3114C28.4261 42.854 28.5361 42.8996 28.6172 42.9807C28.6983 43.0618 28.7438 43.1718 28.7438 43.2864C28.7438 43.4011 28.6983 43.5111 28.6172 43.5922C28.5361 43.6733 28.4261 43.7189 28.3114 43.7189Z" fill="white"/>
<path d="M45.3231 43.7189H35.6496C35.5349 43.7189 35.4249 43.6733 35.3438 43.5922C35.2627 43.5111 35.2172 43.4012 35.2172 43.2865C35.2172 43.1718 35.2627 43.0618 35.3438 42.9807C35.4249 42.8996 35.5349 42.854 35.6496 42.854H45.3231C45.5742 42.8538 45.815 42.754 45.9925 42.5764C46.1701 42.3988 46.2699 42.1581 46.2702 41.907V24.9081C46.2698 24.657 46.1699 24.4163 45.9924 24.2388C45.8149 24.0613 45.5742 23.9614 45.3231 23.9611H18.6766C18.4256 23.9614 18.1849 24.0613 18.0074 24.2388C17.8298 24.4163 17.73 24.657 17.7296 24.9081V41.907C17.7298 42.1581 17.8297 42.3988 18.0072 42.5764C18.1848 42.754 18.4255 42.8538 18.6766 42.854H24.0258C24.1405 42.854 24.2505 42.8996 24.3316 42.9807C24.4127 43.0618 24.4583 43.1718 24.4583 43.2865C24.4583 43.4012 24.4127 43.5111 24.3316 43.5922C24.2505 43.6733 24.1405 43.7189 24.0258 43.7189H18.6766C18.1964 43.7178 17.7362 43.5265 17.3967 43.1869C17.0571 42.8474 16.8659 42.3872 16.8647 41.907V24.9081C16.8659 24.4279 17.0571 23.9677 17.3967 23.6281C17.7362 23.2886 18.1964 23.0973 18.6766 23.0962H45.3231C45.8033 23.0973 46.2635 23.2886 46.6031 23.6281C46.9426 23.9677 47.1339 24.4279 47.135 24.9081V41.907C47.1339 42.3872 46.9426 42.8474 46.6031 43.1869C46.2635 43.5265 45.8033 43.7178 45.3231 43.7189Z" fill="white"/>
<path d="M32.6228 43.7189H31.3384C31.2237 43.7189 31.1138 43.6733 31.0327 43.5922C30.9516 43.5111 30.906 43.4011 30.906 43.2864C30.906 43.1718 30.9516 43.0618 31.0327 42.9807C31.1138 42.8996 31.2237 42.854 31.3384 42.854H32.6228C32.7374 42.854 32.8474 42.8996 32.9285 42.9807C33.0096 43.0618 33.0552 43.1718 33.0552 43.2864C33.0552 43.4011 33.0096 43.5111 32.9285 43.5922C32.8474 43.6733 32.7374 43.7189 32.6228 43.7189Z" fill="white"/>
<path d="M35.9049 23.961H28.0948C27.9801 23.961 27.8701 23.9154 27.789 23.8343C27.7079 23.7533 27.6624 23.6433 27.6624 23.5286L27.6671 21.5952C27.6673 21.2469 27.8057 20.9129 28.052 20.6665C28.2982 20.4201 28.6321 20.2815 28.9804 20.281H35.0297C35.3777 20.2815 35.7114 20.4199 35.9575 20.666C36.2036 20.9122 36.3421 21.2458 36.3426 21.5939L36.3374 23.5286C36.3374 23.6433 36.2918 23.7533 36.2107 23.8343C36.1296 23.9154 36.0196 23.961 35.9049 23.961ZM28.5285 23.0961H35.4738L35.4777 21.5943C35.4777 21.4754 35.4305 21.3615 35.3465 21.2774C35.2625 21.1933 35.1486 21.146 35.0297 21.1459H28.9804C28.8616 21.146 28.7477 21.1932 28.6636 21.2772C28.5795 21.3612 28.5322 21.475 28.532 21.5939L28.5285 23.0961Z" fill="white"/>
<path d="M34.9309 32.6918C34.8261 32.6917 34.7249 32.6537 34.6461 32.5846C34.5673 32.5156 34.5162 32.4203 34.5023 32.3165C34.4885 32.2126 34.5128 32.1073 34.5708 32.02C34.6288 31.9328 34.7165 31.8695 34.8176 31.842L46.5888 28.6269C46.6995 28.5966 46.8176 28.6116 46.9173 28.6684C47.017 28.7253 47.09 28.8194 47.1203 28.93C47.1505 29.0407 47.1356 29.1589 47.0788 29.2586C47.0219 29.3582 46.9278 29.4312 46.8171 29.4615L35.0455 32.6753C35.0082 32.6859 34.9696 32.6914 34.9309 32.6918Z" fill="white"/>
<path d="M29.0691 32.692C29.0303 32.6919 28.9918 32.6867 28.9545 32.6764L17.1832 29.4595C17.1284 29.4446 17.0771 29.4189 17.0322 29.3841C16.9873 29.3493 16.9497 29.3059 16.9216 29.2566C16.8934 29.2072 16.8753 29.1528 16.8682 29.0965C16.861 29.0401 16.8651 28.9829 16.8801 28.9281C16.8951 28.8733 16.9207 28.822 16.9555 28.7771C16.9904 28.7322 17.0337 28.6946 17.083 28.6665C17.1324 28.6383 17.1868 28.6202 17.2432 28.613C17.2995 28.6059 17.3567 28.61 17.4115 28.625L29.1824 31.8414C29.2835 31.8689 29.3711 31.9321 29.4291 32.0194C29.4871 32.1066 29.5114 32.212 29.4976 32.3158C29.4837 32.4197 29.4327 32.515 29.3538 32.584C29.275 32.653 29.1738 32.6911 29.0691 32.6911V32.692Z" fill="white"/>
<path d="M34.6512 34.2988H29.3478C29.1596 34.2985 28.9792 34.2236 28.8461 34.0905C28.7131 33.9574 28.6383 33.7769 28.6382 33.5887V31.1576C28.6383 30.9694 28.7131 30.7889 28.8461 30.6558C28.9792 30.5226 29.1596 30.4477 29.3478 30.4475H34.6512C34.8394 30.4477 35.0199 30.5226 35.153 30.6557C35.2861 30.7888 35.361 30.9693 35.3612 31.1576V33.5887C35.361 33.7769 35.2861 33.9574 35.153 34.0905C35.0199 34.2236 34.8394 34.2985 34.6512 34.2988ZM29.5052 33.4339H34.4964V31.3124H29.503L29.5052 33.4339Z" fill="white"/>
</svg>
