<svg width="357" height="362" viewBox="0 0 357 362" fill="none" xmlns="http://www.w3.org/2000/svg">
<path d="M0.128525 228.795L194.595 340.166V363.75L0.128525 365.776V228.795Z" fill="url(#paint0_linear_2197_49361)"/>
<path d="M194.563 340.198L375.076 302.276V158.653L0.140869 228.803L194.563 340.198Z" fill="#DEEBFF"/>
<g style="mix-blend-mode:screen" opacity="0.4">
<path d="M185.868 311.569L363.182 276.677V178.818L53.3955 235.668L185.868 311.569Z" fill="#407BFF"/>
</g>
<path d="M194.596 371V340.198L375.093 302.26L375.013 371H194.596Z" fill="url(#paint1_linear_2197_49361)"/>
<path d="M341.894 265.354C342.279 265.562 349.485 267.611 352.152 264.082C354.819 260.552 350.39 255.066 352.898 253.041C355.406 251.016 362.41 253.041 364.098 248.79C365.787 244.539 360.783 242.673 363.597 238.391C365.371 235.687 370.325 234.195 370.099 231.663C369.769 227.992 362.997 226.989 357.076 230.935C351.155 234.88 348.402 231.644 346.518 231.381C344.634 231.118 340.591 231.699 340.726 238.293C340.86 244.887 341.894 265.354 341.894 265.354Z" fill="#455A64"/>
<path d="M341.412 255.978C341.505 255.977 341.595 255.944 341.665 255.884C341.736 255.823 341.783 255.739 341.797 255.647C343.859 243.132 358.405 232.948 365.971 230.764C366.07 230.733 366.154 230.665 366.204 230.573C366.254 230.482 366.267 230.375 366.24 230.275C366.226 230.225 366.201 230.179 366.169 230.139C366.136 230.099 366.096 230.066 366.05 230.041C366.005 230.017 365.955 230.002 365.904 229.997C365.852 229.991 365.8 229.997 365.751 230.012C358.019 232.244 343.118 242.68 341.02 255.519C341.004 255.622 341.029 255.727 341.09 255.812C341.151 255.896 341.242 255.954 341.345 255.972L341.412 255.978Z" fill="white"/>
<path d="M358.564 245.499C358.631 245.499 358.698 245.482 358.757 245.448C358.816 245.415 358.865 245.367 358.9 245.309C358.952 245.22 358.967 245.113 358.942 245.013C358.917 244.912 358.854 244.826 358.766 244.771C358.527 244.63 352.93 241.358 347.419 242.887C347.369 242.9 347.322 242.924 347.281 242.955C347.24 242.987 347.206 243.026 347.18 243.071C347.155 243.116 347.138 243.166 347.132 243.217C347.126 243.268 347.13 243.32 347.143 243.37C347.156 243.421 347.179 243.468 347.21 243.509C347.242 243.551 347.281 243.585 347.326 243.611C347.372 243.637 347.421 243.653 347.473 243.659C347.525 243.665 347.577 243.66 347.627 243.646C352.814 242.208 358.307 245.413 358.362 245.444C358.423 245.48 358.493 245.5 358.564 245.499Z" fill="white"/>
<path d="M239.632 221.652C239.593 222.382 239.382 223.092 239.016 223.724C238.651 224.357 238.141 224.894 237.529 225.293C237.173 225.527 236.742 225.618 236.322 225.548C236.389 225.618 236.466 225.679 236.55 225.728L236.044 225.439L236.018 225.42L235.943 225.372C235.909 225.347 235.878 225.319 235.849 225.289L235.793 225.233C235.793 225.214 235.759 225.195 235.744 225.173C235.674 225.075 235.616 224.969 235.572 224.858L235.534 224.757C235.533 224.739 235.533 224.722 235.534 224.704C235.525 224.675 235.517 224.645 235.512 224.614C235.473 224.442 235.454 224.266 235.455 224.089C235.495 223.361 235.706 222.652 236.07 222.02C236.435 221.388 236.944 220.851 237.555 220.452C237.838 220.274 238.162 220.174 238.496 220.164H238.627L238.747 220.186L238.819 220.205H238.864C238.894 220.213 238.923 220.224 238.95 220.239L239.029 220.28L239.467 220.531C239.396 220.495 239.321 220.468 239.242 220.452C239.524 220.786 239.664 221.217 239.632 221.652ZM236.172 225.499H236.134H236.172Z" fill="#0052CC"/>
<path d="M283.28 245.844L280.314 250.996L279.812 250.703L236.551 225.728C236.467 225.679 236.39 225.619 236.322 225.548C236.051 225.217 235.916 224.794 235.947 224.367C235.988 223.638 236.199 222.928 236.565 222.296C236.93 221.663 237.439 221.126 238.051 220.726C238.334 220.551 238.659 220.452 238.992 220.442C239.082 220.44 239.171 220.45 239.258 220.472C239.336 220.488 239.412 220.514 239.483 220.55L239.521 220.569L283.28 245.844Z" fill="#EBEBEB"/>
<path d="M281.794 245.99C282.956 245.319 283.897 245.862 283.897 247.201C283.858 247.93 283.647 248.64 283.282 249.273C282.916 249.906 282.406 250.443 281.794 250.842C280.635 251.513 279.694 250.969 279.694 249.627C279.734 248.898 279.945 248.189 280.309 247.557C280.674 246.925 281.183 246.388 281.794 245.99Z" fill="#0052CC"/>
<path d="M286.31 249.113C286.295 249.09 286.278 249.07 286.257 249.053L283.577 246.102L283.554 246.079L283.505 246.027L283.479 245.997C283.104 245.622 282.489 245.599 281.799 245.997C281.188 246.395 280.679 246.932 280.315 247.564C279.95 248.196 279.739 248.905 279.7 249.634C279.7 250.414 280.018 250.92 280.509 251.081H280.539C280.59 251.096 280.641 251.107 280.693 251.115H280.727L284.611 251.962C284.848 252.002 285.091 251.949 285.29 251.816C285.64 251.589 285.931 251.282 286.14 250.921C286.35 250.56 286.471 250.155 286.494 249.739C286.506 249.515 286.441 249.294 286.31 249.113Z" fill="#E0E0E0"/>
<path d="M251.947 229.976L251.876 229.935C251.795 229.907 251.709 229.9 251.624 229.912C251.539 229.924 251.459 229.957 251.389 230.006C251.171 230.147 250.989 230.338 250.859 230.563C250.728 230.788 250.653 231.04 250.639 231.3C250.632 231.383 250.644 231.467 250.675 231.545C250.705 231.623 250.753 231.693 250.815 231.749L250.909 231.802L282.843 250.238L284.942 249.023L251.947 229.976Z" fill="#455A64"/>
<path d="M279.879 248.52L282.845 250.233L284.944 249.019L280.929 246.698C280.456 247.225 280.098 247.846 279.879 248.52Z" fill="#37474F"/>
<path d="M287.369 250.512L284.943 247.823L284.879 247.752C284.609 247.482 284.174 247.46 283.679 247.752C283.244 248.032 282.881 248.411 282.62 248.858C282.36 249.305 282.209 249.807 282.179 250.324C282.179 250.872 282.401 251.228 282.746 251.344H282.768L282.866 251.366L286.443 252.154C286.573 252.17 286.706 252.141 286.818 252.071C287.014 251.942 287.178 251.769 287.295 251.565C287.412 251.361 287.48 251.133 287.492 250.898C287.504 250.758 287.459 250.619 287.369 250.512Z" fill="#0052CC"/>
<path opacity="0.1" d="M287.369 250.512L284.943 247.823L284.879 247.752C284.609 247.482 284.174 247.46 283.679 247.752C283.244 248.032 282.881 248.411 282.62 248.858C282.36 249.305 282.209 249.807 282.179 250.324C282.179 250.872 282.401 251.228 282.746 251.344H282.768L282.866 251.366L286.443 252.154C286.573 252.17 286.706 252.141 286.818 252.071C287.014 251.942 287.178 251.769 287.295 251.565C287.412 251.361 287.48 251.133 287.492 250.898C287.504 250.758 287.459 250.619 287.369 250.512Z" fill="black"/>
<path d="M287.502 250.898C287.49 251.133 287.422 251.361 287.305 251.565C287.188 251.769 287.024 251.942 286.827 252.071C286.716 252.142 286.583 252.17 286.452 252.15L284.653 251.756C284.368 251.696 284.18 251.43 284.18 251.006C284.2 250.631 284.308 250.266 284.496 249.94C284.683 249.614 284.945 249.337 285.26 249.132C285.383 249.034 285.536 248.98 285.693 248.98C285.851 248.98 286.003 249.034 286.126 249.132L286.175 249.184L287.382 250.512C287.427 250.565 287.461 250.626 287.482 250.692C287.502 250.759 287.509 250.829 287.502 250.898Z" fill="#0052CC"/>
<path opacity="0.1" d="M286.816 250.507C287.191 250.293 287.491 250.466 287.491 250.882C287.479 251.117 287.411 251.345 287.294 251.549C287.176 251.753 287.013 251.927 286.816 252.056C286.441 252.269 286.141 252.093 286.141 251.662C286.157 251.43 286.226 251.205 286.343 251.005C286.46 250.805 286.622 250.634 286.816 250.507Z" fill="black"/>
<path d="M244.009 225.383C243.924 225.343 243.83 225.327 243.737 225.337C243.644 225.346 243.556 225.38 243.48 225.435C243.263 225.576 243.082 225.765 242.952 225.989C242.821 226.212 242.746 226.463 242.73 226.721C242.72 226.813 242.735 226.907 242.773 226.991C242.811 227.076 242.872 227.148 242.948 227.201L250.822 231.738C250.76 231.681 250.712 231.611 250.682 231.533C250.651 231.455 250.639 231.372 250.645 231.288C250.66 231.029 250.735 230.776 250.865 230.551C250.996 230.327 251.177 230.136 251.395 229.995C251.465 229.945 251.546 229.913 251.631 229.901C251.715 229.888 251.802 229.896 251.883 229.923L244.009 225.383Z" fill="#FAFAFA"/>
<path d="M244.226 225.863C244.211 226.121 244.135 226.373 244.005 226.597C243.874 226.821 243.693 227.011 243.476 227.153C243.405 227.218 243.315 227.259 243.219 227.269C243.123 227.28 243.027 227.26 242.943 227.212C242.86 227.163 242.794 227.09 242.755 227.002C242.715 226.914 242.706 226.816 242.726 226.721C242.741 226.463 242.817 226.212 242.947 225.989C243.078 225.765 243.259 225.576 243.476 225.435C243.547 225.371 243.636 225.33 243.732 225.32C243.827 225.309 243.923 225.329 244.006 225.376C244.09 225.424 244.156 225.497 244.195 225.584C244.235 225.671 244.245 225.769 244.226 225.863Z" fill="#F5F5F5"/>
<path d="M242.574 222.702H242.548L242.518 222.683L239.417 220.895L239.342 220.854C239.132 220.772 238.904 220.744 238.681 220.772C238.457 220.8 238.243 220.884 238.06 221.015C237.512 221.375 237.057 221.859 236.731 222.427C236.405 222.996 236.218 223.634 236.185 224.288C236.16 224.524 236.199 224.763 236.297 224.979C236.395 225.195 236.549 225.381 236.744 225.518L239.882 227.329H239.901C240.114 227.418 240.346 227.452 240.576 227.426C240.806 227.401 241.025 227.317 241.213 227.183C241.761 226.822 242.215 226.337 242.541 225.768C242.867 225.198 243.054 224.561 243.088 223.906C243.111 223.678 243.076 223.448 242.986 223.238C242.896 223.027 242.755 222.843 242.574 222.702Z" fill="#0052CC"/>
<path opacity="0.05" d="M242.574 222.702H242.548L242.518 222.683L239.417 220.895L239.342 220.854C239.132 220.772 238.904 220.744 238.681 220.772C238.457 220.8 238.243 220.884 238.06 221.015C237.512 221.375 237.057 221.859 236.731 222.427C236.405 222.996 236.218 223.634 236.185 224.288C236.16 224.524 236.199 224.763 236.297 224.979C236.395 225.195 236.549 225.381 236.744 225.518L239.882 227.329H239.901C240.114 227.418 240.346 227.452 240.576 227.426C240.806 227.401 241.025 227.317 241.213 227.183C241.761 226.822 242.215 226.337 242.541 225.768C242.867 225.198 243.054 224.561 243.088 223.906C243.111 223.678 243.076 223.448 242.986 223.238C242.896 223.027 242.755 222.843 242.574 222.702Z" fill="black"/>
<path opacity="0.1" d="M241.192 222.789C242.234 222.185 243.066 222.676 243.066 223.88C243.033 224.535 242.845 225.172 242.52 225.742C242.194 226.311 241.739 226.796 241.192 227.157C240.146 227.76 239.298 227.269 239.298 226.066C239.334 225.409 239.524 224.77 239.853 224.201C240.182 223.631 240.641 223.147 241.192 222.789Z" fill="black"/>
<path d="M288.36 251.639L287.078 250.867C287.039 250.846 286.994 250.836 286.949 250.84C286.905 250.843 286.862 250.859 286.827 250.886C286.724 250.95 286.639 251.039 286.579 251.143C286.518 251.248 286.483 251.365 286.478 251.486C286.474 251.529 286.482 251.572 286.5 251.611C286.517 251.651 286.545 251.685 286.579 251.711L287.858 252.483C287.932 252.522 288.014 252.543 288.098 252.543C288.228 252.543 288.353 252.491 288.445 252.399C288.537 252.307 288.589 252.182 288.589 252.052C288.589 251.969 288.568 251.888 288.528 251.816C288.488 251.744 288.43 251.683 288.36 251.639Z" fill="#455A64"/>
<path d="M288.436 251.697L288.369 251.64C288.331 251.629 288.291 251.626 288.252 251.633C288.213 251.639 288.176 251.655 288.144 251.678C288.043 251.743 287.958 251.831 287.898 251.936C287.838 252.04 287.804 252.157 287.799 252.278C287.795 252.32 287.801 252.362 287.818 252.401C287.836 252.44 287.862 252.474 287.897 252.499H287.923H287.949C287.999 252.519 288.053 252.528 288.106 252.525C288.237 252.525 288.362 252.473 288.454 252.381C288.546 252.289 288.598 252.164 288.598 252.034C288.59 251.905 288.532 251.784 288.436 251.697Z" fill="#263238"/>
<path d="M338.948 268.064L341.533 266.582C341.963 266.303 342.322 265.926 342.579 265.482C342.837 265.038 342.986 264.539 343.015 264.027V72.4864C342.986 71.9739 342.837 71.4752 342.58 71.0311C342.323 70.587 341.964 70.21 341.533 69.9308L222.714 1.32827C222.255 1.09358 221.748 0.971191 221.232 0.971191C220.717 0.971191 220.21 1.09358 219.751 1.32827L217.166 2.80981C216.735 3.08947 216.377 3.46659 216.119 3.91061C215.862 4.35462 215.713 4.85304 215.684 5.36546V196.906C215.712 197.418 215.86 197.917 216.118 198.362C216.375 198.806 216.734 199.183 217.166 199.461L336 268.064C336.456 268.297 336.961 268.419 337.474 268.419C337.986 268.419 338.492 268.297 338.948 268.064Z" fill="#0052CC"/>
<path opacity="0.4" d="M215.737 5.13522C215.833 4.39445 216.478 4.09074 217.218 4.52038L336.001 73.1229C336.434 73.3965 336.793 73.7731 337.045 74.2192L342.586 71.0265C342.334 70.5804 341.975 70.2038 341.541 69.9302L222.715 1.32767C222.257 1.0918 221.749 0.96875 221.233 0.96875C220.718 0.96875 220.21 1.0918 219.752 1.32767L217.159 2.80921C216.769 3.07233 216.44 3.4162 216.195 3.81752C215.95 4.21884 215.793 4.66822 215.737 5.13522Z" fill="#0046AD"/>
<path opacity="0.15" d="M336.26 268.181C336.29 268.187 336.32 268.187 336.349 268.181L336.497 268.233H336.556C336.645 268.233 336.734 268.278 336.831 268.3C337.418 268.411 338.024 268.362 338.586 268.159C338.698 268.117 338.807 268.068 338.912 268.011L341.505 266.53C341.934 266.249 342.291 265.871 342.549 265.427C342.806 264.984 342.956 264.486 342.986 263.974V72.4854C342.969 71.9634 342.822 71.454 342.557 71.0039L337.016 74.1966C337.29 74.6431 337.441 75.1544 337.453 75.6782V267.218C337.469 267.497 337.388 267.771 337.223 267.996C337.132 268.111 337.009 268.197 336.869 268.242C336.729 268.286 336.579 268.289 336.438 268.248C336.377 268.232 336.317 268.209 336.26 268.181Z" fill="black"/>
<path d="M252.82 36.5955L253.035 36.4622L255.487 35.0547C256.379 34.5576 257.348 34.2145 258.354 34.0399C258.776 33.9436 259.154 33.8325 259.487 33.7214C259.857 33.6003 260.219 33.4543 260.569 33.2843L260.391 33.0547L263.147 31.4472C263.379 31.3175 263.629 31.2203 263.888 31.1583C264.932 30.899 266.495 31.5065 268.051 31.3287C268.617 31.2734 269.164 31.094 269.653 30.8034C270.142 30.5128 270.561 30.118 270.88 29.6471C271.829 28.373 272.399 26.1433 273.236 24.2914L272.495 23.2173C272.569 23.1709 272.646 23.1289 272.725 23.0913L275.266 21.6098C275.694 21.3573 276.183 21.2243 276.681 21.2246C277.63 21.2747 278.55 21.5736 279.347 22.0913C285.429 25.61 285.636 33.9436 287.829 39.4401C290.022 44.9366 293.126 46.6478 294.815 49.0108C296.504 51.3739 296.622 53.1221 300.363 58.2778C304.104 63.4336 304.252 64.6929 304.252 65.6855V73.3672L301.481 74.9673L251.687 46.2033L252.82 36.5955ZM298.481 66.2262C299.126 66.5892 299.659 66.0929 299.659 65.0929C299.665 64.6146 299.563 64.1413 299.358 63.7087C299.154 63.2762 298.854 62.8958 298.481 62.5965C297.837 62.2261 297.311 62.7372 297.311 63.7373C297.306 64.2114 297.408 64.6806 297.611 65.1093C297.814 65.5379 298.111 65.9148 298.481 66.2114V66.2262ZM276.607 44.6625C276.92 44.8915 277.283 45.0442 277.666 45.1087C278.049 45.1732 278.442 45.1477 278.814 45.0342C279.185 44.9206 279.525 44.7222 279.807 44.4545C280.089 44.1869 280.304 43.8574 280.436 43.4921C282.37 43.8625 283.807 42.0106 283.807 38.7956C283.807 35.0177 281.814 30.8176 279.362 29.3953C279.048 29.1665 278.684 29.014 278.301 28.95C277.917 28.886 277.524 28.9122 277.153 29.0265C276.781 29.1407 276.441 29.34 276.16 29.6085C275.879 29.8769 275.664 30.2072 275.532 30.5731C273.599 30.1879 272.169 32.0546 272.169 35.2622C272.169 39.0253 274.147 43.2254 276.607 44.6477V44.6625ZM260.065 44.0403C260.717 44.418 261.243 43.9143 261.243 42.9143C261.255 42.4352 261.155 41.9599 260.95 41.5265C260.746 41.093 260.442 40.7134 260.065 40.4179C259.413 40.0401 258.887 40.5438 258.887 41.5439C258.878 42.0204 258.98 42.4926 259.184 42.9232C259.389 43.3537 259.69 43.7311 260.065 44.0254V44.0403Z" fill="#455A64"/>
<path opacity="0.5" d="M298.703 67.5817L304.058 64.4927C304.18 64.8783 304.24 65.2809 304.236 65.6853V73.3671L301.466 74.9671L298.703 73.3671V67.5817Z" fill="#37474F"/>
<path opacity="0.5" d="M293.198 57.9966L290.427 51.6037L294.827 49.0259C296.116 50.8111 296.494 52.2556 298.228 55.0928L293.198 57.9966Z" fill="#37474F"/>
<path opacity="0.5" d="M282.127 45.2185L281.771 43.3518C282.993 42.8407 283.808 41.1888 283.808 38.7813C283.808 35.5737 282.371 32.0699 280.438 30.2106L284.275 27.9883C285.905 31.6921 286.497 36.1367 287.845 39.448C288.127 40.1887 288.431 40.8036 288.734 41.3962L282.127 45.2185Z" fill="#37474F"/>
<path d="M252.821 36.5957L253.036 36.4623C253.851 36.0839 254.71 35.8053 255.592 35.6327C257.04 35.3783 258.389 34.7269 259.488 33.7511C259.767 33.4995 260.069 33.2762 260.392 33.0844C260.622 32.9478 260.872 32.8479 261.133 32.7881C262.807 32.3807 265.859 34.2104 268.051 31.3659C268.078 31.3395 268.1 31.3096 268.118 31.277C269.651 29.2176 270.214 24.6101 272.511 23.2545C272.585 23.2081 272.662 23.1661 272.74 23.1285C273.689 22.6841 274.918 22.7655 276.607 23.7285C282.689 27.2472 282.896 35.5808 285.089 41.0773C287.282 46.5738 290.378 48.285 292.067 50.648C293.756 53.0111 293.867 54.7593 297.615 59.915C301.364 65.0708 301.497 66.3375 301.497 67.3227V75.0119L251.703 46.2479V38.5291C251.665 38.1305 251.753 37.7302 251.953 37.3837C252.154 37.0372 252.457 36.7617 252.821 36.5957ZM295.741 67.8264C296.393 68.2042 296.919 67.7005 296.919 66.6931C296.928 66.2155 296.826 65.7422 296.622 65.3105C296.418 64.8787 296.116 64.5 295.741 64.2041C295.089 63.8263 294.571 64.3374 294.571 65.3375C294.561 65.8145 294.662 66.2873 294.865 66.719C295.068 67.1508 295.368 67.5298 295.741 67.8264ZM276.629 44.67C276.943 44.899 277.306 45.0518 277.689 45.1163C278.072 45.1808 278.465 45.1553 278.837 45.0417C279.208 44.9282 279.548 44.7297 279.83 44.4621C280.112 44.1944 280.327 43.8649 280.459 43.4996C280.894 42.5244 281.102 41.4631 281.067 40.3958C281.067 36.6253 279.081 32.4177 276.622 31.0029C276.29 30.8039 275.927 30.6612 275.548 30.5806C273.615 30.1954 272.185 32.0622 272.185 35.2697C272.17 39.0254 274.148 43.2255 276.607 44.6478L276.629 44.67ZM257.303 45.6034C257.955 45.9812 258.481 45.4775 258.481 44.4849C258.491 44.007 258.391 43.5332 258.186 43.1011C257.982 42.6691 257.679 42.2906 257.303 41.9959C256.658 41.6181 256.132 42.1218 256.132 43.1218C256.123 43.5977 256.224 44.0692 256.427 44.4997C256.63 44.9302 256.93 45.3079 257.303 45.6034Z" fill="#37474F"/>
<path d="M272.167 35.2323C272.167 39.0102 274.145 43.2104 276.612 44.6327C276.925 44.8616 277.288 45.0144 277.671 45.0789C278.055 45.1434 278.447 45.1179 278.819 45.0043C279.19 44.8908 279.53 44.6923 279.812 44.4247C280.094 44.157 280.309 43.8275 280.441 43.4622C280.064 43.3785 279.701 43.236 279.367 43.04C276.915 41.6177 274.923 37.4176 274.923 33.6397C274.89 32.575 275.098 31.5168 275.53 30.5432C273.597 30.1729 272.167 32.0322 272.167 35.2323Z" fill="#263238"/>
<path d="M295.739 67.8266C296.391 68.197 296.916 67.6933 296.916 66.7007C296.925 66.222 296.824 65.7477 296.62 65.3147C296.415 64.8817 296.114 64.5017 295.739 64.2043C295.094 63.8265 294.568 64.345 294.568 65.3376C294.56 65.8144 294.661 66.2866 294.864 66.7181C295.067 67.1496 295.366 67.5288 295.739 67.8266Z" fill="#263238"/>
<path d="M257.307 45.6024C257.959 45.9728 258.485 45.4764 258.485 44.4764C258.494 43.9977 258.392 43.5234 258.188 43.0904C257.984 42.6574 257.682 42.2774 257.307 41.98C256.663 41.6096 256.137 42.1208 256.137 43.1208C256.129 43.5964 256.231 44.0674 256.433 44.4976C256.636 44.9278 256.935 45.3057 257.307 45.6024Z" fill="#263238"/>
<path d="M328.295 91.0417L224.898 31.3432C224.624 31.2046 224.321 31.1323 224.013 31.1323C223.706 31.1323 223.402 31.2046 223.128 31.3432L222.128 31.921C221.871 32.0894 221.657 32.316 221.504 32.5824C221.351 32.8488 221.262 33.1476 221.246 33.4544V191.193C221.261 191.501 221.349 191.8 221.502 192.066C221.656 192.333 221.87 192.559 222.128 192.727L325.524 252.425C325.799 252.564 326.102 252.636 326.409 252.636C326.717 252.636 327.02 252.564 327.295 252.425L328.295 251.848C328.554 251.68 328.769 251.454 328.924 251.188C329.078 250.921 329.167 250.622 329.184 250.314V92.5751C329.166 92.2677 329.076 91.9687 328.922 91.7024C328.768 91.436 328.553 91.2097 328.295 91.0417Z" fill="#F5F5F5"/>
<path d="M221.272 33.1878C221.383 32.8248 221.723 32.7063 222.123 32.9433L325.52 92.6418C325.786 92.7997 326.004 93.0277 326.149 93.301L328.92 91.7084C328.77 91.4361 328.554 91.2066 328.29 91.0417L224.894 31.3432C224.619 31.2046 224.316 31.1323 224.009 31.1323C223.701 31.1323 223.398 31.2046 223.123 31.3432L222.123 31.921C221.904 32.0646 221.716 32.2506 221.569 32.4682C221.423 32.6858 221.322 32.9304 221.272 33.1878Z" fill="#FAFAFA"/>
<path d="M325.732 252.523C325.838 252.561 325.947 252.591 326.058 252.612H326.228C326.408 252.63 326.589 252.63 326.769 252.612C326.879 252.59 326.988 252.56 327.095 252.523L327.295 252.426L328.287 251.856C328.544 251.687 328.758 251.461 328.911 251.194C329.064 250.928 329.152 250.629 329.169 250.323V92.5762C329.164 92.27 329.077 91.9708 328.917 91.7095L326.147 93.3021C326.304 93.5675 326.393 93.8679 326.406 94.1762V251.915C326.406 252.397 326.11 252.634 325.732 252.523Z" fill="#E0E0E0"/>
<path d="M244.533 53.6848L247.289 52.0921C247.721 51.8801 248.199 51.7767 248.681 51.7909C249.162 51.8051 249.633 51.9365 250.052 52.1736C253.267 53.5885 254.66 54.233 256.319 54.9293L257.519 55.4108C258.171 55.6701 259.467 55.4478 259.067 53.1885L254.793 41.6844H254.86L257.563 40.1213C257.701 40.0352 257.855 39.9796 258.015 39.9584C258.097 39.9584 258.2 39.9584 258.312 39.9584C260.06 39.9139 260.534 28.632 260.571 28.2839L260.697 28.2172L263.371 26.6764C263.836 26.4128 264.363 26.2797 264.897 26.2912C265.791 26.3324 266.662 26.5864 267.438 27.032C271.638 29.2543 275.883 35.7804 276.92 41.6547C277.572 45.3586 281.298 51.0625 283.453 53.1663C285.609 55.27 285.757 57.0183 285.757 57.0183L287.431 66.5149L287.972 69.5594C288.365 71.8262 290.691 74.0041 290.691 74.0041L299.365 80.4191C304.795 84.923 306.328 89.4787 307.365 95.1085V95.153C307.365 95.353 307.365 95.4863 307.269 95.5382C307.255 95.5474 307.238 95.5523 307.221 95.5523C307.204 95.5523 307.187 95.5474 307.173 95.5382L306.061 94.9085L246.385 60.4925C246.245 60.3966 246.125 60.274 246.032 60.1316C245.939 59.9892 245.875 59.8299 245.844 59.6628C245.504 57.6109 244.511 53.7367 244.511 53.7367L244.533 53.6848ZM261.786 36.2545C262.43 39.8621 265.03 43.8918 267.616 45.2475C269.401 46.1808 270.705 45.603 271.142 43.9585C271.463 44.0841 271.81 44.1269 272.152 44.0829C272.494 44.0389 272.819 43.9095 273.097 43.7067C273.927 43.0548 266.327 30.0025 265.69 30.2914C265.393 30.4474 265.136 30.6684 264.938 30.9378C264.739 31.2071 264.603 31.5179 264.541 31.847C262.408 31.2025 261.215 33.01 261.786 36.2545Z" fill="#455A64"/>
<path opacity="0.5" d="M298.704 86.7602L303.052 84.249C305.571 87.5677 306.586 91.0567 307.334 95.1087V95.1531C307.334 95.3531 307.334 95.4865 307.238 95.5383C307.223 95.5476 307.207 95.5525 307.19 95.5525C307.172 95.5525 307.156 95.5476 307.141 95.5383L303.712 92.8271L298.704 86.7602Z" fill="#37474F"/>
<path opacity="0.5" d="M288.262 70.4403L282.128 73.9738L279.365 57.9954L284.891 54.8027C285.331 55.4345 285.627 56.1552 285.758 56.9139L287.432 66.4106L287.973 69.4551C288.034 69.7929 288.131 70.1232 288.262 70.4403Z" fill="#37474F"/>
<path opacity="0.5" d="M274.016 33.9219C275.414 36.2802 276.396 38.861 276.92 41.5518C277.36 43.4589 278.09 45.2875 279.083 46.9742L273.831 50.0113L271.216 43.9741C271.528 44.0865 271.862 44.121 272.19 44.0746C272.518 44.0281 272.83 43.902 273.098 43.7074C273.527 43.3667 271.72 39.7591 269.786 36.3664L274.016 33.9219Z" fill="#37474F"/>
<path d="M244.491 53.7074H244.528C244.961 53.5026 245.437 53.4038 245.917 53.4193C246.396 53.4347 246.864 53.564 247.284 53.7963C251.225 55.5371 252.417 56.1075 254.758 57.0334C255.38 57.2853 256.647 57.0853 256.314 54.9519C256.317 54.9025 256.317 54.853 256.314 54.8037L255.773 51.7666L254.291 43.4922C254.291 43.4922 253.951 42.1884 254.81 41.6995H254.877C255.092 41.5998 255.328 41.5492 255.565 41.5514C256.069 41.4908 256.552 41.3175 256.979 41.0443C257.406 40.7711 257.766 40.4051 258.032 39.9735C258.494 39.2859 258.813 38.513 258.972 37.7001C259.131 36.8873 259.127 36.0509 258.958 35.24C258.329 31.6918 259.017 29.2028 260.588 28.2768L260.714 28.2027C261.729 27.662 263.092 27.7509 264.684 28.5879C268.892 30.8102 273.136 37.3364 274.166 43.2107C274.825 46.9145 278.551 52.6258 280.707 54.7222C282.863 56.8186 283.003 58.5742 283.003 58.5742L284.626 68.019L285.159 71.0561C285.559 73.3229 287.885 75.5008 287.885 75.5008L296.552 82.0047C300.011 84.7579 302.508 88.5364 303.686 92.7977C303.686 92.7977 306.938 95.3237 307.138 95.5237L306.027 94.894L246.18 60.4928C246.18 60.4928 245.498 60.115 245.343 60.0187C245.187 59.9224 242.78 57.6483 242.78 57.6483C242.913 55.7074 243.491 54.3074 244.491 53.7074ZM261.78 36.2549C262.425 39.8624 265.025 43.8922 267.61 45.2478C269.396 46.1812 270.699 45.6034 271.136 43.9589C271.331 43.0357 271.331 42.0819 271.136 41.1588C270.492 37.5438 267.884 33.5215 265.299 32.1733C265.062 32.0433 264.814 31.9342 264.558 31.8473C262.403 31.2028 261.21 33.0103 261.78 36.2549Z" fill="#37474F"/>
<path d="M261.783 36.2538C262.427 39.8613 265.027 43.8911 267.613 45.2467C269.398 46.1801 270.702 45.6023 271.139 43.9578C270.884 43.8737 270.636 43.7697 270.398 43.6467C267.805 42.2911 265.213 38.2613 264.568 34.6463C264.374 33.7231 264.374 32.7695 264.568 31.8462C262.405 31.2018 261.212 33.0092 261.783 36.2538Z" fill="#263238"/>
<path d="M264.28 32.0018C264.038 31.9872 263.796 32.0355 263.578 32.1419C263.36 32.2483 263.173 32.4093 263.036 32.6093C261.962 34.1353 262.991 38.0169 263.436 39.2762C264.051 41.0022 268.066 45.0616 269.169 45.0616C269.535 45.0013 269.885 44.867 270.197 44.6671C270.509 44.4671 270.777 44.2056 270.984 43.8986C271.166 43.009 271.166 42.0917 270.984 41.2022C270.355 37.6317 267.777 33.6612 265.236 32.313C265.01 32.1936 264.774 32.092 264.532 32.0093H264.288L264.28 32.0018ZM264.288 31.8389H264.562C264.818 31.9258 265.066 32.0349 265.303 32.1648C267.888 33.513 270.488 37.5354 271.14 41.1503C271.335 42.0735 271.335 43.0273 271.14 43.9504C270.917 44.284 270.627 44.568 270.29 44.7847C269.952 45.0014 269.573 45.1461 269.177 45.2097C267.977 45.2097 263.94 41.1133 263.295 39.2836C262.651 37.4539 261.251 31.7944 264.303 31.7944L264.288 31.8389Z" fill="#263238"/>
<path d="M307.166 95.5464L246.216 60.5081L245.371 60.0414C245.223 59.9525 242.816 57.6636 242.816 57.6636L303.722 92.8204C303.722 92.8204 307.411 95.6798 307.166 95.5464Z" fill="#263238"/>
<path d="M315.342 120.118V121.503C315.342 122.244 314.808 122.562 314.157 122.184L233.517 75.6197C233.173 75.3954 232.886 75.0936 232.681 74.7385C232.475 74.3834 232.355 73.9849 232.331 73.5751V72.1825C232.331 71.4417 232.865 71.1232 233.517 71.501L314.157 118.073C314.501 118.297 314.787 118.599 314.993 118.954C315.199 119.309 315.319 119.708 315.342 120.118Z" fill="#E0E0E0"/>
<path d="M315.342 128.494V129.88C315.342 130.62 314.808 130.939 314.157 130.561L233.517 83.989C233.172 83.7652 232.886 83.4635 232.68 83.1083C232.474 82.7531 232.355 82.3544 232.331 81.9445V80.5518C232.331 79.8111 232.865 79.4999 233.517 79.8703L314.157 126.45C314.501 126.674 314.787 126.975 314.993 127.331C315.199 127.686 315.319 128.084 315.342 128.494Z" fill="#E0E0E0"/>
<path d="M315.342 136.821V138.199C315.342 138.94 314.808 139.258 314.157 138.881L233.517 92.3233C233.173 92.099 232.886 91.7972 232.681 91.4421C232.475 91.087 232.355 90.6885 232.331 90.2788V88.8861C232.331 88.1454 232.865 87.8268 233.517 88.2046L314.157 134.777C314.501 135.001 314.787 135.302 314.993 135.657C315.199 136.013 315.319 136.411 315.342 136.821Z" fill="#E0E0E0"/>
<path d="M315.342 155.273V156.659C315.342 157.399 314.808 157.718 314.157 157.34L233.517 110.79C233.172 110.566 232.886 110.265 232.68 109.91C232.474 109.554 232.355 109.156 232.331 108.746V107.353C232.331 106.612 232.865 106.301 233.517 106.672L314.157 153.229C314.501 153.453 314.787 153.754 314.993 154.11C315.199 154.465 315.319 154.863 315.342 155.273Z" fill="#E0E0E0"/>
<path d="M315.342 163.644V165.037C315.342 165.778 314.808 166.089 314.157 165.719L233.517 119.147C233.172 118.923 232.886 118.621 232.68 118.266C232.474 117.911 232.355 117.512 232.331 117.102V115.709C232.331 114.969 232.865 114.65 233.517 115.028L314.157 161.6C314.5 161.824 314.787 162.126 314.993 162.481C315.198 162.836 315.318 163.235 315.342 163.644Z" fill="#E0E0E0"/>
<path d="M315.342 171.978V173.363C315.342 174.104 314.808 174.423 314.157 174.045L233.517 127.473C233.172 127.249 232.886 126.947 232.68 126.592C232.474 126.237 232.355 125.838 232.331 125.428V124.036C232.331 123.295 232.865 122.984 233.517 123.354L314.157 169.934C314.501 170.157 314.787 170.459 314.993 170.814C315.199 171.17 315.319 171.568 315.342 171.978Z" fill="#E0E0E0"/>
<path d="M315.342 190.424V191.816C315.342 192.557 314.808 192.868 314.157 192.498L233.517 145.926C233.172 145.702 232.886 145.4 232.68 145.045C232.474 144.69 232.355 144.291 232.331 143.881V142.489C232.331 141.748 232.865 141.429 233.517 141.807L314.157 188.379C314.5 188.603 314.787 188.905 314.993 189.26C315.198 189.615 315.318 190.014 315.342 190.424Z" fill="#E0E0E0"/>
<path d="M315.342 198.802V200.187C315.342 200.928 314.808 201.246 314.157 200.868L233.517 154.296C233.173 154.074 232.886 153.774 232.68 153.42C232.474 153.066 232.355 152.668 232.331 152.259V150.867C232.331 150.126 232.865 149.807 233.517 150.185L314.157 196.757C314.501 196.981 314.787 197.283 314.993 197.638C315.199 197.993 315.319 198.392 315.342 198.802Z" fill="#E0E0E0"/>
<path d="M315.342 207.127V208.52C315.342 209.261 314.808 209.572 314.157 209.201L233.517 162.644C233.172 162.42 232.886 162.119 232.68 161.763C232.474 161.408 232.355 161.009 232.331 160.6V159.207C232.331 158.466 232.865 158.148 233.517 158.525L314.157 205.083C314.5 205.307 314.787 205.609 314.993 205.964C315.198 206.319 315.318 206.717 315.342 207.127Z" fill="#E0E0E0"/>
<path d="M273.826 208.246L232.306 184.282V185.082L273.826 209.046V208.246Z" fill="#E0E0E0"/>
<path d="M241.894 182.942C243.758 183.859 246.408 184.553 248.247 183.132C249.367 182.271 249.265 181.013 248.191 180.145C246.087 178.443 242 178.963 239.571 179.348C237.462 179.71 233.676 180.724 234.626 183.657C235.751 187.088 241.608 186.862 244.343 186.207C244.726 186.114 244.598 185.478 244.214 185.495C243.526 185.533 238.97 185.76 240.557 187.486C241.118 188.103 242.449 187.874 243.155 187.808C244.415 187.68 245.937 187.1 247.204 187.31L247.141 186.653C246.236 187.218 245.589 187.549 245.241 188.606C245.202 188.693 245.199 188.792 245.233 188.881C245.267 188.971 245.335 189.043 245.422 189.083C246.95 189.552 248.524 188.737 250.022 189.361L249.977 188.779C249.682 188.95 248.764 189.3 248.361 189.507C248.175 189.614 248.198 189.935 248.341 190.049C248.454 190.177 248.599 190.273 248.76 190.33C248.921 190.386 249.094 190.401 249.263 190.372L249.161 189.781C247.141 191.512 250.52 192.135 251.761 192.3C255.439 192.743 258.983 192.527 262.298 190.682C262.561 190.53 262.41 189.958 262.092 190.133C259.539 191.548 256.586 191.781 253.788 192.447C250.781 193.165 247.791 194.045 244.844 195.045L244.94 195.597C246.894 194.661 248.999 194.083 251.156 193.889C252.96 193.511 254.825 193.542 256.615 193.98L256.531 193.464C255.936 193.957 255.24 194.313 254.493 194.508C253.745 194.703 252.964 194.732 252.204 194.593C251.953 194.558 251.8 195.049 252.051 195.083C253.344 195.278 254.297 196.276 255.593 196.537C256.97 196.691 258.356 196.734 259.74 196.666L259.713 196.22C257.531 197.419 262.067 197.512 262.586 197.581L262.521 197.173C262.156 197.563 261.965 197.913 262.247 198.417C262.822 199.412 264.486 198.947 265.086 199.601C265.086 199.601 264.999 200.088 265.053 200.21C265.231 200.659 265.554 201.036 265.97 201.28C266.997 201.806 268.146 202.047 269.298 201.977C269.57 201.974 269.6 201.434 269.302 201.436C268.183 201.423 265.08 201.161 265.52 199.419C265.544 199.311 265.523 199.127 265.388 199.102C264.842 199.015 261.87 198.43 262.75 197.495C262.856 197.382 262.889 197.114 262.689 197.093C262.191 197.03 261.684 197.041 261.177 197.008C260.901 196.988 259.203 196.967 259.86 196.623C260.014 196.534 260.056 196.193 259.833 196.176C258.358 196.095 256.657 196.393 255.221 195.922C254.161 195.567 253.369 194.759 252.23 194.578L252.077 195.069C252.903 195.238 253.756 195.221 254.575 195.019C255.393 194.817 256.157 194.436 256.809 193.902C256.848 193.867 256.877 193.823 256.894 193.774C256.911 193.725 256.916 193.672 256.908 193.621C256.899 193.57 256.878 193.521 256.846 193.48C256.814 193.439 256.773 193.407 256.725 193.386C254.929 192.823 252.988 193.046 251.155 193.309C248.955 193.511 246.808 194.102 244.814 195.053C244.616 195.168 244.624 195.702 244.911 195.605C248.076 194.501 251.301 193.578 254.572 192.841C257.212 192.258 259.913 191.973 262.312 190.648L262.107 190.099C259.621 191.471 256.786 192.075 253.957 191.836C253.192 191.799 252.415 191.743 251.652 191.636C251.311 191.593 248.314 191.202 249.401 190.301C249.556 190.169 249.603 189.688 249.299 189.71L248.622 189.485L248.608 190.023C249.146 189.755 249.693 189.576 250.234 189.298C250.433 189.184 250.383 188.802 250.182 188.721C248.661 188.085 247.079 188.887 245.548 188.411L245.729 188.888C246.109 188.207 246.68 187.651 247.372 187.29C247.596 187.16 247.615 186.688 247.309 186.633C245.921 186.391 244.285 187.01 242.898 187.127C242.139 187.189 239.97 187.107 241.849 186.45C242.673 186.257 243.52 186.174 244.366 186.202L244.237 185.49C241.849 186.065 237.827 186.24 235.915 184.41C233.453 182.085 237.217 180.561 239.066 180.178C241.228 179.745 243.446 179.672 245.631 179.963C246.056 180.003 246.475 180.085 246.884 180.207C247.727 180.481 247.951 180.574 247.955 181.633C247.959 182.691 247.731 182.874 246.76 183.178C246.265 183.307 245.755 183.365 245.244 183.352C244.175 183.291 243.126 183.047 242.141 182.629C241.998 182.574 241.807 182.881 241.957 182.948L241.894 182.942Z" fill="#455A64"/>
<path d="M195.916 221.723C197.513 221.343 199.274 222.482 200.302 224.988C201.33 227.495 203.391 233.902 203.832 235.579C204.026 236.329 198.325 242.974 198.537 242.877C198.599 242.846 196.679 239.634 196.679 239.634L199.446 235.376L197.681 230.756L195.916 221.723Z" fill="#B16668"/>
<path d="M199.613 281.206C199.829 281.29 199.886 281.7 199.917 282.53C199.943 283.152 200.076 284.233 199.348 284.449C198.62 284.666 197.556 284.555 197.088 283.973C196.525 283.188 195.923 282.433 195.284 281.709C194.564 280.932 193.788 280.213 193.497 279.128C193.232 278.148 193.452 277.724 194.119 277.438C195.041 277.049 196.484 278.32 197.208 278.527C197.821 278.695 199.396 281.127 199.613 281.206Z" fill="#263238"/>
<path d="M199.612 280.447V281.453C199.234 281.695 198.798 281.83 198.349 281.842C197.9 281.854 197.457 281.745 197.066 281.524C197.022 281.427 196.801 280.081 196.801 280.081L199.612 280.447Z" fill="#B16668"/>
<path d="M192.121 286.558C192.295 287.098 192.443 287.645 192.562 288.2C192.69 288.809 192.866 289.828 192.65 290.282C192.434 290.737 191.609 291.037 190.316 291.028C189.482 291.028 188.18 291.589 187.289 292.087C186.393 292.526 185.38 292.667 184.399 292.489C183.251 292.352 182.06 291.686 181.874 291.213C181.689 290.741 181.927 290.507 184.632 289.356C184.659 289.356 187.483 288.067 188.794 286.624L192.121 286.558Z" fill="#263238"/>
<path d="M192.123 285.469C192.123 285.469 192.123 286.214 192.123 286.643C192.123 287.071 191.62 287.706 190.314 287.662C189.396 287.627 188.756 287.379 188.796 286.625V285.539L192.123 285.469Z" fill="#B16668"/>
<path d="M200.607 266.485C200.39 264.718 199.977 262.98 199.375 261.305C199.375 261.305 199.945 256.848 200.258 252.568C200.845 244.894 200.373 242.388 198.864 238.946C198.864 238.946 185.992 237.622 185.599 242.992C185.109 249.655 185.758 262.531 185.934 264.883C186.111 267.235 186.332 268.299 187.161 273.215C187.797 276.956 188.776 285.539 188.776 285.539C189.294 285.802 189.868 285.933 190.449 285.921C191.029 285.908 191.597 285.753 192.103 285.469C192.103 285.469 193.154 274.755 193.043 272.041C192.966 270.033 192.626 268.043 192.033 266.123C192.033 266.123 192.831 255.264 193.061 253.534C193.061 253.534 193.467 256.98 193.643 259.332C193.82 261.684 194.526 263.935 195.197 268.308C195.788 272.098 196.887 280.575 196.887 280.575C198.594 281.502 199.614 280.456 199.614 280.456C199.614 280.456 201.066 269.773 200.607 266.485Z" fill="#0052CC"/>
<path d="M189.338 219.989L189.942 224.962L194.315 224.569L193.817 219.049L189.338 219.989Z" fill="#B16668"/>
<path d="M199.116 224.203C198.635 222.879 196.998 221.436 195.316 221.749L194.081 221.974C194.046 223.122 191.874 223.713 189.73 223.02C189.086 223.206 188.49 223.395 187.965 223.585C186.425 224.137 185.807 226.674 185.758 230.972C185.71 235.27 185.269 245.918 185.269 245.918L187.091 246.496L187.93 243.376L188.269 247.114C190.316 247.591 192.445 247.58 194.487 247.083C199.111 246.072 200.55 243.579 200.55 243.579C199.984 240.693 198.86 237.945 197.24 235.491C199.553 229.326 199.826 226.158 199.116 224.203Z" fill="#EBEBEB"/>
<path d="M186.086 213.67C185.824 213.075 185.717 212.425 185.775 211.778C185.833 211.131 186.054 210.51 186.417 209.972C187.886 207.668 190.715 207.276 194.068 208.176C195.239 208.534 196.27 209.246 197.021 210.212C197.772 211.179 198.207 212.354 198.265 213.577C198.428 216.035 191.566 217.848 191.725 219.534L186.086 213.67Z" fill="#263238"/>
<path d="M185.938 214.605C185.938 214.605 185.006 216.096 185.139 216.251C185.369 216.394 185.623 216.495 185.889 216.551L185.938 214.605Z" fill="#9A4A4D"/>
<path d="M188.776 209.879C187.849 210.391 186.243 211.336 185.916 214.822C185.581 218.396 186.411 219.614 186.909 220.068C187.245 220.377 188.943 220.443 189.817 220.148C190.911 219.773 193.277 218.528 194.349 216.657C195.611 214.451 195.805 211.561 194.252 210.48C193.465 209.924 192.549 209.577 191.591 209.472C190.633 209.367 189.665 209.507 188.776 209.879Z" fill="#B16668"/>
<path d="M188.502 210.034C188.502 210.034 187.769 213.308 188.81 215.329C188.81 215.329 189.349 214.045 190.452 214.38C191.555 214.715 191.498 216.185 190.655 216.957C190.44 217.178 190.166 217.333 189.866 217.405C189.567 217.477 189.252 217.462 188.96 217.363C189.332 218.29 189.889 219.131 190.598 219.834C190.598 219.834 193.859 221.286 196.678 218.1C199.242 215.21 198.765 210.157 194.843 208.979C190.92 207.801 188.502 210.034 188.502 210.034Z" fill="#263238"/>
<path d="M197.8 210.374C197.646 210.506 197.55 210.694 197.534 210.897C197.519 211.099 197.584 211.3 197.716 211.455L198.881 210.453C198.815 210.376 198.735 210.314 198.645 210.268C198.555 210.223 198.457 210.195 198.357 210.188C198.256 210.181 198.155 210.193 198.06 210.225C197.964 210.257 197.876 210.307 197.8 210.374Z" fill="#263238"/>
<path d="M176.885 231.479C176.249 230.756 176.002 229.141 175.164 228.037C174.325 226.934 174.008 226.127 173.672 226.608C173.231 227.248 174.228 228.523 174.008 228.651C173.787 228.779 172.957 230.46 172.874 231.396C172.79 232.331 175.265 234.679 175.265 234.679L176.885 231.479Z" fill="#B16668"/>
<path d="M174.076 228.505C174.076 228.505 171.084 228.249 170.648 228.505C170.211 228.761 170.343 230.059 170.648 230.853C170.952 231.647 172.479 232.177 173.895 233.121C173.895 232.98 174.076 228.505 174.076 228.505Z" fill="#B16668"/>
<path d="M188.335 223.465C187.051 223.907 185.925 224.432 184.725 226.687C183.185 229.586 180.379 235.26 180.379 235.26L176.884 231.479C176.884 231.479 176.376 230.764 175.432 232.326C174.488 233.888 174.903 234.321 174.903 234.321C174.903 234.321 178.967 239.766 179.712 240.459C180.458 241.151 181.685 240.613 182.488 239.523C183.291 238.433 188.335 232.119 188.335 232.119C188.335 232.119 191.093 228.491 188.335 223.465Z" fill="#B16668"/>
<path opacity="0.2" d="M193.06 253.525L193.307 250.926C194.708 250.718 196.047 250.21 197.234 249.439C197.234 249.439 196.396 250.763 194.101 251.389L193.863 254.699L193.722 260.126L193.06 253.525Z" fill="black"/>
<path d="M202.227 222.777C201.631 222.779 201.04 222.663 200.489 222.437C199.938 222.21 199.437 221.877 199.015 221.456C198.593 221.036 198.258 220.536 198.029 219.986C197.8 219.436 197.682 218.846 197.682 218.25V211.371C198.201 211.202 198.753 211.159 199.292 211.244C199.831 211.33 200.342 211.542 200.784 211.863C201.225 212.184 201.585 212.605 201.832 213.092C202.08 213.578 202.209 214.117 202.209 214.662L202.227 222.777Z" fill="#263238"/>
<path d="M185.662 235.477C185.662 235.477 188.172 232.238 188.976 230.936L185.573 238.12L185.662 235.477Z" fill="#E0E0E0"/>
<path d="M163.646 208.877C164.6 211.688 166.634 220.072 166.634 220.072C166.634 220.072 170.513 225.231 171.58 226.215C172.172 226.762 173.509 227.746 173.509 227.746L172.397 228.567C172.397 228.567 170.543 228.002 170.389 229.008C168.457 227.453 166.629 225.773 164.917 223.977C164.485 223.527 164.181 222.969 164.035 222.362L162.38 215.245C162.38 215.245 162.38 209.508 161.497 208.758C160.615 208.008 160.964 206.309 160.964 206.309C161.568 206.327 162.896 206.675 163.646 208.877Z" fill="#FFA8A7"/>
<path d="M160.932 206.027C160.662 206.786 160.334 207.524 159.953 208.233C159.564 208.9 162.534 220.88 162.733 221.771C162.931 222.663 168.69 227.856 168.69 227.856C169.73 227.416 170.557 226.586 170.993 225.544L166.836 220.134C166.836 220.134 165.544 214.459 164.864 211.856C164.184 209.253 163.461 206.309 160.932 206.027Z" fill="#407BFF"/>
<path opacity="0.8" d="M160.932 206.027C160.662 206.786 160.334 207.524 159.953 208.233C159.564 208.9 162.534 220.88 162.733 221.771C162.931 222.663 168.69 227.856 168.69 227.856C169.73 227.416 170.557 226.586 170.993 225.544L166.836 220.134C166.836 220.134 165.544 214.459 164.864 211.856C164.184 209.253 163.461 206.309 160.932 206.027Z" fill="#0052CC"/>
<path d="M148.771 262.329H151.64V267.244H148.771V262.329Z" fill="#FFA8A7"/>
<path d="M160.509 263.52L163.377 263.621L163.519 258.419L160.509 258.322V263.52Z" fill="#FFA8A7"/>
<path d="M149.172 227.252C149.172 229.992 148.982 245.931 148.982 245.931C148.916 246.716 148.157 248.137 148.1 250.961C148.016 255.083 148.651 264.786 148.651 264.786C149.147 265.029 149.69 265.161 150.242 265.172C150.794 265.182 151.342 265.072 151.846 264.848C151.846 264.848 154.101 251.125 154.613 247.043C155.054 243.486 156.612 233.986 156.612 233.986L158.818 246.015C158.485 247.511 158.365 249.047 158.461 250.577C158.598 252.462 160.345 261.909 160.345 261.909C160.845 262.192 161.401 262.362 161.974 262.406C162.546 262.45 163.122 262.368 163.659 262.165C163.659 262.165 163.831 247.334 163.862 245.604C163.902 243.632 163.041 226.656 163.041 226.656L149.172 227.252Z" fill="#37474F"/>
<path d="M151.638 265.827V265.417C151.793 265.417 151.885 265.567 151.947 265.933C151.988 266.207 152.044 266.478 152.115 266.745C152.241 267.248 152.408 267.739 152.614 268.215C153.019 269.216 153.359 269.587 154.29 270.756C154.606 271.08 154.9 271.424 155.173 271.785C155.345 272.093 155.407 272.949 155.111 273.148C154.03 273.872 152.384 273.889 151.219 273.55C150.786 273.428 150.396 273.184 150.096 272.848C149.797 272.512 149.6 272.097 149.529 271.652C149.485 271.387 149.503 271.114 149.472 270.849C149.369 270.243 149.122 269.671 148.752 269.181C148.538 268.898 148.353 268.593 148.201 268.272C147.963 267.685 148.152 267.019 148.307 266.432C148.439 265.924 148.585 265.368 148.748 265.417V265.726C149.157 266.049 149.665 266.221 150.187 266.211C150.623 266.229 151.643 266.145 151.638 265.827Z" fill="#263238"/>
<path d="M163.408 262.735C163.558 262.735 163.677 262.951 164.008 263.308C164.499 263.803 165.069 264.213 165.693 264.522C166.77 265.06 168.857 265.885 169.806 266.313C170.397 266.578 170.367 267.293 169.758 267.699C169.149 268.105 167.67 268.396 165.901 268.003C164.939 267.787 163.695 266.896 162.887 266.944C162.079 266.993 160.606 266.98 160.019 266.574C159.432 266.168 159.666 265.307 159.833 264.566C160.014 263.758 160.239 262.492 160.509 262.549V262.827C160.853 263.352 162.635 263.564 163.39 263.18L163.408 262.735Z" fill="#263238"/>
<path d="M156.609 233.986C158.095 233.527 159.462 232.748 160.615 231.705C160.615 231.705 159.843 233.152 157.526 234.493L158.638 245.194L156.609 233.986Z" fill="#263238"/>
<path d="M154.151 206.222C153.171 206.46 151.203 206.782 150.762 208.728C150.232 211.062 150.06 216.15 150.06 216.15L149.879 227.473C151.856 228.912 159.115 229.68 163.276 226.657C163.276 226.657 162.764 213.066 162.764 210.948C162.764 208.83 161.591 206.288 158.352 206.094L154.151 206.222Z" fill="#F5F5F5"/>
<path d="M158.298 205.882C159.191 206.629 159.837 207.629 160.151 208.75C160.549 210.462 160.593 229.582 160.593 229.582C160.593 229.582 162.623 229.207 163.571 228.461C163.571 228.461 163.452 213.37 163.258 210.872C162.962 207.091 162.993 206.018 158.285 205.599L158.298 205.882Z" fill="#0052CC"/>
<path d="M153.294 205.599C153.294 205.599 155.999 207.263 156.03 213.886C156.056 219.623 156.246 229.582 156.246 229.582C156.246 229.582 151.767 230.24 148.93 228.545C148.93 228.545 148.59 214.663 148.647 212.514C148.709 210.052 149.283 206.87 150.073 206.552C151.121 206.155 152.198 205.836 153.294 205.599Z" fill="#0052CC"/>
<path d="M143.233 220.805C145.925 209.8 147.915 206.129 151.176 206.173C152.134 207.311 151.869 210.762 150.36 212.854C150.36 212.854 146.993 219.949 146.459 222.473C145.987 224.68 145.453 227.482 145.484 229.388C145.495 229.725 145.628 230.046 145.859 230.292C146.472 230.959 146.477 231.497 146.874 232.234C147.187 232.808 147.527 233.024 147.43 233.156C147.301 233.293 147.126 233.376 146.939 233.39C146.752 233.404 146.566 233.347 146.419 233.231C146.132 233.022 145.875 232.774 145.656 232.494C145.761 233.2 145.965 233.888 146.26 234.538C146.953 236.095 146.785 236.889 144.681 236.333C143.357 235.985 142.536 234.891 142.342 231.722C142.245 230.557 142.233 229.386 142.307 228.219C142.593 225.218 142.796 222.579 143.233 220.805Z" fill="#FFA8A7"/>
<path d="M151.746 205.992C151.746 205.992 149.579 205.895 148.405 207.082C147.232 208.269 145.648 210.766 144.112 216.225C142.576 221.683 142.104 225.672 142.029 228.743C142.029 228.743 143.953 229.626 145.727 228.62C145.727 228.62 146.512 223.867 147.21 221.339C147.907 218.811 150.506 213.484 150.506 213.484C150.506 213.484 152.99 209.791 151.746 205.992Z" fill="#407BFF"/>
<path d="M151.746 205.992C151.746 205.992 149.579 205.895 148.405 207.082C147.232 208.269 145.648 210.766 144.112 216.225C142.576 221.683 142.104 225.672 142.029 228.743C142.029 228.743 143.953 229.626 145.727 228.62C145.727 228.62 146.512 223.867 147.21 221.339C147.907 218.811 150.506 213.484 150.506 213.484C150.506 213.484 152.99 209.791 151.746 205.992Z" fill="#0051CB" fill-opacity="0.8"/>
<path opacity="0.1" d="M152.988 209.222L154.228 210.753L153.606 212.5L155.234 216.675L153.275 212.5L153.959 210.85L152.988 209.222Z" fill="black"/>
<path opacity="0.1" d="M161.725 208.728L161.456 210.312L162.528 211.711L161.037 216.406L162.193 211.763L161.205 210.457L161.725 208.728Z" fill="black"/>
<path d="M154.897 197.426C154.548 195.276 156.009 193.249 158.159 192.9C160.31 192.551 162.336 194.012 162.685 196.162C163.034 198.313 161.574 200.339 159.423 200.688C157.273 201.037 155.246 199.577 154.897 197.426Z" fill="#263238"/>
<path d="M151.974 199.593C151.974 199.593 152.613 202.598 152.856 203.093C153.028 203.395 153.309 203.621 153.642 203.724L153.597 201.61L151.974 199.593Z" fill="#263238"/>
<path d="M152.778 195.291C152.553 195.266 152.326 195.292 152.113 195.369C151.901 195.445 151.708 195.57 151.551 195.732C151.026 196.271 151.317 197.939 151.993 199.602L153.197 199.739L152.778 195.291Z" fill="#263238"/>
<path d="M153.556 199.735C153.314 199.876 152.969 199.413 152.674 199.104C152.557 198.967 152.408 198.862 152.239 198.8C152.071 198.738 151.889 198.72 151.712 198.749C151.534 198.777 151.367 198.85 151.227 198.962C151.086 199.074 150.976 199.22 150.909 199.386C150.414 200.428 151.35 201.804 152.1 202.034C153.424 202.449 153.618 201.593 153.618 201.593L153.715 206.495C154.629 207.664 156.676 209.041 157.779 208.843C158.662 208.688 158.851 207.201 158.009 206.226V204.787C158.592 204.88 159.184 204.91 159.774 204.876C160.745 204.726 161.353 203.962 161.649 202.912C162.121 201.226 162.302 199.867 161.901 196.549C161.459 192.913 157.232 192.877 154.951 194.312C152.669 195.746 153.556 199.735 153.556 199.735Z" fill="#FFA8A7"/>
<path d="M153.555 200.14C153.431 200.14 152.968 199.377 152.672 199.103C152.257 198.724 152.796 195.291 152.796 195.291C152.651 194.989 152.602 194.65 152.653 194.32C152.704 193.989 152.854 193.682 153.082 193.437C153.652 192.811 154.446 192.043 157.054 192.352C158.898 192.568 160.906 193.142 162.53 192.352C162.68 192.881 162.669 193.443 162.497 193.966C162.326 194.489 162.002 194.949 161.568 195.286C160.903 195.616 160.178 195.809 159.437 195.851C158.011 195.959 156.577 195.932 155.156 195.772C154.715 195.71 154.614 196.142 154.371 197.329C154.124 198.366 153.947 200.131 153.555 200.14Z" fill="#263238"/>
<path d="M152.778 195.56L151.317 194.775C151.364 194.676 151.43 194.589 151.512 194.516C151.594 194.444 151.689 194.39 151.793 194.355C151.896 194.321 152.006 194.308 152.114 194.317C152.223 194.326 152.329 194.358 152.425 194.409C152.619 194.52 152.763 194.701 152.828 194.915C152.894 195.129 152.876 195.359 152.778 195.56Z" fill="#263238"/>
<path d="M157.996 204.787C156.999 204.597 156.021 204.316 155.075 203.949C154.63 203.716 154.265 203.355 154.029 202.912C154.143 203.355 154.346 203.771 154.625 204.134C155.176 204.84 157.996 205.361 157.996 205.361V204.787Z" fill="#F28F8F"/>
<path d="M157.479 199.191C157.479 199.308 157.432 199.421 157.349 199.503C157.267 199.586 157.154 199.633 157.037 199.633C156.92 199.633 156.808 199.586 156.725 199.503C156.642 199.421 156.596 199.308 156.596 199.191C156.596 199.074 156.642 198.962 156.725 198.879C156.808 198.796 156.92 198.75 157.037 198.75C157.154 198.75 157.267 198.796 157.349 198.879C157.432 198.962 157.479 199.074 157.479 199.191Z" fill="#263238"/>
<path d="M157.019 197.555L156.092 198.067C156.026 197.939 156.012 197.791 156.052 197.653C156.092 197.515 156.184 197.398 156.308 197.325C156.369 197.292 156.437 197.272 156.506 197.265C156.576 197.259 156.646 197.267 156.712 197.288C156.779 197.31 156.84 197.344 156.893 197.39C156.945 197.436 156.988 197.492 157.019 197.555Z" fill="#263238"/>
<path d="M157.806 202.188L158.794 202.559C158.773 202.625 158.739 202.687 158.693 202.74C158.648 202.794 158.592 202.837 158.53 202.868C158.467 202.899 158.398 202.917 158.329 202.92C158.259 202.924 158.189 202.914 158.123 202.89C157.99 202.836 157.882 202.733 157.823 202.603C157.764 202.472 157.758 202.323 157.806 202.188Z" fill="#F28F8F"/>
<path d="M161.347 197.916L160.5 197.263C160.54 197.206 160.591 197.158 160.65 197.121C160.709 197.084 160.775 197.059 160.844 197.049C160.913 197.038 160.983 197.041 161.05 197.058C161.118 197.076 161.181 197.106 161.237 197.149C161.35 197.238 161.424 197.368 161.444 197.511C161.465 197.653 161.43 197.799 161.347 197.916Z" fill="#263238"/>
<path d="M161.086 199.051C161.086 199.168 161.039 199.28 160.957 199.363C160.874 199.445 160.762 199.492 160.645 199.492C160.528 199.492 160.415 199.445 160.333 199.363C160.25 199.28 160.203 199.168 160.203 199.051C160.203 198.934 160.25 198.821 160.333 198.739C160.415 198.656 160.528 198.609 160.645 198.609C160.762 198.609 160.874 198.656 160.957 198.739C161.039 198.821 161.086 198.934 161.086 199.051Z" fill="#263238"/>
<path d="M158.875 198.658L159.016 201.266L160.38 200.802L158.875 198.658Z" fill="#F28F8F"/>
<path d="M159.35 208.56C159.085 209.195 158.591 209.442 157.704 209.553C157.255 209.58 156.805 209.516 156.382 209.365C155.958 209.213 155.57 208.977 155.241 208.67L156.345 207.571L157.752 208.626L157.871 207.448L159.35 208.56Z" fill="#407BFF"/>
<path opacity="0.1" d="M159.35 208.56C159.085 209.195 158.591 209.442 157.704 209.553C157.255 209.58 156.805 209.516 156.382 209.365C155.958 209.213 155.57 208.977 155.241 208.67L156.345 207.571L157.752 208.626L157.871 207.448L159.35 208.56Z" fill="black"/>
<path d="M158.651 208.215C158.781 208.597 158.83 209.001 158.796 209.402C158.754 209.76 158.617 210.1 158.399 210.386C158.259 210.476 158.1 210.533 157.935 210.551C157.77 210.57 157.602 210.549 157.446 210.492C157.16 210.247 156.931 209.943 156.773 209.601C156.616 209.259 156.534 208.887 156.532 208.511L157.75 208.648L158.651 208.215Z" fill="#0052CC"/>
<path d="M158.408 210.387C158.408 210.387 159.851 218.33 159.908 218.983C159.966 219.636 159.083 221.904 158.532 221.921C157.98 221.939 156.903 219.878 156.89 219.274C156.877 218.669 157.455 210.471 157.455 210.471L158.408 210.387Z" fill="#0052CC"/>
<path opacity="0.1" d="M157.444 210.493C157.598 210.561 157.768 210.587 157.935 210.568C158.103 210.55 158.262 210.487 158.397 210.387V210.515C158.26 210.625 158.098 210.7 157.925 210.733C157.752 210.767 157.574 210.759 157.405 210.709L157.444 210.493Z" fill="black"/>
<path d="M157.751 208.648L153.691 205.559V204.642C153.691 204.642 152.747 204.999 152.535 206.663C153.186 208.105 154.3 209.29 155.699 210.029L156.551 208.512L157.751 208.648Z" fill="#E0E0E0"/>
<path d="M157.998 205.061C158.529 205.144 159.005 205.435 159.322 205.868C159.728 206.534 159.635 209.098 159.635 209.098L158.665 208.216L157.782 208.657C157.866 207.805 158.034 206.252 158.034 206.252L157.998 205.061Z" fill="#E0E0E0"/>
<path d="M173.852 233.148C173.472 232.615 173.251 231.987 173.212 231.334C173.097 230.5 170.811 229.605 170.736 230.227C170.661 230.849 170.454 231.365 171.177 232.12C171.901 232.874 172.788 233.708 173.852 233.148Z" fill="#FFA8A7"/>
<path d="M173.734 227.76C174.281 228.466 174.617 229.838 174.908 230.301C175.199 230.765 175.543 231.184 174.908 231.25C174.272 231.316 173.35 230.098 173.006 229.348C172.873 229.052 172.67 228.791 172.415 228.589C172.314 228.509 172.203 228.443 172.084 228.395C172.379 228.294 172.225 227.102 172.432 226.939C172.432 226.939 173.509 227.38 173.734 227.76Z" fill="#FFA8A7"/>
<path opacity="0.2" d="M190.831 298.505C173.842 298.505 160.07 294.5 160.07 289.56C160.07 284.621 173.842 280.616 190.831 280.616C207.819 280.616 221.591 284.621 221.591 289.56C221.591 294.5 207.819 298.505 190.831 298.505Z" fill="#B3D4FF"/>
<path opacity="0.2" d="M152.242 277.364C135.253 277.364 121.482 273.36 121.482 268.42C121.482 263.481 135.253 259.476 152.242 259.476C169.23 259.476 183.002 263.481 183.002 268.42C183.002 273.36 169.23 277.364 152.242 277.364Z" fill="#B3D4FF"/>
<path d="M140.94 262.083L142.095 261.539C142.095 261.539 142.468 257.37 142.095 254.587C141.35 249.405 137.733 244.938 134.51 244.412C130.36 243.738 131.097 247.557 133.471 249.207C137.252 251.852 140.195 255.85 140.94 262.083Z" fill="#0052CC"/>
<g opacity="0.1">
<path opacity="0.1" d="M140.94 262.083L142.095 261.539C142.095 261.539 142.468 257.37 142.095 254.587C141.35 249.405 137.733 244.938 134.51 244.412C130.36 243.738 131.097 247.557 133.471 249.207C137.252 251.852 140.195 255.85 140.94 262.083Z" fill="black"/>
</g>
<path d="M141.377 260.422H141.347C141.295 260.412 141.248 260.381 141.218 260.337C141.188 260.293 141.177 260.239 141.187 260.187C141.992 255.929 138.486 248.034 133.795 245.792C133.746 245.768 133.708 245.726 133.689 245.675C133.671 245.624 133.673 245.567 133.697 245.518C133.72 245.468 133.762 245.43 133.813 245.412C133.865 245.393 133.921 245.396 133.971 245.419C138.814 247.729 142.413 255.85 141.585 260.254C141.577 260.303 141.552 260.347 141.513 260.377C141.475 260.408 141.426 260.424 141.377 260.422Z" fill="white"/>
<path d="M142.093 261.539C142.178 260.92 142.215 260.019 142.227 259.795C142.275 259.01 142.159 258.224 141.888 257.486C141.531 256.51 140.851 255.686 139.962 255.15C139.477 254.87 138.911 254.669 138.598 254.207C138.371 253.781 138.25 253.307 138.244 252.825C138.147 252.046 137.905 251.223 137.279 250.746C136.653 250.269 135.789 250.258 135.044 250.34C133.926 250.459 132.879 250.608 131.836 250.098C131.003 249.655 130.142 249.267 129.258 248.936C128.141 248.563 125.641 248.004 125.115 249.573C125.056 249.789 125.045 250.016 125.085 250.237C125.124 250.458 125.212 250.668 125.343 250.85C125.607 251.214 125.923 251.537 126.281 251.808L128.029 253.261C128.237 253.414 128.417 253.601 128.561 253.816C128.901 254.397 128.658 255.131 128.733 255.798C128.78 256.137 128.901 256.462 129.086 256.75C129.271 257.038 129.517 257.283 129.806 257.467C130.388 257.832 131.073 257.998 131.758 257.94C132.671 257.877 134.161 257.176 134.72 258.253C134.874 258.62 134.965 259.01 134.988 259.408C135.01 259.807 135.139 260.193 135.361 260.526C135.733 260.98 136.355 261.11 136.936 261.17C137.751 261.185 138.559 261.31 139.339 261.543C139.652 261.666 139.85 262.064 140.032 262.329C140.602 262.139 141.228 261.911 142.093 261.539Z" fill="#0052CC"/>
<path d="M141.584 261.226C141.612 261.233 141.641 261.233 141.669 261.226C141.716 261.207 141.752 261.171 141.772 261.125C141.792 261.079 141.792 261.027 141.774 260.98C139.427 255.15 131.938 250.973 127.475 249.588C127.451 249.58 127.427 249.578 127.402 249.58C127.377 249.582 127.353 249.59 127.331 249.601C127.309 249.613 127.29 249.629 127.274 249.649C127.259 249.668 127.247 249.69 127.241 249.714C127.226 249.762 127.231 249.813 127.254 249.857C127.277 249.9 127.316 249.934 127.363 249.949C131.756 251.313 139.125 255.411 141.423 261.125C141.439 261.155 141.462 261.179 141.49 261.197C141.519 261.214 141.551 261.224 141.584 261.226Z" fill="white"/>
<defs>
<linearGradient id="paint0_linear_2197_49361" x1="67.6806" y1="266.54" x2="67.6806" y2="413.598" gradientUnits="userSpaceOnUse">
<stop stop-color="#E2F2F8"/>
<stop offset="1" stop-color="white" stop-opacity="0"/>
</linearGradient>
<linearGradient id="paint1_linear_2197_49361" x1="336.213" y1="285.802" x2="329.121" y2="492.918" gradientUnits="userSpaceOnUse">
<stop offset="0.189928" stop-color="#E2F2F8"/>
<stop offset="1" stop-color="white" stop-opacity="0"/>
</linearGradient>
</defs>
</svg>
