<svg width="300" height="42" viewBox="0 0 300 42" fill="none" xmlns="http://www.w3.org/2000/svg">
<path d="M225.013 27.3707C225.836 26.9474 226.596 26.1795 227.29 25.0689L231.455 27.1308C230.588 28.8561 229.308 30.1561 227.615 31.0328C225.922 31.9096 224.094 32.3489 222.128 32.3489C220.682 32.3489 219.314 32.1071 218.028 31.6254C216.742 31.1437 215.613 30.4423 214.644 29.5212C213.675 28.6001 212.91 27.4896 212.345 26.1875C211.781 24.8875 211.5 23.4021 211.5 21.7373C211.5 20.2761 211.761 18.9015 212.282 17.6156C212.802 16.3297 213.526 15.2111 214.451 14.2618C215.376 13.3125 216.497 12.5668 217.813 12.0246C219.129 11.4844 220.568 11.2144 222.13 11.2144C223.721 11.2144 225.158 11.4925 226.446 12.0468C227.732 12.603 228.833 13.3689 229.744 14.3485C230.656 15.328 231.349 16.5051 231.826 17.8796C232.303 19.2542 232.542 20.7739 232.542 22.4407V23.2308H217.617C217.733 24.6336 218.247 25.7824 219.157 26.6733C220.068 27.5641 221.159 28.0116 222.433 28.0116C223.33 28.0055 224.189 27.7939 225.013 27.3707ZM219.135 16.7348C218.353 17.4362 217.863 18.4016 217.659 19.6291H226.379C226.147 18.2263 225.627 17.2165 224.817 16.6038C224.008 15.9891 223.097 15.6827 222.084 15.6827C220.899 15.6827 219.916 16.0334 219.135 16.7348Z" fill="#0052CC"/>
<path d="M234.361 17.3053C234.853 15.9892 235.511 14.8787 236.335 13.9717C237.158 13.0647 238.127 12.3774 239.242 11.9098C240.356 11.4422 241.549 11.2084 242.821 11.2084C244.035 11.2084 245.164 11.4503 246.205 11.932C247.245 12.4137 248.143 13.0647 248.894 13.883L248.982 13.8387V0.419434H255.056V31.8613H249.373L249.2 29.6684L249.112 29.6241C248.446 30.3557 247.578 30.9906 246.51 31.5308C245.439 32.0709 244.255 32.341 242.953 32.341C241.708 32.341 240.524 32.1153 239.395 31.6618C238.267 31.2083 237.278 30.5291 236.424 29.6221C235.571 28.7151 234.891 27.6126 234.385 26.3106C233.878 25.0106 233.625 23.497 233.625 21.7717C233.623 20.1129 233.868 18.6215 234.361 17.3053ZM241.062 25.9881C241.916 27.0402 243.036 27.5663 244.424 27.5663C245.812 27.5663 246.918 27.0322 247.742 25.966C248.565 24.8998 248.978 23.4889 248.978 21.7334C248.978 19.9799 248.551 18.5832 247.698 17.5452C246.845 16.5072 245.754 15.9892 244.422 15.9892C242.947 15.9892 241.804 16.5233 240.995 17.5895C240.185 18.6557 239.78 20.0384 239.78 21.7334C239.784 23.5171 240.211 24.936 241.062 25.9881Z" fill="#0052CC"/>
<path d="M269.175 36.4042C269.798 36.0978 270.296 35.6726 270.673 35.1324C271.05 34.5923 271.317 33.9634 271.476 33.2459C271.636 32.5304 271.716 31.7625 271.716 30.9442V29.9365C271.688 29.9365 271.666 29.9284 271.65 29.9143C271.636 29.9002 271.614 29.8921 271.584 29.8921C270.948 30.5351 270.125 31.1054 269.112 31.6033C268.099 32.1011 266.972 32.349 265.728 32.349C264.456 32.349 263.255 32.1233 262.127 31.6698C260.998 31.2163 260.015 30.5512 259.178 29.6744C258.338 28.7977 257.667 27.7013 257.16 26.3851C256.654 25.069 256.4 23.5493 256.4 21.824C256.4 20.1572 256.64 18.6738 257.116 17.3738C257.593 16.0738 258.245 14.9612 259.068 14.0402C259.892 13.1191 260.847 12.4177 261.932 11.936C263.016 11.4543 264.165 11.2124 265.381 11.2124C266.799 11.2124 268.035 11.4744 269.09 12.0025C270.144 12.5285 271.078 13.2299 271.887 14.1067H271.975L272.105 11.6941H277.787V29.1464C277.787 30.3738 277.759 31.3392 277.699 32.0406C277.642 32.742 277.512 33.4596 277.309 34.1892C276.7 36.4405 275.53 38.2161 273.795 39.5182C272.061 40.8202 269.877 41.4692 267.245 41.4692C266.031 41.4692 264.932 41.3523 263.949 41.1185C262.966 40.8847 262.077 40.5844 261.282 40.2196C260.486 39.8548 259.784 39.4375 259.178 38.9699C258.57 38.5024 258.049 38.0489 257.617 37.6115L260.566 33.9715C261.433 34.9067 262.446 35.6242 263.602 36.12C264.759 36.6179 265.844 36.8658 266.857 36.8658C267.78 36.8637 268.553 36.7106 269.175 36.4042ZM263.796 26.0103C264.649 27.0482 265.77 27.5662 267.158 27.5662C268.545 27.5662 269.652 27.0321 270.477 25.9659C271.303 24.8997 271.714 23.4888 271.714 21.7333C271.714 19.9799 271.287 18.5831 270.434 17.5451C269.58 16.5071 268.49 15.9892 267.158 15.9892C265.682 15.9892 264.54 16.5293 263.73 17.6116C262.921 18.694 262.516 20.0827 262.516 21.7777C262.516 23.5614 262.942 24.9723 263.796 26.0103Z" fill="#0052CC"/>
<path d="M292.472 27.3707C293.295 26.9474 294.055 26.1795 294.749 25.0689L298.914 27.1308C298.047 28.8561 296.767 30.1561 295.074 31.0328C293.381 31.9096 291.553 32.3489 289.587 32.3489C288.141 32.3489 286.773 32.1071 285.487 31.6254C284.201 31.1437 283.072 30.4423 282.103 29.5212C281.134 28.6001 280.369 27.4896 279.804 26.1875C279.24 24.8875 278.959 23.4021 278.959 21.7373C278.959 20.2761 279.218 18.9015 279.741 17.6156C280.261 16.3297 280.985 15.2111 281.91 14.2618C282.835 13.3125 283.956 12.5668 285.272 12.0246C286.588 11.4844 288.027 11.2144 289.589 11.2144C291.18 11.2144 292.617 11.4925 293.905 12.0468C295.191 12.603 296.292 13.3689 297.203 14.3485C298.115 15.328 298.808 16.5051 299.285 17.8796C299.762 19.2542 300.001 20.7739 300.001 22.4407V23.2308H285.076C285.192 24.6336 285.706 25.7824 286.616 26.6733C287.527 27.5641 288.62 28.0116 289.892 28.0116C290.787 28.0055 291.646 27.7939 292.472 27.3707ZM286.594 16.7348C285.812 17.4362 285.322 18.4016 285.118 19.6291H293.838C293.606 18.2263 293.086 17.2165 292.276 16.6038C291.467 15.9891 290.556 15.6827 289.543 15.6827C288.356 15.6827 287.373 16.0334 286.594 16.7348Z" fill="#0052CC"/>
<path d="M103.371 28.2739C103.006 29.0539 102.462 29.7452 101.734 30.3478C101.006 30.9505 100.103 31.4362 99.0261 31.805C97.9494 32.1739 96.7112 32.3573 95.3154 32.3573C94.2965 32.3573 93.3435 32.2545 92.4562 32.0489C91.5689 31.8433 90.7534 31.5773 90.0116 31.2548C89.2699 30.9303 88.6139 30.5715 88.0476 30.1725C87.4793 29.7754 87.0068 29.3703 86.6279 28.9591L89.553 25.2949C90.3685 26.1475 91.2778 26.8187 92.2827 27.3024C93.2876 27.7881 94.2985 28.03 95.3174 28.03C96.1609 28.03 96.8089 27.8526 97.2595 27.4999C97.7101 27.1472 97.9355 26.734 97.9355 26.2644C97.9355 25.6456 97.5865 25.176 96.8867 24.8515C96.5656 24.6742 96.2107 24.527 95.8159 24.4101C95.4231 24.2932 95.0223 24.1602 94.6156 24.0131L93.2617 23.616C92.6496 23.4387 92.1331 23.2633 91.7124 23.086C91.2897 22.9086 90.8909 22.7171 90.5121 22.5115C89.4055 21.923 88.6059 21.2539 88.1114 20.5041C87.6169 19.7543 87.3697 18.7607 87.3697 17.5252C87.3697 16.7311 87.5511 15.9511 87.916 15.1852C88.2809 14.4193 88.8113 13.728 89.5091 13.1112C90.207 12.4945 91.0664 12.0007 92.0853 11.6318C93.1042 11.263 94.2826 11.0796 95.6225 11.0796C96.6713 11.0796 97.6025 11.1824 98.418 11.388C99.2335 11.5935 99.9533 11.8435 100.579 12.1377C101.205 12.432 101.752 12.7625 102.216 13.1314C102.683 13.5002 103.09 13.8308 103.439 14.125L100.514 17.6118C99.9314 17.0233 99.1896 16.5094 98.2864 16.068C97.3831 15.6266 96.4679 15.4069 95.5348 15.4069C94.8369 15.4069 94.2547 15.5621 93.7881 15.8704C93.3215 16.1788 93.0902 16.5839 93.0902 17.0838C93.0902 17.4667 93.2438 17.7832 93.5488 18.0331C93.8539 18.283 94.2108 18.4825 94.6196 18.6297C94.9984 18.7768 95.3832 18.9159 95.776 19.0489C96.1688 19.1819 96.6135 19.321 97.108 19.4681L98.5057 19.9095C99.2634 20.1453 100.019 20.4618 100.777 20.8588C101.534 21.2559 102.188 21.7638 102.741 22.3805C103.526 23.2633 103.919 24.4404 103.919 25.9117C103.917 26.7058 103.736 27.4939 103.371 28.2739Z" fill="#0052CC"/>
<path d="M104.791 17.4384C105.316 16.1444 106.058 15.0258 107.019 14.0846C107.98 13.1433 109.136 12.4077 110.49 11.8776C111.844 11.3475 113.335 11.0835 114.966 11.0835C116.597 11.0835 118.081 11.3475 119.421 11.8776C120.761 12.4077 121.909 13.1433 122.87 14.0846C123.831 15.0258 124.573 16.1444 125.098 17.4384C125.622 18.7323 125.883 20.1452 125.883 21.675C125.883 23.2048 125.622 24.6257 125.098 25.9338C124.573 27.2438 123.831 28.3685 122.87 29.3097C121.909 30.251 120.761 30.9947 119.421 31.5389C118.081 32.0831 116.597 32.3551 114.966 32.3551C113.335 32.3551 111.844 32.0831 110.49 31.5389C109.136 30.9947 107.98 30.251 107.019 29.3097C106.058 28.3685 105.316 27.2418 104.791 25.9338C104.267 24.6237 104.006 23.2048 104.006 21.675C104.006 20.1452 104.267 18.7323 104.791 17.4384ZM118.458 25.8894C119.301 24.7849 119.724 23.3801 119.724 21.675C119.724 19.9679 119.301 18.5772 118.458 17.5049C117.614 16.4306 116.45 15.8945 114.964 15.8945C113.479 15.8945 112.309 16.4306 111.449 17.5049C110.59 18.5792 110.161 19.9699 110.161 21.675C110.161 23.3821 110.59 24.7869 111.449 25.8894C112.309 26.9919 113.479 27.5441 114.964 27.5441C116.45 27.5462 117.614 26.9939 118.458 25.8894Z" fill="#0052CC"/>
<path d="M129.418 30.0838C127.759 28.5682 126.93 26.3249 126.93 23.352V11.5674H133.087V23.6161C133.087 24.9403 133.386 25.9258 133.982 26.5728C134.578 27.2198 135.402 27.5443 136.449 27.5443C137.438 27.5443 138.261 27.242 138.915 26.6393C139.569 26.0367 139.898 25.0289 139.898 23.6161V11.5674H146.055V23.3077C146.055 24.8959 145.786 26.2644 145.248 27.4133C144.709 28.5601 144.004 29.5034 143.13 30.239C142.257 30.9747 141.26 31.5108 140.139 31.8494C139.019 32.188 137.876 32.3573 136.712 32.3573C133.508 32.3573 131.077 31.5995 129.418 30.0838Z" fill="#0052CC"/>
<path d="M158.651 16.8197C158.112 16.7028 157.64 16.6423 157.231 16.6423C155.891 16.6423 154.924 17.1139 154.328 18.0552C153.732 18.9964 153.433 20.2178 153.433 21.7194V31.8715H147.275V11.5673H153.04L153.171 14.0826H153.259C154.075 13.0527 154.94 12.2949 155.857 11.8091C156.774 11.3234 157.698 11.0815 158.631 11.0815C159.155 11.0815 159.642 11.14 160.094 11.2589C160.545 11.3758 160.976 11.5391 161.382 11.7446L160.248 17.3054C159.721 17.0998 159.189 16.9386 158.651 16.8197Z" fill="#0052CC"/>
<path d="M166.926 24.2347C167.187 24.9704 167.53 25.5811 167.953 26.0668C168.376 26.5526 168.87 26.9194 169.438 27.1693C170.007 27.4192 170.595 27.5442 171.207 27.5442C172.196 27.5442 173.003 27.3305 173.63 26.9033C174.256 26.476 174.904 25.7343 175.574 24.6741L179.853 27.1895C178.864 28.8664 177.603 30.1462 176.076 31.029C174.549 31.9118 172.852 32.3532 170.99 32.3532C169.592 32.3532 168.254 32.1033 166.972 31.6034C165.692 31.1036 164.563 30.3901 163.588 29.4629C162.613 28.5358 161.833 27.4172 161.251 26.1092C160.669 24.7991 160.378 23.3217 160.378 21.673C160.378 20.0243 160.669 18.547 161.251 17.2369C161.833 15.9268 162.613 14.8163 163.588 13.9053C164.563 12.9922 165.692 12.2949 166.972 11.8091C168.252 11.3234 169.592 11.0815 170.99 11.0815C172.852 11.0815 174.549 11.5229 176.076 12.4057C177.603 13.2885 178.864 14.5684 179.853 16.2453L175.574 18.7606C175.195 18.1136 174.664 17.4727 173.98 16.8398C173.297 16.207 172.371 15.8905 171.207 15.8905C169.809 15.8905 168.681 16.4267 167.823 17.5009C166.964 18.5752 166.535 19.9659 166.535 21.671C166.533 22.6465 166.663 23.4991 166.926 24.2347Z" fill="#0052CC"/>
<path d="M193.017 27.3466C193.846 26.9193 194.61 26.1474 195.31 25.0288L199.501 27.1027C198.627 28.8381 197.339 30.1482 195.637 31.031C193.934 31.9138 192.093 32.3551 190.113 32.3551C188.658 32.3551 187.282 32.1133 185.988 31.6276C184.692 31.1418 183.557 30.4364 182.582 29.5093C181.607 28.5821 180.836 27.4635 180.267 26.1555C179.699 24.8454 179.416 23.3519 179.416 21.675C179.416 20.2037 179.677 18.821 180.202 17.5271C180.726 16.2331 181.454 15.1065 182.385 14.1511C183.316 13.1958 184.445 12.444 185.769 11.8998C187.093 11.3556 188.542 11.0835 190.113 11.0835C191.715 11.0835 193.162 11.3637 194.458 11.922C195.754 12.4802 196.859 13.2542 197.776 14.2398C198.693 15.2254 199.391 16.4105 199.872 17.7931C200.352 19.1758 200.591 20.7055 200.591 22.3824V23.1765H185.571C185.687 24.5894 186.205 25.7443 187.121 26.6412C188.036 27.5381 189.136 27.9876 190.416 27.9876C191.32 27.9876 192.187 27.7739 193.017 27.3466ZM187.099 16.6443C186.313 17.3497 185.818 18.3212 185.613 19.5567H194.39C194.157 18.1438 193.633 17.13 192.819 16.5113C192.004 15.8925 191.086 15.5841 190.068 15.5841C188.875 15.5841 187.886 15.9368 187.099 16.6443Z" fill="#0052CC"/>
<path d="M86.8461 22.3764C86.8461 20.6995 86.6069 19.1697 86.1263 17.7891C85.6458 16.4064 84.9479 15.2233 84.0307 14.2378C83.1135 13.2522 82.0089 12.4802 80.7148 11.922C79.4208 11.3637 77.9732 11.0835 76.3721 11.0835C74.8009 11.0835 73.3533 11.3556 72.0293 11.8998C70.8868 12.3694 69.8918 12.9922 69.0424 13.7682L67.7643 20.0323L65.9239 19.3088C65.7624 20.0686 65.6807 20.8547 65.6807 21.6689C65.6807 23.3458 65.9638 24.8373 66.5321 26.1474C67.1003 27.4555 67.87 28.5741 68.845 29.5012C69.82 30.4283 70.9546 31.1337 72.2486 31.6195C73.5427 32.1052 74.9185 32.3471 76.3741 32.3471C78.352 32.3471 80.1924 31.9057 81.8952 31.0229C83.598 30.1401 84.8841 28.832 85.7574 27.0967L81.5682 25.0227C80.8703 26.1413 80.1067 26.9133 79.2772 27.3386C78.4477 27.7658 77.5824 27.9775 76.6811 27.9775C75.401 27.9775 74.3024 27.53 73.3852 26.6311C72.468 25.7342 71.9515 24.5793 71.8359 23.1685H86.8501V22.3764H86.8461ZM71.8758 19.5527C72.0792 18.3171 72.5736 17.3457 73.3593 16.6402C74.1449 15.9348 75.1338 15.5821 76.3262 15.5821C77.3451 15.5821 78.2603 15.8905 79.0758 16.5092C79.8913 17.126 80.4137 18.1418 80.647 19.5527H71.8758Z" fill="#0052CC"/>
<path d="M65.6262 16.8186C65.0878 16.7017 64.6153 16.6412 64.2085 16.6412C62.8706 16.6412 61.9015 17.1108 61.3053 18.0521C60.7092 18.9933 60.4101 20.2147 60.4101 21.7143V31.8603H54.2568V11.5682H60.0173L60.1489 14.0835H60.2366C61.0521 13.0536 61.9175 12.2958 62.8347 11.8121C63.7519 11.3263 64.6751 11.0845 65.6062 11.0845C66.1306 11.0845 66.6171 11.1429 67.0678 11.2618C67.5184 11.3787 67.9471 11.542 68.3558 11.7476L67.2213 17.3063C66.6949 17.0967 66.1645 16.9355 65.6262 16.8186Z" fill="#0052CC"/>
<path d="M42.975 0H0V41.5275H42.975V0Z" fill="#0052CC"/>
<path d="M34.2764 17.1059C34.2764 15.7898 34.087 14.5905 33.7102 13.5042C33.3333 12.4198 32.785 11.4907 32.0652 10.7167C31.3454 9.94279 30.478 9.33814 29.4611 8.89876C28.4442 8.45938 27.3097 8.2417 26.0535 8.2417C24.8213 8.2417 23.6847 8.45534 22.6459 8.88263C21.7486 9.25147 20.969 9.74124 20.301 10.3499L19.2981 15.2677L17.8545 14.7014C17.7289 15.298 17.6631 15.9147 17.6631 16.5536C17.6631 17.8698 17.8864 19.0408 18.3311 20.0687C18.7757 21.0966 19.3818 21.9733 20.1475 22.7009C20.9132 23.4285 21.8025 23.9828 22.8194 24.3637C23.8363 24.7447 24.915 24.9341 26.0575 24.9341C27.6108 24.9341 29.0544 24.5874 30.3903 23.8961C31.7262 23.2028 32.7371 22.1769 33.421 20.8144L30.1331 19.1879C29.5847 20.0647 28.9866 20.6713 28.3345 21.0059C27.6845 21.3405 27.0046 21.5078 26.2968 21.5078C25.2918 21.5078 24.4305 21.155 23.7106 20.4516C22.9908 19.7482 22.5861 18.8412 22.4944 17.7327H34.2784V17.1059H34.2764ZM22.5263 14.8908C22.6858 13.9214 23.0746 13.1595 23.6907 12.6053C24.3068 12.051 25.0845 11.7749 26.0196 11.7749C26.8192 11.7749 27.539 12.0167 28.177 12.5025C28.8171 12.9882 29.2278 13.7843 29.4093 14.8908H22.5263Z" fill="white"/>
<path d="M17.621 12.7443C17.1983 12.6516 16.8274 12.6053 16.5084 12.6053C15.4576 12.6053 14.6979 12.9741 14.2313 13.7138C13.7628 14.4535 13.5295 15.4109 13.5295 16.5879V24.5512H8.7002V8.62263H13.2224L13.3261 10.5958H13.3939C14.0339 9.78759 14.7119 9.19302 15.4317 8.81209C16.1515 8.43116 16.8753 8.2417 17.607 8.2417C18.0178 8.2417 18.4006 8.28806 18.7555 8.38077C19.1085 8.47348 19.4454 8.60046 19.7665 8.7617L18.8752 13.1253C18.4604 12.964 18.0437 12.8371 17.621 12.7443Z" fill="white"/>
<path d="M34.4473 33.2866V28.8867L8.53228 28.8867V33.2866L34.4473 33.2866Z" fill="white"/>
</svg>
