<svg width="129" height="129" viewBox="0 0 129 129" fill="none" xmlns="http://www.w3.org/2000/svg">
<rect width="128" height="128" transform="translate(0.5 0.527344)" fill="white" fill-opacity="0.01"/>
<path d="M64.4994 107.194C75.8153 107.194 86.6677 102.699 94.6692 94.6976C102.671 86.696 107.166 75.8436 107.166 64.5277C107.166 53.2118 102.671 42.3593 94.6692 34.3578C86.6677 26.3562 75.8153 21.861 64.4994 21.861C53.1834 21.861 42.331 26.3562 34.3295 34.3578C26.3279 42.3593 21.8327 53.2118 21.8327 64.5277C21.8327 75.8436 26.3279 86.696 34.3295 94.6976C42.331 102.699 53.1834 107.194 64.4994 107.194ZM64.4994 117.861C35.0434 117.861 11.166 93.9837 11.166 64.5277C11.166 35.0717 35.0434 11.1943 64.4994 11.1943C93.9554 11.1943 117.833 35.0717 117.833 64.5277C117.833 93.9837 93.9554 117.861 64.4994 117.861Z" fill="#36B27E"/>
<path fill-rule="evenodd" clip-rule="evenodd" d="M52.27 60.757C51.778 60.2476 51.1895 59.8413 50.5388 59.5618C49.8882 59.2823 49.1883 59.1352 48.4802 59.129C47.772 59.1228 47.0697 59.2578 46.4143 59.526C45.7588 59.7941 45.1633 60.1901 44.6626 60.6909C44.1618 61.1917 43.7658 61.7871 43.4976 62.4426C43.2295 63.098 43.0945 63.8003 43.1007 64.5085C43.1068 65.2166 43.254 65.9165 43.5335 66.5672C43.813 67.2178 44.2193 67.8063 44.7287 68.2983L55.3954 78.965C56.3955 79.9648 57.7518 80.5265 59.166 80.5265C60.5802 80.5265 61.9365 79.9648 62.9367 78.965L84.27 57.6317C84.7794 57.1397 85.1857 56.5512 85.4652 55.9005C85.7447 55.2498 85.8919 54.55 85.898 53.8418C85.9042 53.1336 85.7692 52.4314 85.5011 51.7759C85.2329 51.1205 84.8369 50.525 84.3361 50.0242C83.8354 49.5235 83.2399 49.1275 82.5844 48.8593C81.929 48.5911 81.2267 48.4562 80.5185 48.4623C79.8104 48.4685 79.1105 48.6156 78.4599 48.8951C77.8092 49.1746 77.2207 49.5809 76.7287 50.0903L59.166 67.653L52.27 60.757Z" fill="#36B27E"/>
</svg>
