<svg width="24" height="24" viewBox="0 0 24 24" fill="none" xmlns="http://www.w3.org/2000/svg">
<path fill-rule="evenodd" clip-rule="evenodd" d="M15.1851 7.4L12.0011 10.585L8.81513 7.399C8.71987 7.30584 8.59176 7.25393 8.45851 7.25449C8.32527 7.25505 8.19761 7.30804 8.10313 7.402L7.40313 8.103C7.35521 8.14897 7.31701 8.20409 7.29079 8.2651C7.26457 8.3261 7.25087 8.39175 7.2505 8.45815C7.25012 8.52455 7.26309 8.59035 7.28862 8.65165C7.31415 8.71295 7.35173 8.7685 7.39913 8.815L10.5841 11.999L7.40013 15.185C7.3071 15.2804 7.25537 15.4086 7.25612 15.5418C7.25686 15.6751 7.31004 15.8027 7.40413 15.897L8.10413 16.597C8.31013 16.804 8.62013 16.797 8.81613 16.601L12.0021 13.416L15.1861 16.601C15.2815 16.694 15.4097 16.7458 15.543 16.745C15.6762 16.7443 15.8038 16.6911 15.8981 16.597L16.5991 15.897C16.647 15.851 16.6851 15.7958 16.7112 15.7347C16.7374 15.6737 16.751 15.608 16.7513 15.5416C16.7515 15.4752 16.7385 15.4095 16.7129 15.3482C16.6873 15.2869 16.6496 15.2314 16.6021 15.185L13.4161 11.999L16.6021 8.815C16.6953 8.71974 16.7472 8.59163 16.7466 8.45838C16.7461 8.32514 16.6931 8.19748 16.5991 8.103L15.8991 7.403C15.8522 7.35497 15.7962 7.31672 15.7344 7.29046C15.6727 7.2642 15.6063 7.25045 15.5391 7.25C15.4733 7.25054 15.4083 7.26407 15.3477 7.28981C15.2871 7.31555 15.2322 7.35299 15.1861 7.4H15.1851Z" fill="#253858"/>
</svg>
