<svg width="16" height="16" viewBox="0 0 16 16" fill="none" xmlns="http://www.w3.org/2000/svg">
<g clip-path="url(#clip0_8039_10546)">
<path d="M8.00019 11.0585C7.39522 11.0585 6.80384 10.8791 6.30082 10.543C5.79781 10.2069 5.40576 9.72917 5.17424 9.17025C4.94273 8.61133 4.88216 7.99631 5.00018 7.40296C5.1182 6.80962 5.40953 6.26459 5.8373 5.83682C6.26508 5.40904 6.81011 5.11772 7.40345 4.99969C7.9968 4.88167 8.61182 4.94224 9.17073 5.17376C9.72965 5.40527 10.2074 5.79732 10.5435 6.30033C10.8796 6.80335 11.059 7.39473 11.059 7.9997C11.0581 8.81066 10.7355 9.58814 10.1621 10.1616C9.58863 10.735 8.81115 11.0576 8.00019 11.0585ZM8.00019 5.34632C7.4754 5.34632 6.9624 5.50194 6.52605 5.7935C6.08971 6.08506 5.74962 6.49946 5.54879 6.9843C5.34796 7.46914 5.29542 8.00265 5.3978 8.51735C5.50018 9.03205 5.75289 9.50484 6.12397 9.87592C6.49505 10.247 6.96784 10.4997 7.48254 10.6021C7.99725 10.7045 8.53075 10.6519 9.01559 10.4511C9.50043 10.2503 9.91483 9.91018 10.2064 9.47384C10.4979 9.03749 10.6536 8.52449 10.6536 7.9997C10.653 7.29615 10.3733 6.62156 9.87582 6.12407C9.37833 5.62659 8.70374 5.34686 8.00019 5.34632Z" fill="white"/>
<path d="M10.3626 9.80613C10.3329 9.80615 10.3035 9.79964 10.2766 9.78706C10.2497 9.77449 10.2259 9.75616 10.2069 9.73336C9.93672 9.41088 9.59915 9.15154 9.21795 8.9736C8.83674 8.79566 8.42116 8.70344 8.00046 8.70344C7.57977 8.70344 7.16419 8.79566 6.78298 8.9736C6.40178 9.15154 6.06421 9.41088 5.79404 9.73336C5.7771 9.7542 5.75619 9.77146 5.73252 9.78414C5.70885 9.79682 5.68289 9.80467 5.65616 9.80724C5.62943 9.80981 5.60246 9.80704 5.5768 9.79909C5.55115 9.79115 5.52734 9.77818 5.50674 9.76095C5.48614 9.74373 5.46917 9.72258 5.45681 9.69873C5.44446 9.67489 5.43696 9.64883 5.43476 9.62207C5.43256 9.59531 5.4357 9.56837 5.444 9.54283C5.4523 9.51729 5.46559 9.49366 5.4831 9.4733C5.79131 9.10533 6.17645 8.80941 6.61138 8.60637C7.04631 8.40332 7.52047 8.2981 8.00046 8.2981C8.48046 8.2981 8.95462 8.40332 9.38955 8.60637C9.82449 8.80941 10.2096 9.10533 10.5178 9.4733C10.5426 9.50286 10.5584 9.53886 10.5634 9.57709C10.5684 9.61532 10.5624 9.65419 10.5461 9.68913C10.5298 9.72407 10.5039 9.75364 10.4714 9.77436C10.4389 9.79508 10.4011 9.80611 10.3626 9.80613Z" fill="white"/>
<path d="M8.00016 8.70223C7.76671 8.70223 7.53851 8.633 7.3444 8.5033C7.1503 8.37361 6.99901 8.18926 6.90967 7.97359C6.82034 7.75791 6.79696 7.52058 6.8425 7.29162C6.88805 7.06265 7.00047 6.85234 7.16554 6.68727C7.33061 6.52219 7.54093 6.40978 7.76989 6.36423C7.99885 6.31869 8.23618 6.34206 8.45186 6.4314C8.66754 6.52074 8.85188 6.67202 8.98158 6.86613C9.11128 7.06024 9.1805 7.28844 9.1805 7.52189C9.18018 7.83484 9.05572 8.13487 8.83443 8.35616C8.61315 8.57744 8.31311 8.7019 8.00016 8.70223ZM8.00016 6.74696C7.8469 6.74696 7.69707 6.79241 7.56963 6.87756C7.4422 6.96271 7.34287 7.08374 7.28422 7.22534C7.22557 7.36694 7.21022 7.52275 7.24012 7.67307C7.27002 7.82339 7.34383 7.96147 7.4522 8.06985C7.56058 8.17823 7.69866 8.25203 7.84898 8.28193C7.9993 8.31183 8.15512 8.29649 8.29672 8.23783C8.43832 8.17918 8.55935 8.07986 8.6445 7.95242C8.72965 7.82498 8.7751 7.67516 8.7751 7.52189C8.77488 7.31643 8.69317 7.11945 8.54789 6.97417C8.40261 6.82889 8.20562 6.74717 8.00016 6.74696Z" fill="white"/>
<path d="M13.3453 10.5273C13.2915 10.5273 13.24 10.5059 13.2019 10.4679C13.1639 10.4299 13.1426 10.3783 13.1426 10.3245V5.67536C13.1426 5.6216 13.1639 5.57004 13.2019 5.53203C13.24 5.49401 13.2915 5.47266 13.3453 5.47266C13.399 5.47266 13.4506 5.49401 13.4886 5.53203C13.5266 5.57004 13.548 5.6216 13.548 5.67536V10.3245C13.548 10.3783 13.5266 10.4299 13.4886 10.4679C13.4506 10.5059 13.399 10.5273 13.3453 10.5273Z" fill="white"/>
<path d="M3.23639 4.78189C3.19177 4.78189 3.14839 4.76716 3.11299 4.74C3.07759 4.71284 3.05215 4.67475 3.0406 4.63165C3.02905 4.58855 3.03204 4.54285 3.04912 4.50162C3.06619 4.4604 3.09639 4.42596 3.13503 4.40365L7.27767 2.01175C7.32408 1.98678 7.37839 1.98086 7.42909 1.99526C7.47978 2.00965 7.52288 2.04322 7.54925 2.08885C7.57561 2.13449 7.58316 2.1886 7.5703 2.2397C7.55745 2.29081 7.52519 2.33491 7.48037 2.36263L3.33774 4.75452C3.30699 4.7725 3.272 4.78194 3.23639 4.78189Z" fill="white"/>
<path d="M7.37863 14.0164C7.34301 14.0165 7.30801 14.007 7.27728 13.989L3.13545 11.5963C3.11156 11.5834 3.09049 11.5659 3.0735 11.5448C3.0565 11.5236 3.04393 11.4993 3.03651 11.4731C3.0291 11.447 3.02701 11.4197 3.03036 11.3928C3.0337 11.3659 3.04242 11.3399 3.05599 11.3164C3.06957 11.2929 3.08772 11.2724 3.10937 11.256C3.13103 11.2397 3.15574 11.2278 3.18206 11.2212C3.20837 11.2146 3.23575 11.2133 3.26256 11.2175C3.28938 11.2216 3.31508 11.2311 3.33816 11.2454L7.48079 13.6373C7.51943 13.6596 7.54963 13.6941 7.56671 13.7353C7.58378 13.7765 7.58678 13.8222 7.57523 13.8653C7.56368 13.9084 7.53823 13.9465 7.50283 13.9737C7.46743 14.0008 7.42406 14.0155 7.37944 14.0155L7.37863 14.0164Z" fill="white"/>
<path d="M8.61982 14.0184C8.57527 14.0183 8.53198 14.0035 8.49665 13.9764C8.46133 13.9492 8.43593 13.9112 8.42439 13.8682C8.41286 13.8251 8.41582 13.7795 8.43283 13.7383C8.44983 13.6971 8.47993 13.6627 8.51847 13.6403L12.6623 11.2454C12.6854 11.2311 12.7111 11.2216 12.7379 11.2175C12.7647 11.2133 12.7921 11.2146 12.8184 11.2212C12.8447 11.2278 12.8695 11.2397 12.8911 11.256C12.9128 11.2724 12.9309 11.2929 12.9445 11.3164C12.9581 11.3399 12.9668 11.3659 12.9701 11.3928C12.9735 11.4197 12.9714 11.447 12.964 11.4731C12.9566 11.4993 12.944 11.5236 12.927 11.5448C12.91 11.5659 12.8889 11.5834 12.865 11.5963L8.72118 13.9912C8.69036 14.009 8.65541 14.0184 8.61982 14.0184Z" fill="white"/>
<path d="M2.65485 10.5273C2.60109 10.5273 2.54953 10.5059 2.51152 10.4679C2.4735 10.4299 2.45215 10.3783 2.45215 10.3245V5.67536C2.45215 5.6216 2.4735 5.57004 2.51152 5.53203C2.54953 5.49401 2.60109 5.47266 2.65485 5.47266C2.70861 5.47266 2.76017 5.49401 2.79818 5.53203C2.8362 5.57004 2.85755 5.6216 2.85755 5.67536V10.3245C2.85755 10.3783 2.8362 10.4299 2.79818 10.4679C2.76017 10.5059 2.70861 10.5273 2.65485 10.5273Z" fill="white"/>
<path d="M9.36201 2.81681C9.32642 2.81689 9.29145 2.80751 9.26066 2.78965L8.5206 2.36195C8.47442 2.33487 8.44083 2.29064 8.42714 2.23889C8.41346 2.18714 8.4208 2.13208 8.44757 2.08572C8.47433 2.03937 8.51835 2.00548 8.57 1.99146C8.62166 1.97743 8.67677 1.98441 8.7233 2.01087L9.46336 2.43857C9.502 2.46088 9.5322 2.49532 9.54928 2.53654C9.56635 2.57777 9.56935 2.62347 9.5578 2.66657C9.54625 2.70967 9.5208 2.74776 9.4854 2.77492C9.45 2.80208 9.40663 2.81681 9.36201 2.81681Z" fill="white"/>
<path d="M12.7641 4.78076C12.7285 4.78076 12.6936 4.77139 12.6627 4.7536L11.6168 4.14954C11.5706 4.12247 11.537 4.07824 11.5233 4.02649C11.5097 3.97474 11.517 3.91968 11.5438 3.87332C11.5705 3.82697 11.6145 3.79308 11.6662 3.77905C11.7179 3.76503 11.773 3.77201 11.8195 3.79846L12.8654 4.40252C12.9041 4.42483 12.9343 4.45927 12.9514 4.50049C12.9684 4.54172 12.9714 4.58742 12.9599 4.63052C12.9483 4.67362 12.9229 4.71171 12.8875 4.73887C12.8521 4.76603 12.8087 4.78076 12.7641 4.78076Z" fill="white"/>
<path d="M10.7461 3.61537C10.7106 3.61549 10.6756 3.60627 10.6448 3.58862L10.2313 3.35145C10.2082 3.33821 10.1879 3.32055 10.1716 3.29948C10.1554 3.27841 10.1434 3.25434 10.1365 3.22864C10.1224 3.17675 10.1295 3.1214 10.1563 3.07476C10.183 3.02813 10.2272 2.99403 10.2791 2.97996C10.3048 2.973 10.3316 2.97116 10.358 2.97456C10.3844 2.97796 10.4099 2.98652 10.4329 2.99976L10.8465 3.23672C10.8853 3.25895 10.9157 3.2934 10.9329 3.3347C10.9501 3.37601 10.9532 3.42185 10.9416 3.46508C10.93 3.50831 10.9045 3.5465 10.8689 3.57368C10.8334 3.60087 10.7899 3.61553 10.7451 3.61537H10.7461Z" fill="white"/>
<path d="M7.99961 2.74735C7.81739 2.74739 7.63925 2.69339 7.48772 2.59219C7.33619 2.49098 7.21807 2.34711 7.14831 2.17877C7.07855 2.01043 7.06028 1.82518 7.0958 1.64646C7.13133 1.46774 7.21906 1.30356 7.34789 1.17469C7.47673 1.04583 7.64088 0.958067 7.8196 0.922503C7.99832 0.886938 8.18357 0.905171 8.35192 0.974895C8.52028 1.04462 8.66417 1.1627 8.76541 1.31421C8.86666 1.46572 8.92069 1.64385 8.92069 1.82607C8.92048 2.07031 8.82337 2.30448 8.65069 2.47721C8.47801 2.64993 8.24385 2.74708 7.99961 2.74735ZM7.99961 1.31039C7.89756 1.31035 7.7978 1.34058 7.71293 1.39725C7.62806 1.45392 7.56191 1.53449 7.52284 1.62876C7.48377 1.72303 7.47353 1.82678 7.49343 1.92686C7.51333 2.02695 7.56247 2.11889 7.63463 2.19105C7.70679 2.26321 7.79873 2.31235 7.89882 2.33225C7.9989 2.35215 8.10265 2.34191 8.19692 2.30284C8.29119 2.26377 8.37176 2.19762 8.42843 2.11275C8.4851 2.02789 8.51533 1.92812 8.51529 1.82607C8.51513 1.68935 8.46074 1.55828 8.36407 1.46161C8.2674 1.36494 8.13633 1.31055 7.99961 1.31039Z" fill="white"/>
<path d="M8.00007 5.34703C7.94631 5.34703 7.89475 5.32567 7.85673 5.28766C7.81872 5.24965 7.79736 5.19809 7.79736 5.14433V2.54548C7.79736 2.49172 7.81872 2.44016 7.85673 2.40214C7.89475 2.36413 7.94631 2.34277 8.00007 2.34277C8.05383 2.34277 8.10539 2.36413 8.1434 2.40214C8.18142 2.44016 8.20277 2.49172 8.20277 2.54548V5.14433C8.20277 5.19809 8.18142 5.24965 8.1434 5.28766C8.10539 5.32567 8.05383 5.34703 8.00007 5.34703Z" fill="white"/>
<path d="M7.99961 15.0943C7.81738 15.0943 7.63923 15.0403 7.4877 14.9391C7.33616 14.8379 7.21805 14.694 7.14829 14.5256C7.07854 14.3573 7.06028 14.172 7.09582 13.9933C7.13136 13.8146 7.21911 13.6504 7.34796 13.5215C7.47682 13.3927 7.64099 13.3049 7.81973 13.2694C7.99846 13.2339 8.18371 13.2521 8.35206 13.3219C8.52041 13.3916 8.6643 13.5097 8.76551 13.6613C8.86673 13.8128 8.92073 13.991 8.92069 14.1732C8.92042 14.4174 8.8233 14.6515 8.65062 14.8242C8.47794 14.9969 8.24382 15.094 7.99961 15.0943ZM7.99961 13.6573C7.89757 13.6573 7.79781 13.6875 7.71295 13.7442C7.62809 13.8008 7.56193 13.8814 7.52286 13.9756C7.48378 14.0699 7.47354 14.1736 7.49342 14.2737C7.5133 14.3738 7.56242 14.4657 7.63456 14.5379C7.70669 14.6101 7.79862 14.6592 7.89869 14.6791C7.99877 14.6991 8.1025 14.6889 8.19678 14.6498C8.29106 14.6108 8.37164 14.5447 8.42833 14.4598C8.48503 14.375 8.51529 14.2752 8.51529 14.1732C8.51518 14.0364 8.46082 13.9053 8.36414 13.8086C8.26746 13.7119 8.13636 13.6575 7.99961 13.6573Z" fill="white"/>
<path d="M8.00007 13.6576C7.94631 13.6576 7.89475 13.6362 7.85673 13.5982C7.81872 13.5602 7.79736 13.5086 7.79736 13.4549V10.856C7.79736 10.8023 7.81872 10.7507 7.85673 10.7127C7.89475 10.6747 7.94631 10.6533 8.00007 10.6533C8.05383 10.6533 8.10539 10.6747 8.1434 10.7127C8.18142 10.7507 8.20277 10.8023 8.20277 10.856V13.4549C8.20277 13.5086 8.18142 13.5602 8.1434 13.5982C8.10539 13.6362 8.05383 13.6576 8.00007 13.6576Z" fill="white"/>
<path d="M2.62553 5.88049C2.46464 5.88024 2.30663 5.83785 2.16722 5.75754C2.02782 5.67722 1.91189 5.56179 1.83098 5.42273C1.75007 5.28367 1.707 5.12583 1.70607 4.96495C1.70514 4.80407 1.74637 4.64575 1.82566 4.50576C1.9055 4.36469 2.02115 4.24719 2.16093 4.16512C2.30071 4.08305 2.45967 4.03932 2.62177 4.03835C2.78386 4.03738 2.94333 4.0792 3.08409 4.15959C3.22484 4.23998 3.34189 4.35609 3.42341 4.4962C3.50493 4.6363 3.54803 4.79544 3.54836 4.95753C3.54869 5.11962 3.50624 5.27893 3.42529 5.41937C3.34435 5.55981 3.22778 5.6764 3.08735 5.75736C2.94693 5.83833 2.78762 5.8808 2.62553 5.88049ZM2.17836 4.70481C2.12815 4.79358 2.10539 4.89523 2.11294 4.99693C2.1205 5.09863 2.15804 5.19581 2.22082 5.27617C2.2836 5.35654 2.36879 5.41649 2.46564 5.44844C2.56249 5.48038 2.66663 5.4829 2.76491 5.45567C2.86318 5.42844 2.95118 5.37268 3.01777 5.29544C3.08436 5.2182 3.12655 5.12295 3.13901 5.02174C3.15147 4.92052 3.13364 4.81788 3.08778 4.7268C3.04191 4.63572 2.97007 4.56028 2.88134 4.51002C2.76224 4.44281 2.62136 4.42558 2.48958 4.4621C2.3578 4.49861 2.24588 4.5859 2.17836 4.70481Z" fill="white"/>
<path d="M5.51386 6.79601C5.4789 6.79597 5.44454 6.78689 5.41413 6.76966L3.15237 5.48939C3.12901 5.47637 3.10846 5.45886 3.0919 5.43786C3.07533 5.41687 3.06309 5.3928 3.05587 5.36706C3.04865 5.34131 3.04659 5.31439 3.04982 5.28784C3.05305 5.2613 3.0615 5.23565 3.07469 5.21239C3.08787 5.18912 3.10553 5.16869 3.12664 5.15228C3.14775 5.13587 3.1719 5.1238 3.1977 5.11676C3.2235 5.10973 3.25044 5.10786 3.27696 5.11128C3.30348 5.1147 3.32906 5.12333 3.35223 5.13668L5.61379 6.41675C5.65283 6.43877 5.68348 6.47312 5.70092 6.51441C5.71837 6.5557 5.72164 6.60161 5.71022 6.64495C5.6988 6.6883 5.67333 6.72664 5.6378 6.75397C5.60227 6.7813 5.55868 6.79608 5.51386 6.79601Z" fill="white"/>
<path d="M13.372 11.962C13.1696 11.9616 12.973 11.8944 12.8126 11.771C12.6522 11.6476 12.5369 11.4748 12.4845 11.2794C12.4321 11.0839 12.4456 10.8766 12.5228 10.6895C12.6 10.5024 12.7367 10.346 12.9118 10.2444C13.0868 10.1428 13.2904 10.1016 13.4912 10.1273C13.6919 10.153 13.8786 10.2441 14.0224 10.3866C14.1662 10.529 14.2591 10.7148 14.2867 10.9153C14.3143 11.1158 14.2751 11.3198 14.1751 11.4958C14.0945 11.6377 13.9777 11.7556 13.8366 11.8375C13.6955 11.9194 13.5352 11.9624 13.372 11.962ZM13.3745 10.5255C13.2492 10.5254 13.1282 10.5709 13.034 10.6536C12.9398 10.7362 12.879 10.8503 12.8629 10.9745C12.8467 11.0988 12.8764 11.2246 12.9463 11.3286C13.0162 11.4326 13.1216 11.5075 13.2428 11.5394C13.3639 11.5713 13.4925 11.558 13.6046 11.502C13.7166 11.446 13.8045 11.3511 13.8516 11.235C13.8988 11.1189 13.902 10.9897 13.8608 10.8714C13.8196 10.753 13.7367 10.6538 13.6276 10.5922C13.5502 10.5484 13.4628 10.5255 13.3739 10.5255H13.3745Z" fill="white"/>
<path d="M12.7474 10.8897C12.7124 10.8897 12.6781 10.8806 12.6477 10.8634L10.3861 9.58329C10.3393 9.55681 10.3049 9.51283 10.2906 9.46102C10.2762 9.4092 10.283 9.35381 10.3095 9.30701C10.336 9.26021 10.3799 9.22585 10.4318 9.21148C10.4836 9.19711 10.539 9.20391 10.5858 9.23038L12.8475 10.5107C12.8865 10.5327 12.917 10.5671 12.9344 10.6084C12.9518 10.6496 12.955 10.6955 12.9436 10.7388C12.9321 10.7821 12.9067 10.8204 12.8712 10.8477C12.8357 10.875 12.7922 10.8898 12.7474 10.8897Z" fill="white"/>
<path d="M13.3745 5.88049C13.2124 5.8808 13.0531 5.83833 12.9127 5.75736C12.7722 5.6764 12.6557 5.55981 12.5747 5.41937C12.4938 5.27893 12.4513 5.11962 12.4517 4.95753C12.452 4.79544 12.4951 4.6363 12.5766 4.4962C12.6581 4.35609 12.7752 4.23998 12.9159 4.15959C13.0567 4.0792 13.2162 4.03738 13.3783 4.03835C13.5403 4.03932 13.6993 4.08305 13.8391 4.16512C13.9789 4.24719 14.0945 4.36469 14.1744 4.50576C14.2537 4.64575 14.2949 4.80407 14.294 4.96495C14.293 5.12583 14.25 5.28367 14.169 5.42273C14.0881 5.56179 13.9722 5.67722 13.8328 5.75754C13.6934 5.83785 13.5354 5.88024 13.3745 5.88049ZM13.3719 4.44394C13.2586 4.44418 13.1485 4.48173 13.0587 4.55078C12.9689 4.61982 12.9043 4.71652 12.8749 4.82594C12.8456 4.93536 12.853 5.0514 12.8962 5.15614C12.9394 5.26088 13.0159 5.34849 13.1138 5.40543C13.2118 5.46236 13.3257 5.48546 13.4381 5.47116C13.5505 5.45685 13.655 5.40593 13.7356 5.32627C13.8161 5.24661 13.8682 5.14264 13.8838 5.03043C13.8993 4.91821 13.8775 4.80399 13.8217 4.70542C13.7765 4.62592 13.7111 4.55982 13.6321 4.51388C13.5531 4.46794 13.4633 4.4438 13.3719 4.44394Z" fill="white"/>
<path d="M10.4858 6.79601C10.4409 6.79608 10.3974 6.7813 10.3618 6.75397C10.3263 6.72664 10.3008 6.6883 10.2894 6.64495C10.278 6.60161 10.2813 6.5557 10.2987 6.51441C10.3161 6.47312 10.3468 6.43877 10.3858 6.41675L12.6474 5.13668C12.6706 5.12333 12.6961 5.1147 12.7227 5.11128C12.7492 5.10786 12.7761 5.10973 12.8019 5.11676C12.8277 5.1238 12.8519 5.13587 12.873 5.15228C12.8941 5.16869 12.9117 5.18912 12.9249 5.21239C12.9381 5.23565 12.9466 5.2613 12.9498 5.28784C12.953 5.31439 12.951 5.34131 12.9437 5.36706C12.9365 5.3928 12.9243 5.41687 12.9077 5.43786C12.8912 5.45886 12.8706 5.47637 12.8472 5.48939L10.5855 6.76966C10.5551 6.78689 10.5207 6.79597 10.4858 6.79601Z" fill="white"/>
<path d="M2.62819 11.9619C2.46503 11.9623 2.30469 11.9194 2.16358 11.8375C2.02247 11.7555 1.90566 11.6376 1.82508 11.4957C1.72494 11.3196 1.6856 11.1154 1.71316 10.9147C1.74072 10.7139 1.83363 10.5279 1.97753 10.3853C2.12144 10.2426 2.30832 10.1514 2.50928 10.1256C2.71025 10.0999 2.9141 10.1411 3.08932 10.2428C3.26454 10.3445 3.40138 10.5011 3.47866 10.6884C3.55595 10.8757 3.56939 11.0832 3.5169 11.2789C3.46441 11.4746 3.34892 11.6475 3.18828 11.771C3.02764 11.8945 2.8308 11.9616 2.62819 11.9619ZM2.17778 11.2951C2.22804 11.3838 2.30348 11.4556 2.39457 11.5015C2.48565 11.5474 2.58829 11.5652 2.6895 11.5527C2.79072 11.5403 2.88597 11.4981 2.96321 11.4315C3.04044 11.3649 3.0962 11.2769 3.12344 11.1786C3.15067 11.0803 3.14815 10.9762 3.1162 10.8794C3.08425 10.7825 3.0243 10.6973 2.94394 10.6345C2.86357 10.5718 2.7664 10.5342 2.6647 10.5267C2.563 10.5191 2.46134 10.5419 2.37258 10.5921C2.25367 10.6596 2.16638 10.7715 2.12986 10.9033C2.09334 11.0351 2.11058 11.176 2.17778 11.2951Z" fill="white"/>
<path d="M3.2527 10.8897C3.20792 10.8898 3.16439 10.875 3.1289 10.8477C3.09341 10.8204 3.06796 10.7821 3.05653 10.7388C3.04509 10.6955 3.04831 10.6496 3.06569 10.6084C3.08306 10.5671 3.11361 10.5327 3.15256 10.5107L5.41432 9.23038C5.43749 9.21727 5.46302 9.20886 5.48944 9.20561C5.51587 9.20237 5.54267 9.20436 5.56833 9.21148C5.59399 9.21859 5.61799 9.23069 5.63897 9.24708C5.65995 9.26347 5.67749 9.28383 5.6906 9.30701C5.70371 9.33018 5.71213 9.35571 5.71537 9.38213C5.71862 9.40856 5.71663 9.43536 5.70951 9.46102C5.7024 9.48667 5.6903 9.51068 5.67391 9.53165C5.65752 9.55263 5.63715 9.57018 5.61398 9.58329L3.35243 10.8634C3.32201 10.8806 3.28766 10.8897 3.2527 10.8897Z" fill="white"/>
</g>
<defs>
<clipPath id="clip0_8039_10546">
<rect width="15" height="15" fill="white" transform="translate(0.5 0.5)"/>
</clipPath>
</defs>
</svg>
