<svg width="25" height="24" viewBox="0 0 25 24" fill="none" xmlns="http://www.w3.org/2000/svg">
<path d="M16.286 11.293C16.0985 11.4805 15.9932 11.7349 15.9932 12C15.9932 12.2652 16.0985 12.5195 16.286 12.707L18.662 15.084C18.8495 15.2715 19.1038 15.3768 19.3689 15.3768C19.6341 15.3768 19.8884 15.2715 20.076 15.084L22.4529 12.707C22.6404 12.5195 22.7457 12.2652 22.7457 12C22.7457 11.7349 22.6404 11.4805 22.4529 11.293L20.076 8.91602C19.8884 8.72855 19.6341 8.62323 19.3689 8.62323C19.1038 8.62323 18.8495 8.72855 18.662 8.91602L16.286 11.293Z" stroke="#4C9AFF" stroke-width="2" stroke-linecap="round" stroke-linejoin="round"/>
<path d="M3.04669 11.2928C2.85922 11.4804 2.75391 11.7347 2.75391 11.9998C2.75391 12.265 2.85922 12.5193 3.04669 12.7068L5.42369 15.0838C5.61122 15.2713 5.86553 15.3766 6.13069 15.3766C6.39586 15.3766 6.65016 15.2713 6.83769 15.0838L9.21469 12.7068C9.40216 12.5193 9.50748 12.265 9.50748 11.9998C9.50748 11.7347 9.40216 11.4804 9.21469 11.2928L6.83769 8.91583C6.65016 8.72836 6.39586 8.62305 6.13069 8.62305C5.86553 8.62305 5.61122 8.72836 5.42369 8.91583L3.04669 11.2928Z" stroke="#4C9AFF" stroke-width="2" stroke-linecap="round" stroke-linejoin="round"/>
<path d="M9.66633 17.912C9.57336 18.0048 9.4996 18.1151 9.44927 18.2365C9.39895 18.3579 9.37305 18.488 9.37305 18.6194C9.37305 18.7509 9.39895 18.881 9.44927 19.0024C9.4996 19.1238 9.57336 19.2341 9.66633 19.327L12.0433 21.7029C12.2309 21.8904 12.4852 21.9957 12.7503 21.9957C13.0155 21.9957 13.2698 21.8904 13.4573 21.7029L15.8343 19.327C15.9273 19.2341 16.0011 19.1238 16.0514 19.0024C16.1017 18.881 16.1276 18.7509 16.1276 18.6194C16.1276 18.488 16.1017 18.3579 16.0514 18.2365C16.0011 18.1151 15.9273 18.0048 15.8343 17.912L13.4573 15.536C13.2698 15.3485 13.0155 15.2432 12.7503 15.2432C12.4852 15.2432 12.2309 15.3485 12.0433 15.536L9.66633 17.912Z" stroke="#4C9AFF" stroke-width="2" stroke-linecap="round" stroke-linejoin="round"/>
<path d="M9.66583 4.67369C9.47836 4.86122 9.37305 5.11553 9.37305 5.38069C9.37305 5.64586 9.47836 5.90016 9.66583 6.08769L12.0428 8.46369C12.2304 8.65116 12.4847 8.75648 12.7498 8.75648C13.015 8.75648 13.2693 8.65116 13.4568 8.46369L15.8338 6.08769C16.0213 5.90016 16.1266 5.64586 16.1266 5.38069C16.1266 5.11553 16.0213 4.86122 15.8338 4.67369L13.4568 2.29669C13.2693 2.10922 13.015 2.00391 12.7498 2.00391C12.4847 2.00391 12.2304 2.10922 12.0428 2.29669L9.66583 4.67369Z" stroke="#4C9AFF" stroke-width="2" stroke-linecap="round" stroke-linejoin="round"/>
</svg>
