<svg width="16" height="16" viewBox="0 0 16 16" fill="none" xmlns="http://www.w3.org/2000/svg">
<g clip-path="url(#clip0_8039_10528)">
<path d="M2.73005 10.3449C2.67629 10.3449 2.62473 10.3235 2.58671 10.2855C2.5487 10.2475 2.52734 10.1959 2.52734 10.1422V9.55231C2.52734 9.49855 2.5487 9.44699 2.58671 9.40898C2.62473 9.37097 2.67629 9.34961 2.73005 9.34961C2.78381 9.34961 2.83536 9.37097 2.87338 9.40898C2.91139 9.44699 2.93275 9.49855 2.93275 9.55231V10.1422C2.93275 10.1959 2.91139 10.2475 2.87338 10.2855C2.83536 10.3235 2.78381 10.3449 2.73005 10.3449Z" fill="white"/>
<path d="M13.2706 15.095H2.73005C2.67629 15.095 2.62473 15.0736 2.58671 15.0356C2.5487 14.9976 2.52734 14.946 2.52734 14.8923V11.5618C2.52734 11.5081 2.5487 11.4565 2.58671 11.4185C2.62473 11.3805 2.67629 11.3591 2.73005 11.3591C2.78381 11.3591 2.83536 11.3805 2.87338 11.4185C2.91139 11.4565 2.93275 11.5081 2.93275 11.5618V14.6895H13.0679V4.23292L10.1461 1.31117H2.93275V6.11319C2.93275 6.16695 2.91139 6.21851 2.87338 6.25653C2.83536 6.29454 2.78381 6.3159 2.73005 6.3159C2.67629 6.3159 2.62473 6.29454 2.58671 6.25653C2.5487 6.21851 2.52734 6.16695 2.52734 6.11319V1.10846C2.52734 1.0547 2.5487 1.00315 2.58671 0.965132C2.62473 0.927118 2.67629 0.905762 2.73005 0.905762H10.23C10.2838 0.905773 10.3354 0.927137 10.3734 0.965154L13.4139 4.00569C13.4519 4.0437 13.4733 4.09525 13.4733 4.14901V14.8923C13.4733 14.946 13.4519 14.9976 13.4139 15.0356C13.3759 15.0736 13.3243 15.095 13.2706 15.095Z" fill="white"/>
<path d="M2.73005 8.33654C2.67629 8.33654 2.62473 8.31518 2.58671 8.27717C2.5487 8.23915 2.52734 8.18759 2.52734 8.13383V7.5318C2.52734 7.47804 2.5487 7.42649 2.58671 7.38847C2.62473 7.35046 2.67629 7.3291 2.73005 7.3291C2.78381 7.3291 2.83536 7.35046 2.87338 7.38847C2.91139 7.42649 2.93275 7.47804 2.93275 7.5318V8.13383C2.93275 8.18759 2.91139 8.23915 2.87338 8.27717C2.83536 8.31518 2.78381 8.33654 2.73005 8.33654Z" fill="white"/>
<path d="M13.2706 4.35171H10.23C10.1763 4.35171 10.1247 4.33035 10.0867 4.29234C10.0487 4.25432 10.0273 4.20276 10.0273 4.149V1.10846C10.0273 1.0547 10.0487 1.00315 10.0867 0.965132C10.1247 0.927118 10.1763 0.905762 10.23 0.905762C10.2838 0.905762 10.3354 0.927118 10.3734 0.965132C10.4114 1.00315 10.4327 1.0547 10.4327 1.10846V3.9463H13.2706C13.3243 3.9463 13.3759 3.96766 13.4139 4.00567C13.4519 4.04369 13.4733 4.09524 13.4733 4.149C13.4733 4.20276 13.4519 4.25432 13.4139 4.29234C13.3759 4.33035 13.3243 4.35171 13.2706 4.35171Z" fill="white"/>
<path d="M11.7501 7.79749H4.25007C4.19631 7.79749 4.14475 7.77614 4.10673 7.73812C4.06872 7.70011 4.04736 7.64855 4.04736 7.59479C4.04736 7.54103 4.06872 7.48947 4.10673 7.45146C4.14475 7.41345 4.19631 7.39209 4.25007 7.39209H11.7501C11.8038 7.39209 11.8554 7.41345 11.8934 7.45146C11.9314 7.48947 11.9528 7.54103 11.9528 7.59479C11.9528 7.64855 11.9314 7.70011 11.8934 7.73812C11.8554 7.77614 11.8038 7.79749 11.7501 7.79749Z" fill="white"/>
<path d="M11.7501 9.62172H4.25007C4.19631 9.62172 4.14475 9.60036 4.10673 9.56235C4.06872 9.52433 4.04736 9.47277 4.04736 9.41901C4.04736 9.36525 4.06872 9.31369 4.10673 9.27568C4.14475 9.23766 4.19631 9.21631 4.25007 9.21631H11.7501C11.8038 9.21631 11.8554 9.23766 11.8934 9.27568C11.9314 9.31369 11.9528 9.36525 11.9528 9.41901C11.9528 9.47277 11.9314 9.52433 11.8934 9.56235C11.8554 9.60036 11.8038 9.62172 11.7501 9.62172Z" fill="white"/>
<path d="M11.7501 11.4457H4.25007C4.19631 11.4457 4.14475 11.4243 4.10673 11.3863C4.06872 11.3483 4.04736 11.2967 4.04736 11.243C4.04736 11.1892 4.06872 11.1377 4.10673 11.0997C4.14475 11.0616 4.19631 11.0403 4.25007 11.0403H11.7501C11.8038 11.0403 11.8554 11.0616 11.8934 11.0997C11.9314 11.1377 11.9528 11.1892 11.9528 11.243C11.9528 11.2967 11.9314 11.3483 11.8934 11.3863C11.8554 11.4243 11.8038 11.4457 11.7501 11.4457Z" fill="white"/>
<path d="M11.7499 13.2706H8.86139C8.80763 13.2706 8.75608 13.2493 8.71806 13.2113C8.68005 13.1733 8.65869 13.1217 8.65869 13.0679C8.65869 13.0142 8.68005 12.9626 8.71806 12.9246C8.75608 12.8866 8.80763 12.8652 8.86139 12.8652H11.7499C11.8037 12.8652 11.8552 12.8866 11.8932 12.9246C11.9313 12.9626 11.9526 13.0142 11.9526 13.0679C11.9526 13.1217 11.9313 13.1733 11.8932 13.2113C11.8552 13.2493 11.8037 13.2706 11.7499 13.2706Z" fill="white"/>
<path d="M8.0546 6.31061H4.7027C4.64894 6.31061 4.59738 6.28925 4.55937 6.25124C4.52136 6.21323 4.5 6.16167 4.5 6.10791V5.49271C4.50038 5.14096 4.64027 4.80373 4.88899 4.55501C5.13772 4.30629 5.47495 4.16639 5.82669 4.16602H6.93061C7.28236 4.16639 7.61959 4.30629 7.86831 4.55501C8.11703 4.80373 8.25693 5.14096 8.2573 5.49271V6.10791C8.2573 6.16167 8.23595 6.21323 8.19793 6.25124C8.15992 6.28925 8.10836 6.31061 8.0546 6.31061ZM4.90541 5.90521H7.8519V5.49271C7.85163 5.24845 7.75448 5.01427 7.58176 4.84156C7.40904 4.66884 7.17487 4.57169 6.93061 4.57142H5.82669C5.58243 4.57169 5.34826 4.66884 5.17554 4.84156C5.00282 5.01427 4.90567 5.24845 4.90541 5.49271V5.90521Z" fill="white"/>
<path d="M6.37855 4.56765C6.15003 4.56765 5.92665 4.49988 5.73664 4.37293C5.54664 4.24597 5.39855 4.06552 5.3111 3.8544C5.22365 3.64327 5.20076 3.41096 5.24535 3.18683C5.28993 2.96271 5.39997 2.75683 5.56156 2.59525C5.72314 2.43366 5.92902 2.32362 6.15314 2.27904C6.37727 2.23446 6.60958 2.25734 6.82071 2.34479C7.03183 2.43224 7.21228 2.58033 7.33924 2.77033C7.46619 2.96034 7.53396 3.18372 7.53396 3.41224C7.53353 3.71854 7.41166 4.01217 7.19507 4.22876C6.97849 4.44535 6.68485 4.56722 6.37855 4.56765ZM6.37855 2.66224C6.23022 2.66224 6.08521 2.70623 5.96187 2.78864C5.83854 2.87105 5.74241 2.98818 5.68564 3.12523C5.62888 3.26227 5.61402 3.41307 5.64296 3.55856C5.6719 3.70405 5.74333 3.83768 5.84822 3.94257C5.95311 4.04746 6.08675 4.11889 6.23223 4.14783C6.37772 4.17677 6.52852 4.16192 6.66556 4.10515C6.80261 4.04839 6.91974 3.95226 7.00215 3.82892C7.08457 3.70558 7.12855 3.56058 7.12855 3.41224C7.12861 3.31372 7.10925 3.21615 7.07158 3.1251C7.03391 3.03406 6.97868 2.95134 6.90903 2.88165C6.83938 2.81196 6.75668 2.75668 6.66566 2.71897C6.57464 2.68125 6.47708 2.66184 6.37855 2.66184V2.66224Z" fill="white"/>
</g>
<defs>
<clipPath id="clip0_8039_10528">
<rect width="15" height="15" fill="white" transform="translate(0.5 0.5)"/>
</clipPath>
</defs>
</svg>
