<svg width="25" height="25" viewBox="0 0 25 25" fill="none" xmlns="http://www.w3.org/2000/svg">
<rect width="24" height="24" transform="translate(0.5 0.527344)" fill="white" fill-opacity="0.01"/>
<path fill-rule="evenodd" clip-rule="evenodd" d="M4.52026 19.7573C4.48715 19.9193 4.49472 20.087 4.5423 20.2454C4.58988 20.4037 4.67598 20.5478 4.79289 20.6647C4.90981 20.7816 5.05389 20.8677 5.21224 20.9153C5.37059 20.9629 5.53826 20.9705 5.70026 20.9373L9.51026 20.1573L5.30026 15.9473L4.52026 19.7573ZM20.3443 7.23435L18.2243 5.11235C18.0384 4.92643 17.8176 4.77904 17.5746 4.67865C17.3316 4.57826 17.0712 4.52685 16.8083 4.52735C16.2963 4.52735 15.7843 4.72235 15.3933 5.11235L5.63626 14.8703L10.5863 19.8203L20.3433 10.0623C20.7182 9.68729 20.9288 9.17868 20.9288 8.64835C20.9288 8.11802 20.7182 7.6094 20.3433 7.23435H20.3443Z" fill="#A5ADBA"/>
</svg>
