<svg width="240" height="40" viewBox="0 0 240 40" fill="none" xmlns="http://www.w3.org/2000/svg">
<g clip-path="url(#clip0_4962_71452)">
<path d="M166.072 26.2232C166.877 25.8121 167.618 25.0695 168.297 23.9917L172.364 25.988C171.517 27.6584 170.267 28.9195 168.615 29.7695C166.962 30.6195 165.177 31.0436 163.257 31.0436C161.845 31.0436 160.51 30.8103 159.255 30.3417C157.997 29.8751 156.897 29.1936 155.95 28.3029C155.003 27.4121 154.255 26.3343 153.705 25.0732C153.155 23.8121 152.88 22.3751 152.88 20.7603C152.88 19.3436 153.135 18.0121 153.642 16.7658C154.15 15.5195 154.857 14.4362 155.76 13.5158C156.664 12.5954 157.757 11.8732 159.042 11.3491C160.327 10.8251 161.732 10.564 163.257 10.564C164.81 10.564 166.215 10.8325 167.472 11.3714C168.729 11.9103 169.802 12.6529 170.692 13.6029C171.581 14.5529 172.259 15.6917 172.724 17.0232C173.189 18.3547 173.424 19.8269 173.424 21.4417V22.2066H158.852C158.965 23.5658 159.467 24.6788 160.357 25.5417C161.247 26.4066 162.312 26.838 163.554 26.838C164.428 26.8399 165.268 26.6343 166.072 26.2232ZM160.333 15.9195C159.57 16.5991 159.09 17.5343 158.893 18.7232H167.407C167.182 17.364 166.672 16.3862 165.882 15.7918C165.092 15.1973 164.202 14.8992 163.215 14.8992C162.055 14.901 161.095 15.2399 160.333 15.9195Z" fill="#A5ADBA"/>
<path d="M175.201 16.4731C175.681 15.1991 176.323 14.1213 177.128 13.2435C177.933 12.3657 178.878 11.6991 179.966 11.2472C181.053 10.7935 182.218 10.5676 183.46 10.5676C184.647 10.5676 185.748 10.8009 186.765 11.2694C187.782 11.7361 188.657 12.3676 189.39 13.1602L189.475 13.1176V0.115723H195.405V30.5805H189.855L189.686 28.4565L189.601 28.4139C188.951 29.1213 188.103 29.7379 187.058 30.262C186.014 30.7861 184.856 31.0472 183.586 31.0472C182.371 31.0472 181.214 30.8268 180.113 30.3879C179.011 29.949 178.046 29.2898 177.211 28.412C176.378 27.5342 175.714 26.4639 175.221 25.2046C174.726 23.9435 174.479 22.4787 174.479 20.8065C174.481 19.1916 174.721 17.7472 175.201 16.4731ZM181.745 24.8861C182.578 25.9065 183.673 26.4157 185.028 26.4157C186.383 26.4157 187.463 25.8991 188.268 24.8657C189.073 23.8324 189.475 22.4657 189.475 20.7657C189.475 19.0657 189.058 17.7139 188.225 16.7083C187.393 15.7028 186.326 15.2009 185.028 15.2009C183.588 15.2009 182.473 15.7176 181.681 16.7509C180.89 17.7842 180.495 19.1231 180.495 20.7657C180.495 22.4916 180.913 23.8657 181.745 24.8861Z" fill="#A5ADBA"/>
<path d="M209.192 34.9769C209.8 34.6788 210.287 34.2695 210.655 33.7454C211.022 33.2214 211.282 32.6121 211.437 31.9177C211.592 31.2232 211.67 30.4806 211.67 29.6862V28.7084C211.642 28.7084 211.62 28.701 211.607 28.6862C211.594 28.6714 211.572 28.6658 211.544 28.6658C210.924 29.288 210.119 29.8417 209.13 30.3232C208.142 30.8047 207.04 31.0455 205.825 31.0455C204.583 31.0455 203.41 30.8251 202.31 30.3862C201.208 29.9473 200.248 29.3029 199.43 28.4529C198.61 27.6029 197.955 26.5417 197.46 25.2658C196.965 23.9917 196.718 22.5177 196.718 20.8473C196.718 19.2325 196.951 17.7954 197.418 16.5343C197.883 15.2732 198.52 14.1973 199.323 13.3047C200.126 12.4121 201.06 11.7325 202.118 11.2658C203.178 10.7992 204.3 10.564 205.485 10.564C206.868 10.564 208.076 10.8195 209.108 11.3288C210.138 11.838 211.05 12.5177 211.84 13.3677H211.925L212.052 11.0306H217.602V27.9417C217.602 29.1306 217.574 30.0658 217.517 30.7455C217.46 31.4251 217.334 32.1195 217.136 32.8269C216.544 35.0084 215.399 36.7288 213.706 37.9899C212.012 39.251 209.879 39.8806 207.309 39.8806C206.124 39.8806 205.05 39.7677 204.09 39.5399C203.13 39.314 202.262 39.0232 201.485 38.6695C200.708 38.3158 200.023 37.9121 199.43 37.4584C198.837 37.0047 198.328 36.5658 197.905 36.1417L200.785 32.6158C201.632 33.5214 202.62 34.2158 203.75 34.6973C204.88 35.1788 205.938 35.4195 206.927 35.4195C207.83 35.4232 208.585 35.2732 209.192 34.9769ZM203.94 24.9066C204.773 25.9121 205.868 26.414 207.223 26.414C208.578 26.414 209.658 25.8973 210.463 24.864C211.268 23.8306 211.67 22.464 211.67 20.764C211.67 19.064 211.253 17.7121 210.42 16.7066C209.588 15.701 208.52 15.1992 207.223 15.1992C205.783 15.1992 204.668 15.7232 203.876 16.7714C203.085 17.8195 202.688 19.1658 202.688 20.8084C202.69 22.5343 203.106 23.901 203.94 24.9066Z" fill="#A5ADBA"/>
<path d="M231.938 26.2232C232.743 25.8121 233.483 25.0695 234.163 23.9917L238.23 25.988C237.382 27.6584 236.132 28.9195 234.48 29.7695C232.828 30.6195 231.043 31.0436 229.123 31.0436C227.71 31.0436 226.376 30.8103 225.12 30.3417C223.863 29.8751 222.763 29.1936 221.815 28.3029C220.87 27.4103 220.121 26.3343 219.571 25.0732C219.02 23.8121 218.745 22.3751 218.745 20.7603C218.745 19.3436 219 18.0121 219.508 16.7658C220.015 15.5195 220.723 14.4362 221.625 13.5158C222.53 12.5954 223.623 11.8732 224.908 11.3491C226.193 10.8251 227.598 10.564 229.123 10.564C230.675 10.564 232.08 10.8325 233.337 11.3714C234.595 11.9103 235.667 12.6529 236.557 13.6029C237.447 14.5529 238.124 15.6917 238.59 17.0232C239.055 18.3547 239.289 19.8269 239.289 21.4417V22.2066H224.718C224.83 23.5658 225.332 24.6788 226.222 25.5417C227.112 26.4066 228.177 26.838 229.42 26.838C230.293 26.8399 231.133 26.6343 231.938 26.2232ZM226.2 15.9195C225.438 16.5991 224.958 17.5343 224.76 18.7232H233.275C233.049 17.364 232.54 16.3862 231.75 15.7918C230.96 15.1973 230.07 14.8992 229.082 14.8992C227.923 14.901 226.961 15.2399 226.2 15.9195Z" fill="#A5ADBA"/>
<path d="M47.9847 27.1006C47.6302 27.8561 47.0967 28.5265 46.3859 29.1098C45.6751 29.6932 44.7945 30.1654 43.7422 30.5209C42.6899 30.8765 41.4825 31.0561 40.1182 31.0561C39.1231 31.0561 38.1927 30.9561 37.325 30.7561C36.4573 30.5561 35.6616 30.3006 34.9379 29.9857C34.2124 29.6728 33.5736 29.3228 33.0198 28.9376C32.4659 28.5524 32.0044 28.1598 31.6333 27.7617L34.4893 24.2117C35.285 25.0376 36.173 25.6876 37.1533 26.158C38.1336 26.6283 39.1213 26.8635 40.1164 26.8635C40.9398 26.8635 41.573 26.6932 42.0142 26.3506C42.4554 26.008 42.6751 25.6098 42.6751 25.1524C42.6751 24.5543 42.3336 24.0969 41.6524 23.7839C41.3404 23.6135 40.9914 23.4709 40.6074 23.3561C40.2234 23.2413 39.8321 23.1135 39.4351 22.9709L38.1133 22.5858C37.517 22.4154 37.0111 22.2432 36.5995 22.0728C36.1878 21.9024 35.7964 21.7172 35.4271 21.5172C34.3471 20.9469 33.5662 20.2987 33.0825 19.5709C32.5988 18.8432 32.357 17.8821 32.357 16.6839C32.357 15.9135 32.5342 15.158 32.8905 14.4172C33.245 13.6765 33.7638 13.0061 34.4468 12.408C35.1299 11.8098 35.9681 11.332 36.9613 10.9746C37.9564 10.6191 39.1065 10.4395 40.4155 10.4395C41.4382 10.4395 42.3484 10.5395 43.1441 10.7395C43.9398 10.9395 44.6431 11.182 45.2542 11.4672C45.8653 11.7524 46.3988 12.0728 46.853 12.4302C47.3071 12.7857 47.7059 13.108 48.0474 13.3932L45.1914 16.7709C44.6228 16.2006 43.8991 15.7024 43.0167 15.2746C42.1361 14.8469 41.2407 14.6339 40.3305 14.6339C39.6493 14.6339 39.0807 14.7839 38.6247 15.082C38.1705 15.382 37.9416 15.7728 37.9416 16.258C37.9416 16.6283 38.0911 16.9358 38.3884 17.1783C38.6874 17.4209 39.0345 17.6135 39.4333 17.7561C39.8025 17.8987 40.1791 18.0339 40.5631 18.1617C40.9471 18.2895 41.381 18.4246 41.8628 18.5672L43.2271 18.995C43.9656 19.2228 44.7059 19.5302 45.4444 19.9154C46.1828 20.3006 46.8234 20.7913 47.3625 21.3913C48.1305 22.2469 48.5145 23.3876 48.5145 24.8117C48.5182 25.582 48.3391 26.345 47.9847 27.1006Z" fill="#A5ADBA"/>
<path d="M49.371 16.6007C49.8824 15.347 50.608 14.2636 51.5458 13.3507C52.4836 12.4377 53.6135 11.7247 54.9353 11.2118C56.2572 10.6988 57.7138 10.4414 59.3052 10.4414C60.8966 10.4414 62.3458 10.6988 63.6547 11.2118C64.9618 11.7247 66.0842 12.4377 67.0221 13.3507C67.9599 14.2636 68.6855 15.347 69.1969 16.6007C69.7083 17.8544 69.9649 19.2229 69.9649 20.7062C69.9649 22.1896 69.7083 23.5636 69.1969 24.8321C68.6855 26.1007 67.9599 27.1914 67.0221 28.1044C66.0842 29.0173 64.9618 29.7358 63.6547 30.2636C62.3476 30.7914 60.8984 31.0544 59.3052 31.0544C57.7138 31.0544 56.2572 30.7914 54.9353 30.2636C53.6135 29.7358 52.4836 29.0155 51.5458 28.1044C50.608 27.1914 49.8824 26.1007 49.371 24.8321C48.8596 23.5636 48.603 22.1877 48.603 20.7062C48.603 19.2229 48.8578 17.8544 49.371 16.6007ZM62.715 24.7896C63.5384 23.721 63.9519 22.3599 63.9519 20.7062C63.9519 19.0525 63.5403 17.7062 62.715 16.6655C61.8916 15.6247 60.7544 15.1044 59.3052 15.1044C57.8559 15.1044 56.7113 15.6247 55.8732 16.6655C55.035 17.7062 54.616 19.0525 54.616 20.7062C54.616 22.3599 55.035 23.721 55.8732 24.7896C56.7113 25.8581 57.8559 26.3933 59.3052 26.3933C60.7526 26.3933 61.8898 25.8581 62.715 24.7896Z" fill="#A5ADBA"/>
<path d="M73.4151 28.8528C71.7942 27.3843 70.9856 25.2103 70.9856 22.3306V10.9121H76.9967V22.5862C76.9967 23.8695 77.2884 24.8251 77.8699 25.451C78.4514 26.0769 79.2564 26.3917 80.2791 26.3917C81.2447 26.3917 82.0478 26.0991 82.6884 25.5158C83.329 24.9325 83.6484 23.9547 83.6484 22.5862V10.9121H89.6594V22.288C89.6594 23.8269 89.3973 25.1529 88.8711 26.2658C88.345 27.3769 87.6564 28.2899 86.8034 29.0028C85.9505 29.7158 84.9776 30.2362 83.8828 30.564C82.7881 30.8917 81.673 31.0566 80.5358 31.0566C77.4084 31.0547 75.0361 30.3214 73.4151 28.8528Z" fill="#A5ADBA"/>
<path d="M101.959 16.0007C101.433 15.8858 100.971 15.8303 100.572 15.8303C99.2652 15.8303 98.32 16.2858 97.7366 17.1988C97.1532 18.1118 96.8634 19.2951 96.8634 20.7488V30.584H90.8523V10.9118H96.4794L96.6068 13.3488H96.6917C97.4874 12.3507 98.3329 11.6173 99.2283 11.147C100.124 10.6766 101.026 10.4414 101.935 10.4414C102.446 10.4414 102.922 10.4988 103.364 10.6118C103.805 10.7266 104.224 10.8821 104.621 11.0821L103.513 16.471C103.004 16.2729 102.485 16.1155 101.959 16.0007Z" fill="#A5ADBA"/>
<path d="M110.038 23.1866C110.294 23.8996 110.627 24.4903 111.04 24.9607C111.452 25.4311 111.935 25.7866 112.489 26.0292C113.043 26.2718 113.619 26.3922 114.215 26.3922C115.181 26.3922 115.971 26.1848 116.582 25.7718C117.193 25.3588 117.827 24.6385 118.48 23.6126L122.658 26.0496C121.692 27.6755 120.463 28.9144 118.969 29.77C117.478 30.6255 115.822 31.0533 114.003 31.0533C112.639 31.0533 111.332 30.8107 110.08 30.3255C108.83 29.8403 107.728 29.1496 106.775 28.2514C105.823 27.3533 105.062 26.27 104.496 25.0014C103.927 23.7329 103.643 22.2996 103.643 20.7033C103.643 19.107 103.927 17.6737 104.496 16.4051C105.064 15.1366 105.825 14.0607 106.775 13.1755C107.728 12.2922 108.828 11.6144 110.08 11.144C111.33 10.6737 112.639 10.4385 114.003 10.4385C115.822 10.4385 117.478 10.8663 118.969 11.7218C120.461 12.5774 121.691 13.8181 122.658 15.4422L118.48 17.8792C118.111 17.2514 117.592 16.6311 116.924 16.0181C116.256 15.4051 115.353 15.0996 114.217 15.0996C112.853 15.0996 111.751 15.62 110.913 16.6607C110.075 17.7014 109.655 19.0477 109.655 20.7014C109.654 21.6477 109.781 22.4737 110.038 23.1866Z" fill="#A5ADBA"/>
<path d="M135.511 26.2007C136.322 25.7877 137.068 25.0396 137.749 23.9562L141.842 25.9655C140.989 27.647 139.732 28.9155 138.068 29.771C136.405 30.6266 134.609 31.0544 132.676 31.0544C131.254 31.0544 129.912 30.8192 128.647 30.3488C127.383 29.8784 126.273 29.1951 125.322 28.297C124.372 27.3988 123.617 26.3155 123.063 25.047C122.509 23.7784 122.232 22.3321 122.232 20.7062C122.232 19.2803 122.489 17.9414 123 16.6858C123.511 15.4321 124.222 14.3414 125.132 13.4136C126.042 12.4877 127.143 11.7599 128.437 11.2321C129.729 10.7044 131.143 10.4414 132.679 10.4414C134.243 10.4414 135.657 10.7118 136.922 11.2544C138.186 11.7951 139.266 12.5451 140.162 13.4988C141.057 14.4544 141.738 15.6007 142.207 16.9414C142.676 18.2821 142.911 19.7636 142.911 21.3896V22.1599H128.245C128.359 23.5284 128.863 24.647 129.759 25.5173C130.654 26.3877 131.727 26.821 132.978 26.821C133.855 26.821 134.703 26.6136 135.511 26.2007ZM129.735 15.8303C128.967 16.5136 128.485 17.4562 128.285 18.6525H136.855C136.628 17.284 136.117 16.3007 135.321 15.7025C134.525 15.1044 133.63 14.8044 132.635 14.8044C131.468 14.8044 130.503 15.147 129.735 15.8303Z" fill="#A5ADBA"/>
<path d="M31.8501 21.3854C31.8501 19.7613 31.6156 18.2798 31.1467 16.9391C30.6778 15.6002 29.9965 14.452 29.1011 13.4983C28.2058 12.5428 27.1276 11.7965 25.863 11.2539C24.5984 10.7131 23.1861 10.4409 21.6224 10.4409C20.0882 10.4409 18.6741 10.7039 17.3818 11.2317C16.2667 11.6872 15.2956 12.2909 14.4648 13.0428L13.2168 19.1131L11.4205 18.4131C11.2636 19.1502 11.1824 19.9113 11.1824 20.7002C11.1824 22.3243 11.4593 23.7706 12.0131 25.0391C12.567 26.3076 13.3202 27.3909 14.271 28.2872C15.2236 29.1854 16.3313 29.8687 17.5941 30.3391C18.8587 30.8094 20.2008 31.0446 21.6205 31.0446C23.5516 31.0446 25.3498 30.6168 27.0113 29.7631C28.6728 28.9076 29.9301 27.6409 30.783 25.9594L26.6919 23.9502C26.0107 25.0335 25.2648 25.7817 24.4544 26.1946C23.6439 26.6076 22.8002 26.815 21.9196 26.815C20.6698 26.815 19.5971 26.3798 18.7018 25.5113C17.8064 24.6428 17.3024 23.5243 17.1898 22.1557H31.8482V21.3854H31.8501ZM17.2341 18.6502C17.4334 17.4539 17.9153 16.5131 18.6833 15.8298C19.4494 15.1465 20.4168 14.8039 21.5818 14.8039C22.5768 14.8039 23.4704 15.1039 24.2661 15.702C25.0618 16.3002 25.5731 17.2835 25.8002 18.652H17.2341V18.6502Z" fill="#A5ADBA"/>
<path d="M11.1324 16.0003C10.6063 15.8855 10.1447 15.8299 9.7478 15.8299C8.44072 15.8299 7.4955 16.2855 6.91396 17.1984C6.33242 18.1095 6.04073 19.2929 6.04073 20.7466V30.5781H0.0314941V10.9132H5.65673L5.78411 13.3503H5.86903C6.66473 12.3521 7.51026 11.6188 8.40565 11.1484C9.30103 10.6781 10.202 10.4429 11.1121 10.4429C11.6235 10.4429 12.0998 10.5003 12.5392 10.6132C12.9786 10.7281 13.3976 10.8836 13.7964 11.0836L12.6887 16.4688C12.1755 16.2706 11.6567 16.1151 11.1324 16.0003Z" fill="#A5ADBA"/>
</g>
<defs>
<clipPath id="clip0_4962_71452">
<rect width="240" height="40" fill="white"/>
</clipPath>
</defs>
</svg>
