<svg width="24" height="24" viewBox="0 0 24 24" fill="none" xmlns="http://www.w3.org/2000/svg">
<path d="M19.995 6.68785C20.8914 6.15194 21.5622 5.30809 21.882 4.31385C21.0397 4.81367 20.1181 5.16575 19.157 5.35485C18.5088 4.6692 17.6532 4.21577 16.7219 4.06445C15.7905 3.91314 14.8353 4.07233 14.0034 4.51751C13.1715 4.96268 12.5091 5.66911 12.1184 6.52791C11.7276 7.38671 11.6301 8.3502 11.841 9.26985C10.1349 9.1842 8.46586 8.74073 6.94223 7.96823C5.41861 7.19574 4.07445 6.11149 2.99702 4.78585C2.44908 5.73095 2.28141 6.84918 2.52806 7.91343C2.77472 8.97767 3.41719 9.90814 4.32502 10.5159C3.64373 10.4939 2.97754 10.3095 2.38202 9.97785V10.0319C2.38221 11.0228 2.72515 11.9832 3.35268 12.7502C3.98021 13.5172 4.8537 14.0435 5.82502 14.2399C5.19308 14.4118 4.53022 14.4371 3.88702 14.3139C4.16175 15.1662 4.69572 15.9115 5.41442 16.4457C6.13312 16.9799 7.00068 17.2764 7.89602 17.2939C6.37585 18.487 4.49849 19.134 2.56602 19.1309C2.22302 19.1309 1.88102 19.1109 1.54102 19.0719C3.50343 20.3328 5.78739 21.0022 8.12002 20.9999C9.72662 21.0109 11.3194 20.7026 12.8058 20.0928C14.2923 19.483 15.6427 18.584 16.7787 17.4479C17.9148 16.3118 18.8137 14.9612 19.4233 13.4747C20.033 11.9883 20.3412 10.3955 20.33 8.78885C20.33 8.60285 20.326 8.41785 20.317 8.23385C21.1575 7.62647 21.8828 6.87401 22.459 6.01185C21.676 6.3589 20.8455 6.58676 19.995 6.68785Z" fill="#FAFBFC"/>
</svg>
