<svg width="64" height="64" viewBox="0 0 64 64" fill="none" xmlns="http://www.w3.org/2000/svg">
<circle cx="32" cy="32" r="32" fill="#008DA6"/>
<path d="M34.2443 42.2498H32.96C32.8453 42.2498 32.7353 42.2042 32.6542 42.1231C32.5731 42.042 32.5276 41.932 32.5276 41.8173C32.5276 41.7026 32.5731 41.5926 32.6542 41.5115C32.7353 41.4304 32.8453 41.3849 32.96 41.3849H34.2443C34.359 41.3849 34.469 41.4304 34.5501 41.5115C34.6312 41.5926 34.6768 41.7026 34.6768 41.8173C34.6768 41.932 34.6312 42.042 34.5501 42.1231C34.469 42.2042 34.359 42.2498 34.2443 42.2498Z" fill="#FAFBFC"/>
<path d="M46.7026 42.2497H37.2712C37.1566 42.2497 37.0466 42.2041 36.9655 42.123C36.8844 42.0419 36.8388 41.9319 36.8388 41.8172C36.8388 41.7026 36.8844 41.5926 36.9655 41.5115C37.0466 41.4304 37.1566 41.3848 37.2712 41.3848H46.0803L41.6691 29.5266L39.3391 31.4293C39.2931 31.4667 39.24 31.4941 39.1829 31.51C39.1259 31.526 39.0662 31.53 39.0075 31.5219C38.9488 31.5138 38.8925 31.4937 38.8419 31.4629C38.7913 31.4321 38.7476 31.3912 38.7134 31.3429L32.7255 22.9178L27.3954 34.0516C27.3666 34.1117 27.3244 34.1643 27.2719 34.2054C27.2195 34.2464 27.1583 34.2748 27.0931 34.2883C27.0279 34.3019 26.9604 34.3001 26.896 34.2833C26.8316 34.2665 26.7719 34.235 26.7216 34.1913L23.5675 31.4527L18.0323 41.3848H25.6518C25.7665 41.3848 25.8765 41.4304 25.9576 41.5115C26.0387 41.5926 26.0842 41.7026 26.0842 41.8172C26.0842 41.9319 26.0387 42.0419 25.9576 42.123C25.8765 42.2041 25.7665 42.2497 25.6518 42.2497H17.2972C17.2218 42.2497 17.1477 42.2301 17.0823 42.1926C17.0168 42.1552 16.9623 42.1013 16.9241 42.0364C16.8859 41.9714 16.8654 41.8975 16.8645 41.8222C16.8637 41.7468 16.8825 41.6725 16.9192 41.6066L23.0728 30.5666C23.1041 30.5104 23.1475 30.4619 23.2 30.4246C23.2524 30.3873 23.3126 30.3622 23.376 30.3511C23.4394 30.34 23.5044 30.3432 23.5664 30.3604C23.6284 30.3776 23.6858 30.4085 23.7344 30.4508L26.8604 33.166L32.2628 21.8817C32.2953 21.8138 32.345 21.7555 32.4069 21.7127C32.4688 21.6699 32.5408 21.6439 32.6158 21.6375C32.6908 21.631 32.7662 21.6442 32.8345 21.6758C32.9028 21.7074 32.9617 21.7563 33.0053 21.8177L39.1506 30.4663L41.5904 28.475C41.6437 28.4315 41.7065 28.4014 41.7737 28.3871C41.841 28.3729 41.9106 28.3748 41.9769 28.3928C42.0433 28.4108 42.1044 28.4444 42.1551 28.4907C42.2059 28.537 42.2449 28.5948 42.2689 28.6592L47.1078 41.6672C47.132 41.7325 47.14 41.8028 47.1312 41.8719C47.1224 41.941 47.097 42.007 47.0572 42.0642C47.0174 42.1214 46.9644 42.1681 46.9027 42.2004C46.8409 42.2327 46.7723 42.2496 46.7026 42.2497Z" fill="#FAFBFC"/>
<path d="M29.9331 42.2498H28.679C28.5643 42.2498 28.4543 42.2042 28.3732 42.1231C28.2921 42.042 28.2466 41.932 28.2466 41.8173C28.2466 41.7026 28.2921 41.5926 28.3732 41.5115C28.4543 41.4304 28.5643 41.3849 28.679 41.3849H29.9331C30.0478 41.3849 30.1577 41.4304 30.2388 41.5115C30.3199 41.5926 30.3655 41.7026 30.3655 41.8173C30.3655 41.932 30.3199 42.042 30.2388 42.1231C30.1577 42.2042 30.0478 42.2498 29.9331 42.2498Z" fill="#FAFBFC"/>
<path d="M29.5426 28.9957C29.4396 28.9958 29.3399 28.9592 29.2614 28.8924C29.183 28.8256 29.131 28.733 29.1148 28.6313C29.0985 28.5296 29.1192 28.4254 29.173 28.3375C29.2267 28.2496 29.3101 28.1838 29.4081 28.152L32.6263 27.0973C32.8815 27.0138 33.1585 27.027 33.4046 27.1345L34.2894 27.5206C34.3298 27.5384 34.3745 27.5442 34.4181 27.5374C34.4617 27.5306 34.5024 27.5114 34.5355 27.4821L35.703 26.4478C35.7456 26.4101 35.7952 26.3813 35.8489 26.3628C35.9027 26.3444 35.9595 26.3367 36.0163 26.3402C36.073 26.3437 36.1285 26.3583 36.1795 26.3833C36.2306 26.4083 36.2762 26.443 36.3138 26.4856C36.3515 26.5282 36.3803 26.5778 36.3988 26.6315C36.4172 26.6853 36.4249 26.7421 36.4214 26.7988C36.4179 26.8556 36.4033 26.911 36.3783 26.9621C36.3534 27.0132 36.3186 27.0588 36.276 27.0964L35.1084 28.1308C34.9516 28.2688 34.7587 28.3593 34.5524 28.3917C34.346 28.4242 34.1347 28.3973 33.943 28.3141L33.0587 27.928C33.0065 27.9049 32.9476 27.9021 32.8935 27.9202L29.6754 28.9758C29.6324 28.9893 29.5876 28.996 29.5426 28.9957Z" fill="#FAFBFC"/>
<path d="M32.6529 22.5022C32.5382 22.5022 32.4282 22.4566 32.3471 22.3755C32.266 22.2944 32.2205 22.1845 32.2205 22.0698V16.1813C32.2205 16.0666 32.266 15.9567 32.3471 15.8756C32.4282 15.7945 32.5382 15.7489 32.6529 15.7489C32.7676 15.7489 32.8776 15.7945 32.9587 15.8756C33.0398 15.9567 33.0853 16.0666 33.0853 16.1813V22.0698C33.0853 22.1845 33.0398 22.2944 32.9587 22.3755C32.8776 22.4566 32.7676 22.5022 32.6529 22.5022Z" fill="#FAFBFC"/>
<path d="M36.6996 19.6187H32.6529C32.5382 19.6187 32.4282 19.5732 32.3471 19.4921C32.266 19.411 32.2205 19.301 32.2205 19.1863V16.6254C32.2205 16.5107 32.266 16.4007 32.3471 16.3196C32.4282 16.2386 32.5382 16.193 32.6529 16.193H36.6996C36.8143 16.193 36.9243 16.2386 37.0054 16.3196C37.0865 16.4007 37.132 16.5107 37.132 16.6254V19.1863C37.132 19.301 37.0865 19.411 37.0054 19.4921C36.9243 19.5732 36.8143 19.6187 36.6996 19.6187ZM33.0853 18.7539H36.2672V17.0579H33.0853V18.7539Z" fill="#FAFBFC"/>
</svg>
