<svg width="25" height="24" viewBox="0 0 25 24" fill="none" xmlns="http://www.w3.org/2000/svg">
<path d="M14.356 5.55326C14.6336 5.69198 14.9397 5.76419 15.25 5.76419C15.5603 5.76419 15.8664 5.69198 16.144 5.55326L19.803 3.72326C19.9556 3.64702 20.1251 3.61107 20.2955 3.61883C20.4659 3.62659 20.6314 3.6778 20.7765 3.76759C20.9215 3.85738 21.0411 3.98277 21.124 4.13184C21.2069 4.28091 21.2503 4.4487 21.25 4.61926V17.3833C21.2499 17.5689 21.1981 17.7509 21.1005 17.9088C21.0028 18.0667 20.8631 18.1943 20.697 18.2773L16.144 20.5543C15.8664 20.693 15.5603 20.7652 15.25 20.7652C14.9397 20.7652 14.6336 20.693 14.356 20.5543L10.144 18.4483C9.8664 18.3095 9.56033 18.2373 9.25 18.2373C8.93967 18.2373 8.6336 18.3095 8.356 18.4483L4.697 20.2783C4.54436 20.3545 4.37473 20.3905 4.20426 20.3827C4.03379 20.3749 3.86816 20.3236 3.72312 20.2337C3.57808 20.1438 3.45846 20.0182 3.37565 19.869C3.29284 19.7198 3.24958 19.5519 3.25 19.3813V6.61826C3.2501 6.4326 3.30189 6.25063 3.39956 6.09273C3.49722 5.93484 3.63692 5.80725 3.803 5.72426L8.356 3.44726C8.6336 3.30854 8.93967 3.23633 9.25 3.23633C9.56033 3.23633 9.8664 3.30854 10.144 3.44726L14.356 5.55326Z" stroke="#4C9AFF" stroke-width="2" stroke-linecap="round" stroke-linejoin="round"/>
<path d="M15.25 5.76367V20.7637" stroke="#4C9AFF" stroke-width="2" stroke-linecap="round" stroke-linejoin="round"/>
<path d="M9.25 3.23633V18.2363" stroke="#4C9AFF" stroke-width="2" stroke-linecap="round" stroke-linejoin="round"/>
</svg>
