<svg width="25" height="24" viewBox="0 0 25 24" fill="none" xmlns="http://www.w3.org/2000/svg">
<g clip-path="url(#clip0_419_85)">
<path d="M24.9803 0.0524902H0.0223999V23.9474H24.9803V0.0524902Z" fill="#0052CC"/>
<path d="M19.9275 9.89557C19.9275 9.1386 19.818 8.44778 19.5991 7.82314C19.3802 7.19914 19.0622 6.664 18.6444 6.21903C18.2267 5.77406 17.7228 5.42573 17.1328 5.17276C16.5427 4.92043 15.8828 4.79395 15.1535 4.79395C14.4372 4.79395 13.7772 4.91654 13.1742 5.16238C12.6535 5.37449 12.2001 5.656 11.8128 6.00627L11.2299 8.83567L10.3912 8.50941C10.318 8.85254 10.2798 9.208 10.2798 9.57579C10.2798 10.3328 10.4093 11.0067 10.6677 11.5983C10.9262 12.1892 11.2778 12.6938 11.7221 13.1122C12.1664 13.5306 12.6839 13.8497 13.274 14.0683C13.864 14.2876 14.4909 14.3972 15.1541 14.3972C16.0563 14.3972 16.8951 14.1981 17.671 13.7998C18.4469 13.4015 19.0337 12.8099 19.4313 12.0264L17.5214 11.0897C17.2034 11.5944 16.8549 11.9434 16.4767 12.136C16.0984 12.3286 15.704 12.4246 15.2927 12.4246C14.7092 12.4246 14.2085 12.2223 13.7908 11.8169C13.3731 11.4115 13.1373 10.8906 13.0848 10.253H19.9281V9.89557H19.9275ZM13.1036 8.62033C13.1962 8.06249 13.4216 7.624 13.7798 7.30552C14.1379 6.98703 14.5887 6.82746 15.1328 6.82746C15.5971 6.82746 16.0149 6.96692 16.386 7.24584C16.7571 7.52476 16.9961 7.98335 17.1023 8.62033H13.1036Z" fill="white"/>
<path d="M10.2551 7.38538C10.0096 7.33219 9.79395 7.3056 9.60872 7.3056C8.99861 7.3056 8.55755 7.51836 8.28553 7.94322C8.01351 8.36809 7.8775 8.91944 7.8775 9.59663V14.1793H5.07245V5.01392H7.6981L7.75768 6.14971H7.79719C8.16895 5.68462 8.56338 5.34279 8.98113 5.12354C9.39887 4.9043 9.81986 4.79468 10.2441 4.79468C10.4831 4.79468 10.7052 4.82128 10.9105 4.87446C11.1158 4.92765 11.3114 5.00095 11.4973 5.09371L10.9798 7.60398C10.7421 7.51122 10.5006 7.43792 10.2551 7.38538Z" fill="white"/>
<path d="M20.0253 19.2046V16.6736L4.97475 16.6736V19.2046L20.0253 19.2046Z" fill="white"/>
</g>
<defs>
<clipPath id="clip0_419_85">
<rect width="25" height="24" fill="white"/>
</clipPath>
</defs>
</svg>
