<svg width="64" height="64" viewBox="0 0 64 64" fill="none" xmlns="http://www.w3.org/2000/svg">
<circle cx="32" cy="32" r="32" fill="#008DA6"/>
<g clip-path="url(#clip0_4962_71230)">
<path d="M17.2973 28.973C17.2069 28.9729 17.1188 28.9445 17.0454 28.8918C16.9721 28.8391 16.917 28.7647 16.888 28.6791C16.8591 28.5935 16.8577 28.501 16.884 28.4146C16.9103 28.3281 16.963 28.2521 17.0348 28.1972L21.7915 24.56C21.8828 24.4928 21.9968 24.4641 22.1091 24.4802C22.2213 24.4962 22.3227 24.5557 22.3915 24.6457C22.4603 24.7358 22.491 24.8493 22.477 24.9618C22.463 25.0742 22.4053 25.1767 22.3165 25.2471L17.5598 28.8839C17.4845 28.9418 17.3922 28.9731 17.2973 28.973Z" fill="white"/>
<path d="M46.7027 47.1354H37.3795C37.2648 47.1354 37.1548 47.0899 37.0737 47.0088C36.9926 46.9277 36.947 46.8177 36.947 46.703C36.947 46.5883 36.9926 46.4783 37.0737 46.3972C37.1548 46.3161 37.2648 46.2706 37.3795 46.2706H46.2703V28.5408C46.2703 28.4261 46.3158 28.3162 46.3969 28.2351C46.478 28.154 46.588 28.1084 46.7027 28.1084C46.8174 28.1084 46.9274 28.154 47.0085 28.2351C47.0896 28.3162 47.1351 28.4261 47.1351 28.5408V46.703C47.1351 46.8177 47.0896 46.9277 47.0085 47.0088C46.9274 47.0899 46.8174 47.1354 46.7027 47.1354Z" fill="white"/>
<path d="M30.0412 47.1354H28.7828C28.6681 47.1354 28.5581 47.0898 28.477 47.0087C28.3959 46.9276 28.3503 46.8176 28.3503 46.7029C28.3503 46.5883 28.3959 46.4783 28.477 46.3972C28.5581 46.3161 28.6681 46.2705 28.7828 46.2705H30.0412C30.1558 46.2705 30.2658 46.3161 30.3469 46.3972C30.428 46.4783 30.4736 46.5883 30.4736 46.7029C30.4736 46.8176 30.428 46.9276 30.3469 47.0087C30.2658 47.0898 30.1558 47.1354 30.0412 47.1354Z" fill="white"/>
<path d="M25.7556 47.1354H17.2972C17.1825 47.1354 17.0725 47.0899 16.9914 47.0088C16.9103 46.9277 16.8647 46.8177 16.8647 46.703V28.5408C16.8647 28.4261 16.9103 28.3162 16.9914 28.2351C17.0725 28.154 17.1825 28.1084 17.2972 28.1084C17.4119 28.1084 17.5219 28.154 17.603 28.2351C17.6841 28.3162 17.7296 28.4261 17.7296 28.5408V46.2706H25.7556C25.8702 46.2706 25.9802 46.3161 26.0613 46.3972C26.1424 46.4783 26.188 46.5883 26.188 46.703C26.188 46.8177 26.1424 46.9277 26.0613 47.0088C25.9802 47.0899 25.8702 47.1354 25.7556 47.1354Z" fill="white"/>
<path d="M34.3525 47.1354H33.0682C32.9535 47.1354 32.8435 47.0898 32.7624 47.0087C32.6813 46.9276 32.6357 46.8176 32.6357 46.7029C32.6357 46.5883 32.6813 46.4783 32.7624 46.3972C32.8435 46.3161 32.9535 46.2705 33.0682 46.2705H34.3525C34.4672 46.2705 34.5772 46.3161 34.6583 46.3972C34.7394 46.4783 34.7849 46.5883 34.7849 46.7029C34.7849 46.8176 34.7394 46.9276 34.6583 47.0087C34.5772 47.0898 34.4672 47.1354 34.3525 47.1354Z" fill="white"/>
<path d="M35.7443 20.5923C35.6496 20.5922 35.5575 20.5611 35.4822 20.5036L31.9998 17.8416L28.5175 20.5036C28.4263 20.5733 28.3113 20.6039 28.1976 20.5887C28.0839 20.5736 27.9809 20.5139 27.9112 20.4227C27.8415 20.3316 27.8109 20.2166 27.8261 20.1029C27.8412 19.9892 27.9009 19.8861 27.9921 19.8165L31.7374 16.9538C31.8127 16.8962 31.905 16.865 31.9998 16.865C32.0947 16.865 32.1869 16.8962 32.2623 16.9538L36.0076 19.8165C36.0794 19.8714 36.1322 19.9476 36.1585 20.0341C36.1848 20.1206 36.1833 20.2132 36.1542 20.2988C36.1251 20.3845 36.07 20.4588 35.9964 20.5115C35.9229 20.5641 35.8347 20.5924 35.7443 20.5923Z" fill="white"/>
<path d="M46.7028 28.9728C46.6079 28.9729 46.5156 28.9416 46.4404 28.8837L41.6836 25.247C41.601 25.1746 41.5491 25.0736 41.5382 24.9643C41.5274 24.8551 41.5586 24.7458 41.6253 24.6586C41.6921 24.5715 41.7896 24.513 41.8979 24.4951C42.0062 24.4771 42.1173 24.501 42.2086 24.562L46.9653 28.1992C47.0362 28.2543 47.0881 28.3302 47.1139 28.4163C47.1397 28.5023 47.138 28.5942 47.1092 28.6793C47.0803 28.7644 47.0257 28.8383 46.9529 28.8909C46.88 28.9435 46.7927 28.9721 46.7028 28.9728Z" fill="white"/>
<path d="M32 39.4125C30.5937 39.4142 29.2306 38.9264 28.1448 38.0326L17.0223 28.8728C16.9337 28.7999 16.8778 28.6948 16.8668 28.5806C16.8557 28.4664 16.8905 28.3525 16.9634 28.264C17.0364 28.1754 17.1415 28.1195 17.2557 28.1085C17.3699 28.0974 17.4838 28.1322 17.5723 28.2051L28.6949 37.3649C29.6266 38.1297 30.7946 38.5477 32 38.5477C33.2053 38.5477 34.3734 38.1297 35.3051 37.3649L46.4277 28.2051C46.4715 28.169 46.522 28.1419 46.5764 28.1253C46.6307 28.1087 46.6877 28.103 46.7443 28.1085C46.8008 28.1139 46.8557 28.1305 46.9059 28.1571C46.956 28.1838 47.0004 28.2201 47.0365 28.264C47.0726 28.3078 47.0998 28.3583 47.1164 28.4126C47.133 28.467 47.1387 28.524 47.1332 28.5806C47.1278 28.6371 47.1112 28.692 47.0845 28.7422C47.0579 28.7923 47.0216 28.8367 46.9777 28.8728L35.8551 38.0326C34.7694 38.9264 33.4063 39.4142 32 39.4125Z" fill="white"/>
<path d="M46.7027 47.135C46.6024 47.1351 46.5051 47.1002 46.4277 47.0364L35.4007 37.9553C35.3568 37.9192 35.3205 37.8748 35.2939 37.8247C35.2672 37.7745 35.2506 37.7196 35.2452 37.6631C35.2397 37.6065 35.2454 37.5495 35.262 37.4952C35.2786 37.4408 35.3057 37.3903 35.3419 37.3465C35.378 37.3026 35.4224 37.2663 35.4725 37.2397C35.5227 37.213 35.5776 37.1964 35.6341 37.191C35.6907 37.1855 35.7477 37.1912 35.802 37.2078C35.8564 37.2244 35.9069 37.2515 35.9507 37.2877L46.9777 46.3688C47.0465 46.4254 47.0961 46.5019 47.1198 46.5878C47.1434 46.6737 47.14 46.7648 47.1099 46.8487C47.0798 46.9325 47.0245 47.0051 46.9516 47.0563C46.8788 47.1076 46.7918 47.1351 46.7027 47.135Z" fill="white"/>
<path d="M17.2973 47.135C17.2082 47.135 17.1213 47.1076 17.0484 47.0563C16.9755 47.005 16.9203 46.9325 16.8902 46.8487C16.8601 46.7648 16.8566 46.6737 16.8803 46.5878C16.9039 46.5019 16.9535 46.4254 17.0223 46.3687L28.0493 37.2877C28.1379 37.2147 28.2518 37.1799 28.366 37.191C28.4801 37.202 28.5853 37.2579 28.6582 37.3465C28.7311 37.435 28.7659 37.5489 28.7549 37.6631C28.7439 37.7773 28.6879 37.8824 28.5994 37.9553L17.5724 47.0364C17.4949 47.1002 17.3977 47.1351 17.2973 47.135Z" fill="white"/>
<path d="M41.9459 32.8908C41.8312 32.8908 41.7212 32.8452 41.6401 32.7641C41.559 32.6831 41.5135 32.5731 41.5135 32.4584V20.5946H22.4864V32.4584C22.4864 32.5731 22.4409 32.6831 22.3598 32.7641C22.2787 32.8452 22.1687 32.8908 22.054 32.8908C21.9393 32.8908 21.8293 32.8452 21.7482 32.7641C21.6671 32.6831 21.6216 32.5731 21.6216 32.4584V20.1622C21.6216 20.0475 21.6671 19.9375 21.7482 19.8564C21.8293 19.7753 21.9393 19.7297 22.054 19.7297H41.9459C42.0606 19.7297 42.1706 19.7753 42.2517 19.8564C42.3328 19.9375 42.3783 20.0475 42.3783 20.1622V32.4584C42.3783 32.5731 42.3328 32.6831 42.2517 32.7641C42.1706 32.8452 42.0606 32.8908 41.9459 32.8908Z" fill="white"/>
<path d="M32.0001 28.0856C31.5915 28.0856 31.1921 27.9644 30.8524 27.7374C30.5127 27.5104 30.2479 27.1878 30.0916 26.8104C29.9352 26.4329 29.8943 26.0175 29.974 25.6168C30.0537 25.2161 30.2505 24.848 30.5394 24.5591C30.8283 24.2702 31.1963 24.0735 31.5971 23.9938C31.9978 23.9141 32.4131 23.955 32.7906 24.1113C33.168 24.2677 33.4907 24.5325 33.7177 24.8722C33.9446 25.2119 34.0658 25.6113 34.0658 26.0198C34.0658 26.1345 34.0202 26.2445 33.9391 26.3256C33.858 26.4067 33.748 26.4523 33.6334 26.4523C33.5187 26.4523 33.4087 26.4067 33.3276 26.3256C33.2465 26.2445 33.2009 26.1345 33.2009 26.0198C33.2009 25.7823 33.1305 25.5502 32.9985 25.3527C32.8666 25.1552 32.679 25.0013 32.4596 24.9104C32.2402 24.8195 31.9987 24.7957 31.7658 24.842C31.5328 24.8884 31.3189 25.0028 31.1509 25.1707C30.983 25.3386 30.8686 25.5526 30.8223 25.7856C30.7759 26.0185 30.7997 26.26 30.8906 26.4794C30.9815 26.6988 31.1354 26.8864 31.3329 27.0183C31.5304 27.1503 31.7626 27.2207 32.0001 27.2207C32.1147 27.2207 32.2247 27.2663 32.3058 27.3474C32.3869 27.4285 32.4325 27.5384 32.4325 27.6531C32.4325 27.7678 32.3869 27.8778 32.3058 27.9589C32.2247 28.04 32.1147 28.0856 32.0001 28.0856Z" fill="white"/>
<path d="M32.0001 31.3512C31.4524 31.3507 30.9273 31.1328 30.54 30.7456C30.1527 30.3583 29.9349 29.8332 29.9343 29.2855C29.9343 29.1708 29.9799 29.0608 30.061 28.9797C30.1421 28.8986 30.2521 28.8531 30.3668 28.8531C30.4814 28.8531 30.5914 28.8986 30.6725 28.9797C30.7536 29.0608 30.7992 29.1708 30.7992 29.2855C30.799 29.5231 30.8693 29.7553 31.0012 29.9529C31.133 30.1505 31.3205 30.3046 31.5399 30.3956C31.7593 30.4866 32.0008 30.5105 32.2338 30.4643C32.4668 30.418 32.6809 30.3037 32.8489 30.1358C33.0169 29.9679 33.1314 29.7539 33.1778 29.521C33.2242 29.288 33.2005 29.0465 33.1096 28.827C33.0187 28.6075 32.8648 28.4199 32.6673 28.288C32.4698 28.156 32.2376 28.0855 32.0001 28.0855C31.8854 28.0855 31.7754 28.04 31.6943 27.9589C31.6132 27.8778 31.5676 27.7678 31.5676 27.6531C31.5676 27.5384 31.6132 27.4284 31.6943 27.3473C31.7754 27.2662 31.8854 27.2206 32.0001 27.2206C32.2748 27.215 32.548 27.2643 32.8035 27.3656C33.059 27.4668 33.2917 27.618 33.488 27.8104C33.6843 28.0027 33.8403 28.2323 33.9468 28.4857C34.0532 28.739 34.1081 29.0111 34.1081 29.2859C34.1081 29.5608 34.0532 29.8328 33.9468 30.0862C33.8403 30.3396 33.6843 30.5692 33.488 30.7615C33.2917 30.9538 33.059 31.1051 32.8035 31.2063C32.548 31.3076 32.2748 31.3569 32.0001 31.3512Z" fill="white"/>
<path d="M32.0027 32.1806C31.8881 32.1806 31.7781 32.135 31.697 32.0539C31.6159 31.9728 31.5703 31.8628 31.5703 31.7481V30.9222C31.5703 30.8075 31.6159 30.6975 31.697 30.6164C31.7781 30.5353 31.8881 30.4897 32.0027 30.4897C32.1174 30.4897 32.2274 30.5353 32.3085 30.6164C32.3896 30.6975 32.4352 30.8075 32.4352 30.9222V31.7481C32.4352 31.8628 32.3896 31.9728 32.3085 32.0539C32.2274 32.135 32.1174 32.1806 32.0027 32.1806Z" fill="white"/>
<path d="M32.0027 24.8213C31.8881 24.8213 31.7781 24.7757 31.697 24.6946C31.6159 24.6135 31.5703 24.5036 31.5703 24.3889V23.5582C31.5703 23.4435 31.6159 23.3335 31.697 23.2524C31.7781 23.1713 31.8881 23.1257 32.0027 23.1257C32.1174 23.1257 32.2274 23.1713 32.3085 23.2524C32.3896 23.3335 32.4352 23.4435 32.4352 23.5582V24.3889C32.4352 24.5036 32.3896 24.6135 32.3085 24.6946C32.2274 24.7757 32.1174 24.8213 32.0027 24.8213Z" fill="white"/>
</g>
<defs>
<clipPath id="clip0_4962_71230">
<rect width="32" height="32" fill="white" transform="translate(16 16)"/>
</clipPath>
</defs>
</svg>
