<svg width="16" height="16" viewBox="0 0 16 16" fill="none" xmlns="http://www.w3.org/2000/svg">
<path fill-rule="evenodd" clip-rule="evenodd" d="M8 14C6.48 14 4 8.20933 4 6C4 4.93913 4.42143 3.92172 5.17157 3.17157C5.92172 2.42143 6.93913 2 8 2C9.06087 2 10.0783 2.42143 10.8284 3.17157C11.5786 3.92172 12 4.93913 12 6C12 8.20933 9.52 14 8 14ZM8 8C8.25494 8 8.50738 7.94979 8.74292 7.85223C8.97845 7.75466 9.19246 7.61167 9.37273 7.4314C9.553 7.25113 9.696 7.03712 9.79356 6.80158C9.89112 6.56605 9.94133 6.31361 9.94133 6.05867C9.94133 5.80373 9.89112 5.55128 9.79356 5.31575C9.696 5.08022 9.553 4.86621 9.37273 4.68594C9.19246 4.50567 8.97845 4.36267 8.74292 4.26511C8.50738 4.16755 8.25494 4.11733 8 4.11733C7.48513 4.11733 6.99134 4.32187 6.62727 4.68594C6.2632 5.05001 6.05867 5.54379 6.05867 6.05867C6.05867 6.57354 6.2632 7.06733 6.62727 7.4314C6.99134 7.79547 7.48513 8 8 8Z" fill="#8777D9"/>
</svg>
