<svg width="64" height="64" viewBox="0 0 64 64" fill="none" xmlns="http://www.w3.org/2000/svg">
<circle cx="32" cy="32" r="32" fill="#0052CC"/>
<path d="M32.947 47.1437H31.6627C31.548 47.1437 31.438 47.0981 31.3569 47.017C31.2758 46.9359 31.2302 46.8259 31.2302 46.7112C31.2302 46.5966 31.2758 46.4866 31.3569 46.4055C31.438 46.3244 31.548 46.2788 31.6627 46.2788H32.947C33.0617 46.2788 33.1716 46.3244 33.2527 46.4055C33.3338 46.4866 33.3794 46.5966 33.3794 46.7112C33.3794 46.8259 33.3338 46.9359 33.2527 47.017C33.1716 47.0981 33.0617 47.1437 32.947 47.1437Z" fill="white"/>
<path d="M24.3546 47.144H18.6465C18.4034 47.1438 18.1704 47.0471 17.9985 46.8753C17.8266 46.7034 17.73 46.4703 17.7297 46.2273V22.1191C17.73 21.8761 17.8266 21.643 17.9985 21.4712C18.1704 21.2993 18.4034 21.2026 18.6465 21.2024H22.4778C22.5925 21.2024 22.7025 21.248 22.7836 21.329C22.8647 21.4101 22.9103 21.5201 22.9103 21.6348C22.9103 21.7495 22.8647 21.8595 22.7836 21.9406C22.7025 22.0217 22.5925 22.0673 22.4778 22.0673H18.6465C18.6397 22.0672 18.6329 22.0685 18.6266 22.0711C18.6202 22.0737 18.6145 22.0775 18.6097 22.0823C18.6048 22.0872 18.601 22.0929 18.5984 22.0992C18.5958 22.1055 18.5945 22.1123 18.5946 22.1191V46.2273C18.5945 46.2341 18.5958 46.2409 18.5984 46.2472C18.601 46.2535 18.6048 46.2593 18.6097 46.2641C18.6145 46.2689 18.6202 46.2727 18.6266 46.2753C18.6329 46.2779 18.6397 46.2792 18.6465 46.2791H24.3546C24.4693 46.2791 24.5793 46.3247 24.6604 46.4058C24.7415 46.4869 24.787 46.5969 24.787 46.7116C24.787 46.8263 24.7415 46.9363 24.6604 47.0174C24.5793 47.0985 24.4693 47.144 24.3546 47.144Z" fill="white"/>
<path d="M28.6357 47.1437H27.3816C27.267 47.1437 27.157 47.0981 27.0759 47.017C26.9948 46.9359 26.9492 46.8259 26.9492 46.7112C26.9492 46.5966 26.9948 46.4866 27.0759 46.4055C27.157 46.3244 27.267 46.2788 27.3816 46.2788H28.6357C28.7504 46.2788 28.8604 46.3244 28.9415 46.4055C29.0226 46.4866 29.0681 46.5966 29.0681 46.7112C29.0681 46.8259 29.0226 46.9359 28.9415 47.017C28.8604 47.0981 28.7504 47.1437 28.6357 47.1437Z" fill="white"/>
<path d="M37.5697 47.144H35.974C35.8593 47.144 35.7493 47.0985 35.6682 47.0174C35.5871 46.9363 35.5416 46.8263 35.5416 46.7116C35.5416 46.5969 35.5871 46.4869 35.6682 46.4058C35.7493 46.3247 35.8593 46.2791 35.974 46.2791H37.5697C37.5765 46.2792 37.5833 46.2779 37.5896 46.2753C37.5959 46.2727 37.6017 46.2689 37.6065 46.2641C37.6113 46.2593 37.6152 46.2535 37.6178 46.2472C37.6203 46.2409 37.6216 46.2341 37.6216 46.2273V22.1191C37.6216 22.1123 37.6203 22.1055 37.6178 22.0992C37.6152 22.0929 37.6113 22.0872 37.6065 22.0823C37.6017 22.0775 37.5959 22.0737 37.5896 22.0711C37.5833 22.0685 37.5765 22.0672 37.5697 22.0673H33.7383C33.6237 22.0673 33.5137 22.0217 33.4326 21.9406C33.3515 21.8595 33.3059 21.7495 33.3059 21.6348C33.3059 21.5201 33.3515 21.4101 33.4326 21.329C33.5137 21.248 33.6237 21.2024 33.7383 21.2024H37.5697C37.8128 21.2026 38.0458 21.2993 38.2177 21.4712C38.3896 21.643 38.4862 21.8761 38.4865 22.1191V46.2273C38.4862 46.4703 38.3896 46.7034 38.2177 46.8753C38.0458 47.0471 37.8128 47.1438 37.5697 47.144Z" fill="white"/>
<path d="M33.7384 23.3623H22.4778C22.3632 23.3623 22.2532 23.3167 22.1721 23.2356C22.091 23.1545 22.0454 23.0445 22.0454 22.9298V20.3569C22.0454 20.2422 22.091 20.1322 22.1721 20.0511C22.2532 19.97 22.3632 19.9244 22.4778 19.9244H24.8216C24.8804 19.0933 25.2521 18.3153 25.8617 17.7473C26.4713 17.1793 27.2736 16.8635 28.1068 16.8635C28.94 16.8635 29.7423 17.1793 30.3519 17.7473C30.9615 18.3153 31.3332 19.0933 31.392 19.9244H33.7384C33.8531 19.9244 33.9631 19.97 34.0442 20.0511C34.1253 20.1322 34.1708 20.2422 34.1708 20.3569V22.9298C34.1708 23.0445 34.1253 23.1545 34.0442 23.2356C33.9631 23.3167 33.8531 23.3623 33.7384 23.3623ZM22.9103 22.4974H33.306V20.7893H30.9665C30.8518 20.7893 30.7418 20.7437 30.6607 20.6627C30.5796 20.5816 30.5341 20.4716 30.5341 20.3569V20.1536C30.5341 19.5097 30.2782 18.8921 29.8229 18.4367C29.3675 17.9813 28.7499 17.7255 28.106 17.7255C27.462 17.7255 26.8444 17.9813 26.389 18.4367C25.9337 18.8921 25.6778 19.5097 25.6778 20.1536V20.3569C25.6778 20.4716 25.6323 20.5816 25.5512 20.6627C25.4701 20.7437 25.3601 20.7893 25.2454 20.7893H22.9103V22.4974Z" fill="white"/>
<path d="M35.4754 28.7643H26.8267C26.712 28.7643 26.602 28.7187 26.5209 28.6376C26.4398 28.5565 26.3943 28.4465 26.3943 28.3318C26.3943 28.2172 26.4398 28.1072 26.5209 28.0261C26.602 27.945 26.712 27.8994 26.8267 27.8994H35.4754C35.5901 27.8994 35.7001 27.945 35.7812 28.0261C35.8623 28.1072 35.9078 28.2172 35.9078 28.3318C35.9078 28.4465 35.8623 28.5565 35.7812 28.6376C35.7001 28.7187 35.5901 28.7643 35.4754 28.7643Z" fill="white"/>
<path d="M35.4754 33.306H26.8267C26.712 33.306 26.602 33.2605 26.5209 33.1794C26.4398 33.0983 26.3943 32.9883 26.3943 32.8736C26.3943 32.7589 26.4398 32.6489 26.5209 32.5678C26.602 32.4867 26.712 32.4412 26.8267 32.4412H35.4754C35.5901 32.4412 35.7001 32.4867 35.7812 32.5678C35.8623 32.6489 35.9078 32.7589 35.9078 32.8736C35.9078 32.9883 35.8623 33.0983 35.7812 33.1794C35.7001 33.2605 35.5901 33.306 35.4754 33.306Z" fill="white"/>
<path d="M35.4754 37.8473H26.8267C26.712 37.8473 26.602 37.8017 26.5209 37.7206C26.4398 37.6395 26.3943 37.5295 26.3943 37.4149C26.3943 37.3002 26.4398 37.1902 26.5209 37.1091C26.602 37.028 26.712 36.9824 26.8267 36.9824H35.4754C35.5901 36.9824 35.7001 37.028 35.7812 37.1091C35.8623 37.1902 35.9078 37.3002 35.9078 37.4149C35.9078 37.5295 35.8623 37.6395 35.7812 37.7206C35.7001 37.8017 35.5901 37.8473 35.4754 37.8473Z" fill="white"/>
<path d="M35.4754 42.3893H26.8267C26.712 42.3893 26.602 42.3437 26.5209 42.2626C26.4398 42.1815 26.3943 42.0715 26.3943 41.9569C26.3943 41.8422 26.4398 41.7322 26.5209 41.6511C26.602 41.57 26.712 41.5244 26.8267 41.5244H35.4754C35.5901 41.5244 35.7001 41.57 35.7812 41.6511C35.8623 41.7322 35.9078 41.8422 35.9078 41.9569C35.9078 42.0715 35.8623 42.1815 35.7812 42.2626C35.7001 42.3437 35.5901 42.3893 35.4754 42.3893Z" fill="white"/>
<path d="M21.6739 29.9723C21.5592 29.9723 21.4493 29.9267 21.3682 29.8456L20.435 28.9124C20.3937 28.8725 20.3607 28.8248 20.3381 28.772C20.3154 28.7193 20.3035 28.6625 20.303 28.6051C20.3025 28.5477 20.3134 28.4908 20.3352 28.4376C20.3569 28.3845 20.389 28.3362 20.4296 28.2956C20.4702 28.255 20.5185 28.2229 20.5717 28.2011C20.6248 28.1794 20.6817 28.1684 20.7392 28.1689C20.7966 28.1694 20.8533 28.1814 20.9061 28.204C20.9588 28.2267 21.0066 28.2596 21.0465 28.3009L21.6739 28.928L23.8015 26.8008C23.883 26.7221 23.9923 26.6785 24.1056 26.6795C24.219 26.6804 24.3275 26.7259 24.4077 26.8061C24.4878 26.8863 24.5333 26.9947 24.5343 27.1081C24.5353 27.2215 24.4917 27.3307 24.4129 27.4123L21.9796 29.8456C21.8986 29.9267 21.7886 29.9723 21.6739 29.9723Z" fill="white"/>
<path d="M21.6739 34.6637C21.5592 34.6637 21.4492 34.6181 21.3682 34.537L20.435 33.6038C20.3623 33.5212 20.3238 33.414 20.3274 33.304C20.331 33.194 20.3764 33.0895 20.4543 33.0118C20.5323 32.9341 20.637 32.8891 20.747 32.8859C20.857 32.8827 20.9641 32.9215 21.0464 32.9945L21.6739 33.622L23.8015 31.4944C23.883 31.4157 23.9922 31.3721 24.1056 31.3731C24.219 31.374 24.3275 31.4195 24.4076 31.4997C24.4878 31.5799 24.5333 31.6883 24.5343 31.8017C24.5353 31.9151 24.4917 32.0243 24.4129 32.1059L21.9796 34.5392C21.8982 34.6195 21.7883 34.6643 21.6739 34.6637Z" fill="white"/>
<path d="M21.674 38.923C21.6172 38.9232 21.5609 38.912 21.5085 38.8903C21.456 38.8685 21.4083 38.8366 21.3683 38.7963L20.4351 37.8631C20.3563 37.7816 20.3128 37.6723 20.3137 37.5589C20.3147 37.4456 20.3602 37.3371 20.4404 37.2569C20.5206 37.1767 20.629 37.1313 20.7424 37.1303C20.8558 37.1293 20.965 37.1729 21.0466 37.2517L21.674 37.8813L23.8016 35.7537C23.8831 35.6749 23.9924 35.6314 24.1058 35.6323C24.2191 35.6333 24.3276 35.6788 24.4078 35.759C24.488 35.8392 24.5334 35.9476 24.5344 36.061C24.5354 36.1744 24.4918 36.2836 24.413 36.3652L21.9798 38.7985C21.9395 38.8384 21.8918 38.8699 21.8393 38.8913C21.7869 38.9127 21.7307 38.9234 21.674 38.923Z" fill="white"/>
<path d="M21.674 43.6142C21.6172 43.6144 21.5609 43.6032 21.5085 43.5815C21.456 43.5597 21.4083 43.5278 21.3683 43.4875L20.4351 42.5547C20.3563 42.4732 20.3128 42.3639 20.3137 42.2506C20.3147 42.1372 20.3602 42.0287 20.4404 41.9485C20.5206 41.8684 20.629 41.8229 20.7424 41.8219C20.8558 41.8209 20.965 41.8645 21.0466 41.9433L21.674 42.5703L23.8016 40.4432C23.8831 40.3644 23.9924 40.3208 24.1058 40.3218C24.2191 40.3228 24.3276 40.3683 24.4078 40.4484C24.488 40.5286 24.5334 40.6371 24.5344 40.7505C24.5354 40.8638 24.4918 40.9731 24.413 41.0546L21.9798 43.4875C21.9397 43.5278 21.8921 43.5597 21.8396 43.5815C21.7871 43.6032 21.7308 43.6144 21.674 43.6142Z" fill="white"/>
<path d="M45.838 42.4176H41.063C40.9484 42.4176 40.8384 42.3721 40.7573 42.291C40.6762 42.2099 40.6306 42.0999 40.6306 41.9852V26.4825C40.6308 26.2275 40.7322 25.983 40.9126 25.8027C41.0929 25.6224 41.3373 25.521 41.5923 25.5208H45.3087C45.5637 25.521 45.8082 25.6224 45.9885 25.8027C46.1688 25.983 46.2702 26.2275 46.2704 26.4825V41.9852C46.2704 42.0999 46.2248 42.2099 46.1437 42.291C46.0626 42.3721 45.9527 42.4176 45.838 42.4176ZM41.4955 41.5528H45.4055V26.4825C45.4055 26.4568 45.3953 26.4322 45.3772 26.414C45.359 26.3958 45.3344 26.3856 45.3087 26.3856H41.5923C41.5667 26.3856 41.542 26.3958 41.5239 26.414C41.5057 26.4322 41.4955 26.4568 41.4955 26.4825V41.5528Z" fill="white"/>
<path d="M43.4505 47.1461C43.3705 47.146 43.2921 47.1238 43.224 47.0819C43.1559 47.04 43.1008 46.98 43.0647 46.9086L40.6768 42.1804C40.6435 42.1145 40.6277 42.0411 40.6308 41.9673C40.6338 41.8935 40.6558 41.8217 40.6945 41.7588C40.7333 41.6958 40.7875 41.6439 40.852 41.6079C40.9165 41.5718 40.9891 41.5529 41.063 41.553H45.8379C45.9118 41.5529 45.9845 41.5718 46.049 41.6079C46.1135 41.6439 46.1677 41.6958 46.2064 41.7588C46.2451 41.8217 46.2671 41.8935 46.2702 41.9673C46.2733 42.0411 46.2574 42.1145 46.2241 42.1804L43.8366 46.9086C43.8005 46.9801 43.7453 47.0401 43.6772 47.082C43.609 47.1239 43.5305 47.1461 43.4505 47.1461ZM41.764 42.4178L43.4505 45.7545L45.137 42.4178H41.764Z" fill="white"/>
<path d="M45.838 30.8004H41.063C40.9484 30.8004 40.8384 30.7548 40.7573 30.6737C40.6762 30.5927 40.6306 30.4827 40.6306 30.368C40.6306 30.2533 40.6762 30.1433 40.7573 30.0622C40.8384 29.9811 40.9484 29.9355 41.063 29.9355H45.838C45.9527 29.9355 46.0626 29.9811 46.1437 30.0622C46.2248 30.1433 46.2704 30.2533 46.2704 30.368C46.2704 30.4827 46.2248 30.5927 46.1437 30.6737C46.0626 30.7548 45.9527 30.8004 45.838 30.8004Z" fill="white"/>
<path d="M43.4505 42.4177C43.3358 42.4177 43.2258 42.3721 43.1447 42.291C43.0636 42.2099 43.0181 42.0999 43.0181 41.9853V30.368C43.0181 30.2533 43.0636 30.1433 43.1447 30.0622C43.2258 29.9811 43.3358 29.9355 43.4505 29.9355C43.5652 29.9355 43.6752 29.9811 43.7563 30.0622C43.8374 30.1433 43.8829 30.2533 43.8829 30.368V41.9853C43.8829 42.0999 43.8374 42.2099 43.7563 42.291C43.6752 42.3721 43.5652 42.4177 43.4505 42.4177Z" fill="white"/>
</svg>
