<svg width="32" height="32" viewBox="0 0 32 32" fill="none" xmlns="http://www.w3.org/2000/svg">
<path d="M32 0H0V32H32V0Z" fill="#0052CC"/>
<path d="M25.5213 13.1817C25.5213 12.168 25.381 11.2428 25.1003 10.4063C24.8196 9.57063 24.4119 8.85398 23.8763 8.25808C23.3407 7.66217 22.6946 7.19569 21.9381 6.85691C21.1816 6.519 20.3354 6.34961 19.4004 6.34961C18.4819 6.34961 17.6357 6.51379 16.8626 6.84302C16.195 7.12707 15.6137 7.50407 15.1171 7.97315L14.3697 11.7623L13.2943 11.3253C13.2005 11.7849 13.1515 12.2609 13.1515 12.7534C13.1515 13.7672 13.3176 14.6697 13.6489 15.4619C13.9802 16.2533 14.4312 16.9291 15.0008 17.4894C15.5705 18.0497 16.234 18.4771 16.9905 18.7698C17.747 19.0634 18.5508 19.2102 19.4012 19.2102C20.558 19.2102 21.6333 18.9436 22.6282 18.4102C23.623 17.8768 24.3754 17.0846 24.8852 16.0353L22.4364 14.7809C22.0286 15.4567 21.5819 15.9241 21.0969 16.1821C20.6119 16.4401 20.1062 16.5686 19.5789 16.5686C18.8307 16.5686 18.1888 16.2976 17.6532 15.7547C17.1175 15.2118 16.8153 14.5142 16.748 13.6603H25.5222V13.1817H25.5213ZM16.7721 11.4739C16.8908 10.7268 17.1798 10.1396 17.639 9.7131C18.0983 9.28658 18.6762 9.07289 19.3738 9.07289C19.9692 9.07289 20.5048 9.25965 20.9806 9.63318C21.4565 10.0067 21.7629 10.6209 21.8991 11.4739H16.7721Z" fill="white"/>
<path d="M13.1197 9.81971C12.805 9.74848 12.5284 9.71287 12.2909 9.71287C11.5087 9.71287 10.9432 9.99779 10.5944 10.5668C10.2456 11.1357 10.0713 11.8741 10.0713 12.781V18.9181H6.47473V6.64386H9.84123L9.91763 8.1649H9.96828C10.4449 7.54206 10.9507 7.08428 11.4863 6.79067C12.0219 6.49706 12.5617 6.35025 13.1056 6.35025C13.412 6.35025 13.6968 6.38587 13.9601 6.4571C14.2233 6.52833 14.4741 6.62649 14.7124 6.75071L14.0489 10.1125C13.7442 9.98823 13.4344 9.89007 13.1197 9.81971Z" fill="white"/>
<path d="M25.6469 25.6484V22.2589L6.34969 22.2589V25.6484L25.6469 25.6484Z" fill="white"/>
</svg>
