<svg width="144" height="24" viewBox="0 0 144 24" fill="none" xmlns="http://www.w3.org/2000/svg">
<g clip-path="url(#clip0_4962_71192)">
<path d="M99.6434 15.7341C100.126 15.4874 100.57 15.0419 100.978 14.3952L103.418 15.593C102.91 16.5952 102.16 17.3519 101.169 17.8619C100.177 18.3719 99.1061 18.6263 97.9541 18.6263C97.1067 18.6263 96.3059 18.4863 95.5526 18.2052C94.7983 17.9252 94.1381 17.5163 93.5699 16.9819C93.0016 16.4474 92.553 15.8008 92.2229 15.0441C91.8928 14.2874 91.7278 13.4252 91.7278 12.4563C91.7278 11.6063 91.8806 10.8074 92.1853 10.0596C92.4899 9.31186 92.9141 8.66186 93.4558 8.10964C93.9986 7.55742 94.6543 7.12409 95.4253 6.80964C96.1962 6.4952 97.0392 6.33853 97.9541 6.33853C98.8857 6.33853 99.7286 6.49964 100.483 6.82297C101.237 7.14631 101.881 7.59187 102.415 8.16187C102.949 8.73187 103.355 9.4152 103.634 10.2141C103.914 11.013 104.054 11.8963 104.054 12.8652V13.3241H95.3112C95.3787 14.1396 95.68 14.8074 96.2139 15.3252C96.7478 15.8441 97.387 16.103 98.1325 16.103C98.6564 16.1041 99.1604 15.9808 99.6434 15.7341ZM96.1995 9.55186C95.7421 9.95964 95.4541 10.5208 95.3355 11.2341H100.444C100.309 10.4185 100.003 9.83187 99.5293 9.4752C99.0552 9.11854 98.5213 8.93965 97.9286 8.93965C97.233 8.94076 96.657 9.14409 96.1995 9.55186Z" fill="#0052CC"/>
<path d="M105.12 9.8839C105.408 9.11946 105.794 8.47279 106.277 7.94613C106.76 7.41946 107.327 7.01946 107.979 6.74835C108.632 6.47612 109.331 6.34057 110.076 6.34057C110.788 6.34057 111.449 6.48057 112.059 6.76168C112.669 7.04168 113.194 7.42057 113.634 7.89612L113.685 7.87057V0.069458H117.243V18.3483H113.913L113.811 17.0739L113.76 17.0483C113.37 17.4728 112.862 17.8428 112.235 18.1572C111.608 18.4717 110.914 18.6283 110.151 18.6283C109.423 18.6283 108.728 18.4961 108.068 18.2328C107.407 17.9695 106.827 17.5739 106.327 17.0472C105.827 16.5206 105.428 15.8783 105.133 15.1228C104.836 14.3661 104.687 13.4872 104.687 12.4839C104.688 11.515 104.832 10.6483 105.12 9.8839ZM109.047 14.9317C109.547 15.5439 110.204 15.8495 111.017 15.8495C111.83 15.8495 112.478 15.5395 112.961 14.9195C113.444 14.2995 113.685 13.4795 113.685 12.4595C113.685 11.4395 113.435 10.6283 112.935 10.025C112.436 9.42168 111.795 9.12057 111.017 9.12057C110.153 9.12057 109.484 9.43057 109.008 10.0506C108.534 10.6706 108.297 11.4739 108.297 12.4595C108.297 13.495 108.548 14.3195 109.047 14.9317Z" fill="#0052CC"/>
<path d="M125.515 20.9863C125.88 20.8074 126.172 20.5619 126.393 20.2474C126.613 19.933 126.769 19.5674 126.862 19.1508C126.955 18.7341 127.002 18.2885 127.002 17.8119V17.2252C126.985 17.2252 126.972 17.2208 126.964 17.2119C126.957 17.203 126.943 17.1996 126.927 17.1996C126.554 17.573 126.071 17.9052 125.478 18.1941C124.885 18.483 124.224 18.6274 123.495 18.6274C122.75 18.6274 122.046 18.4952 121.386 18.2319C120.725 17.9685 120.149 17.5819 119.658 17.0719C119.166 16.5619 118.773 15.9252 118.476 15.1596C118.179 14.3952 118.031 13.5108 118.031 12.5085C118.031 11.5396 118.17 10.6774 118.451 9.92075C118.73 9.16409 119.112 8.51853 119.594 7.98297C120.076 7.44742 120.636 7.03965 121.271 6.75965C121.907 6.47965 122.58 6.33853 123.291 6.33853C124.121 6.33853 124.845 6.49187 125.464 6.79742C126.083 7.10298 126.63 7.51076 127.104 8.02076H127.155L127.231 6.61853H130.561V16.7652C130.561 17.4785 130.544 18.0396 130.51 18.4474C130.476 18.8552 130.4 19.2719 130.282 19.6963C129.926 21.0052 129.24 22.0374 128.224 22.7941C127.207 23.5508 125.927 23.9285 124.386 23.9285C123.674 23.9285 123.03 23.8608 122.454 23.7241C121.878 23.5885 121.357 23.4141 120.891 23.2019C120.424 22.9896 120.014 22.7474 119.658 22.4752C119.302 22.203 118.997 21.9396 118.743 21.6852L120.471 19.5696C120.979 20.113 121.572 20.5296 122.25 20.8185C122.928 21.1074 123.563 21.2519 124.156 21.2519C124.698 21.2541 125.151 21.1641 125.515 20.9863ZM122.364 14.9441C122.864 15.5474 123.52 15.8485 124.334 15.8485C125.147 15.8485 125.795 15.5385 126.278 14.9185C126.76 14.2985 127.002 13.4785 127.002 12.4585C127.002 11.4385 126.752 10.6274 126.252 10.0241C125.752 9.42075 125.112 9.11965 124.334 9.11965C123.47 9.11965 122.8 9.43409 122.325 10.063C121.851 10.6919 121.613 11.4996 121.613 12.4852C121.614 13.5208 121.863 14.3408 122.364 14.9441Z" fill="#0052CC"/>
<path d="M139.163 15.7341C139.646 15.4874 140.09 15.0419 140.497 14.3952L142.938 15.593C142.429 16.5952 141.679 17.3519 140.688 17.8619C139.697 18.3719 138.625 18.6263 137.473 18.6263C136.626 18.6263 135.825 18.4863 135.072 18.2052C134.318 17.9252 133.657 17.5163 133.089 16.9819C132.522 16.4463 132.072 15.8008 131.742 15.0441C131.412 14.2874 131.247 13.4252 131.247 12.4563C131.247 11.6063 131.4 10.8074 131.705 10.0596C132.009 9.31186 132.433 8.66186 132.975 8.10964C133.518 7.55742 134.174 7.12409 134.945 6.80964C135.715 6.4952 136.558 6.33853 137.473 6.33853C138.405 6.33853 139.248 6.49964 140.002 6.82297C140.757 7.14631 141.4 7.59187 141.934 8.16187C142.468 8.73187 142.875 9.4152 143.154 10.2141C143.433 11.013 143.573 11.8963 143.573 12.8652V13.3241H134.83C134.898 14.1396 135.199 14.8074 135.733 15.3252C136.267 15.8441 136.906 16.103 137.652 16.103C138.176 16.1041 138.68 15.9808 139.163 15.7341ZM135.72 9.55186C135.262 9.95964 134.974 10.5208 134.856 11.2341H139.965C139.829 10.4185 139.524 9.83187 139.05 9.4752C138.576 9.11854 138.042 8.93965 137.449 8.93965C136.753 8.94076 136.176 9.14409 135.72 9.55186Z" fill="#0052CC"/>
<path d="M28.7908 16.2603C28.5781 16.7136 28.258 17.1158 27.8315 17.4658C27.4051 17.8158 26.8767 18.0992 26.2453 18.3125C25.6139 18.5258 24.8895 18.6336 24.0709 18.6336C23.4739 18.6336 22.9156 18.5736 22.395 18.4536C21.8744 18.3336 21.397 18.1803 20.9627 17.9914C20.5274 17.8036 20.1442 17.5936 19.8119 17.3625C19.4795 17.1314 19.2026 16.8958 18.98 16.6569L20.6936 14.5269C21.171 15.0225 21.7038 15.4125 22.292 15.6947C22.8802 15.9769 23.4728 16.1181 24.0698 16.1181C24.5639 16.1181 24.9438 16.0158 25.2085 15.8103C25.4733 15.6047 25.6051 15.3658 25.6051 15.0914C25.6051 14.7325 25.4002 14.4581 24.9914 14.2703C24.8042 14.1681 24.5949 14.0825 24.3645 14.0136C24.1341 13.9447 23.8992 13.8681 23.6611 13.7825L22.868 13.5514C22.5102 13.4492 22.2067 13.3458 21.9597 13.2436C21.7127 13.1414 21.4778 13.0303 21.2563 12.9103C20.6083 12.5681 20.1397 12.1792 19.8495 11.7425C19.5593 11.3058 19.4142 10.7292 19.4142 10.0103C19.4142 9.54806 19.5205 9.09472 19.7343 8.65028C19.947 8.20583 20.2583 7.80361 20.6681 7.44472C21.0779 7.08583 21.5808 6.79917 22.1768 6.58472C22.7738 6.37139 23.4639 6.26361 24.2493 6.26361C24.8629 6.26361 25.409 6.32361 25.8864 6.44361C26.3639 6.56361 26.7859 6.70917 27.1525 6.88028C27.5192 7.05139 27.8393 7.24361 28.1118 7.45806C28.3843 7.67139 28.6235 7.86472 28.8285 8.03583L27.1149 10.0625C26.7737 9.72028 26.3395 9.42139 25.81 9.16472C25.2816 8.90805 24.7444 8.78028 24.1983 8.78028C23.7896 8.78028 23.4484 8.87028 23.1748 9.04917C22.9023 9.22917 22.765 9.46361 22.765 9.75472C22.765 9.97694 22.8547 10.1614 23.033 10.3069C23.2125 10.4525 23.4207 10.5681 23.66 10.6536C23.8815 10.7392 24.1075 10.8203 24.3379 10.8969C24.5683 10.9736 24.8286 11.0547 25.1177 11.1403L25.9363 11.3969C26.3794 11.5336 26.8235 11.7181 27.2666 11.9492C27.7097 12.1803 28.0941 12.4747 28.4175 12.8347C28.8783 13.3481 29.1087 14.0325 29.1087 14.8869C29.1109 15.3492 29.0035 15.8069 28.7908 16.2603Z" fill="#0052CC"/>
<path d="M29.6227 9.96042C29.9295 9.2082 30.3648 8.55819 30.9275 8.01041C31.4902 7.46264 32.1681 7.03486 32.9612 6.72708C33.7544 6.4193 34.6283 6.26486 35.5832 6.26486C36.538 6.26486 37.4075 6.4193 38.1929 6.72708C38.9771 7.03486 39.6506 7.46264 40.2133 8.01041C40.776 8.55819 41.2113 9.2082 41.5182 9.96042C41.825 10.7126 41.979 11.5337 41.979 12.4237C41.979 13.3137 41.825 14.1382 41.5182 14.8993C41.2113 15.6604 40.776 16.3149 40.2133 16.8626C39.6506 17.4104 38.9771 17.8415 38.1929 18.1582C37.4086 18.4749 36.5391 18.6326 35.5832 18.6326C34.6283 18.6326 33.7544 18.4749 32.9612 18.1582C32.1681 17.8415 31.4902 17.4093 30.9275 16.8626C30.3648 16.3149 29.9295 15.6604 29.6227 14.8993C29.3158 14.1382 29.1619 13.3126 29.1619 12.4237C29.1619 11.5337 29.3147 10.7126 29.6227 9.96042ZM37.6291 14.8737C38.1231 14.2326 38.3712 13.416 38.3712 12.4237C38.3712 11.4315 38.1242 10.6237 37.6291 9.9993C37.135 9.37486 36.4527 9.06264 35.5832 9.06264C34.7136 9.06264 34.0268 9.37486 33.524 9.9993C33.0211 10.6237 32.7696 11.4315 32.7696 12.4237C32.7696 13.416 33.0211 14.2326 33.524 14.8737C34.0268 15.5149 34.7136 15.836 35.5832 15.836C36.4516 15.836 37.1339 15.5149 37.6291 14.8737Z" fill="#0052CC"/>
<path d="M44.049 17.3115C43.0765 16.4304 42.5913 15.126 42.5913 13.3982V6.54706H46.198V13.5515C46.198 14.3215 46.373 14.8948 46.7219 15.2704C47.0708 15.6459 47.5538 15.8348 48.1674 15.8348C48.7468 15.8348 49.2286 15.6593 49.613 15.3093C49.9973 14.9593 50.189 14.3726 50.189 13.5515V6.54706H53.7956V13.3726C53.7956 14.2959 53.6383 15.0915 53.3226 15.7593C53.0069 16.426 52.5938 16.9737 52.082 17.4015C51.5703 17.8293 50.9865 18.1415 50.3296 18.3382C49.6728 18.5348 49.0037 18.6337 48.3214 18.6337C46.445 18.6326 45.0216 18.1926 44.049 17.3115Z" fill="#0052CC"/>
<path d="M61.1754 9.60041C60.8597 9.53152 60.5827 9.49819 60.3435 9.49819C59.5592 9.49819 58.9921 9.77153 58.6421 10.3193C58.292 10.8671 58.1181 11.5771 58.1181 12.4493V18.3504H54.5115V6.54708H57.8877L57.9642 8.00931H58.0151C58.4925 7.41042 58.9998 6.97042 59.5371 6.6882C60.0743 6.40597 60.616 6.26486 61.161 6.26486C61.4678 6.26486 61.7536 6.2993 62.0183 6.36708C62.283 6.43597 62.5345 6.5293 62.7726 6.6493L62.108 9.88264C61.8023 9.76375 61.491 9.6693 61.1754 9.60041Z" fill="#0052CC"/>
<path d="M66.0226 13.9119C66.1766 14.3397 66.3759 14.6941 66.6241 14.9763C66.8711 15.2586 67.1613 15.4719 67.4936 15.6174C67.8259 15.763 68.1715 15.8352 68.5293 15.8352C69.1086 15.8352 69.5827 15.7108 69.9494 15.463C70.316 15.2152 70.6959 14.783 71.0881 14.1674L73.5948 15.6297C73.0155 16.6052 72.2777 17.3486 71.3816 17.8619C70.4866 18.3752 69.493 18.6319 68.4019 18.6319C67.5833 18.6319 66.7991 18.4863 66.0481 18.1952C65.2982 17.9041 64.6369 17.4897 64.0653 16.9508C63.4937 16.4119 63.0374 15.7619 62.6973 15.0008C62.3561 14.2397 62.1855 13.3797 62.1855 12.4219C62.1855 11.4641 62.3561 10.6041 62.6973 9.843C63.0385 9.08189 63.4948 8.43634 64.0653 7.90523C64.6369 7.37523 65.2971 6.96856 66.0481 6.68633C66.798 6.40411 67.5833 6.263 68.4019 6.263C69.493 6.263 70.4866 6.51967 71.3816 7.033C72.2766 7.54633 73.0143 8.29078 73.5948 9.26522L71.0881 10.7274C70.8665 10.3508 70.5553 9.97856 70.1543 9.61078C69.7533 9.243 69.2116 9.05967 68.5304 9.05967C67.7118 9.05967 67.0505 9.37189 66.5476 9.99633C66.0447 10.6208 65.7933 11.4286 65.7933 12.4208C65.7922 12.9886 65.8686 13.4841 66.0226 13.9119Z" fill="#0052CC"/>
<path d="M81.307 15.7204C81.7933 15.4726 82.2408 15.0237 82.6495 14.3737L85.1053 15.5793C84.5935 16.5882 83.8392 17.3493 82.8411 17.8626C81.8431 18.376 80.7653 18.6326 79.6056 18.6326C78.7526 18.6326 77.9474 18.4915 77.1886 18.2093C76.4298 17.9271 75.7641 17.5171 75.1936 16.9782C74.6232 16.4393 74.1701 15.7893 73.8378 15.0282C73.5055 14.2671 73.3394 13.3993 73.3394 12.4237C73.3394 11.5682 73.4933 10.7649 73.8002 10.0115C74.107 9.2593 74.5334 8.60486 75.0795 8.04819C75.6256 7.49264 76.2858 7.05597 77.0623 6.7393C77.8377 6.42264 78.6862 6.26486 79.6078 6.26486C80.546 6.26486 81.3945 6.42709 82.1533 6.75264C82.912 7.07709 83.56 7.52709 84.0973 8.09931C84.6345 8.67264 85.0432 9.36041 85.3246 10.1649C85.6059 10.9693 85.7466 11.8582 85.7466 12.8338V13.296H76.9471C77.0158 14.1171 77.3182 14.7882 77.8554 15.3104C78.3926 15.8326 79.0362 16.0926 79.7872 16.0926C80.3134 16.0926 80.8218 15.9682 81.307 15.7204ZM77.841 9.49819C77.3802 9.90819 77.0911 10.4737 76.9715 11.1915H82.1134C81.9771 10.3704 81.6703 9.78041 81.1929 9.42153C80.7155 9.06264 80.1782 8.88264 79.5812 8.88264C78.8811 8.88264 78.3018 9.08819 77.841 9.49819Z" fill="#0052CC"/>
<path d="M19.1098 12.8313C19.1098 11.8568 18.9692 10.9679 18.6878 10.1635C18.4065 9.36014 17.9977 8.67126 17.4605 8.09903C16.9233 7.5257 16.2764 7.07792 15.5176 6.75237C14.7588 6.42792 13.9114 6.26459 12.9732 6.26459C12.0527 6.26459 11.2042 6.42237 10.4289 6.73903C9.75981 7.01237 9.17717 7.37459 8.67871 7.8257L7.9299 11.4679L6.85212 11.0479C6.75796 11.4901 6.70923 11.9468 6.70923 12.4201C6.70923 13.3946 6.87538 14.2624 7.20769 15.0235C7.54 15.7846 7.99193 16.4346 8.5624 16.9724C9.13396 17.5113 9.79858 17.9213 10.5562 18.2035C11.315 18.4857 12.1203 18.6268 12.9721 18.6268C14.1308 18.6268 15.2097 18.3701 16.2066 17.8579C17.2035 17.3446 17.9578 16.5846 18.4696 15.5757L16.0149 14.3701C15.6062 15.0201 15.1587 15.469 14.6724 15.7168C14.1861 15.9646 13.6799 16.089 13.1516 16.089C12.4017 16.089 11.7581 15.8279 11.2209 15.3068C10.6836 14.7857 10.3812 14.1146 10.3137 13.2935H19.1087V12.8313H19.1098ZM10.3402 11.1901C10.4599 10.4724 10.749 9.90792 11.2098 9.49792C11.6695 9.08792 12.2499 8.88236 12.9489 8.88236C13.5459 8.88236 14.082 9.06236 14.5594 9.42125C15.0369 9.78014 15.3437 10.3701 15.4799 11.1912H10.3402V11.1901Z" fill="#0052CC"/>
<path d="M6.67935 9.60019C6.36366 9.5313 6.08674 9.49797 5.84858 9.49797C5.06434 9.49797 4.4972 9.7713 4.14828 10.3191C3.79935 10.8657 3.62434 11.5757 3.62434 12.448V18.3469H0.0187988V6.54797H3.39394L3.47037 8.01019H3.52132C3.99874 7.4113 4.50606 6.9713 5.04329 6.68908C5.58052 6.40686 6.12108 6.26575 6.66717 6.26575C6.974 6.26575 7.25978 6.30019 7.52342 6.36797C7.78705 6.43686 8.03849 6.53019 8.27775 6.65019L7.61314 9.8813C7.3052 9.76241 6.99394 9.66908 6.67935 9.60019Z" fill="#0052CC"/>
</g>
<defs>
<clipPath id="clip0_4962_71192">
<rect width="144" height="24" fill="white"/>
</clipPath>
</defs>
</svg>
