<svg width="40" height="40" viewBox="0 0 40 40" fill="none" xmlns="http://www.w3.org/2000/svg">
<rect width="40" height="40" rx="8" fill="currentColor"/>
<path d="M30 18.9V12.1C30 10.6 29.36 10 27.77 10H23.73C22.14 10 21.5 10.6 21.5 12.1V18.9C21.5 20.4 22.14 21 23.73 21H27.77C29.36 21 30 20.4 30 18.9Z" stroke="white" stroke-width="1.5" stroke-linecap="round" stroke-linejoin="round"/>
<path opacity="0.4" d="M30 27.9V26.1C30 24.6 29.36 24 27.77 24H23.73C22.14 24 21.5 24.6 21.5 26.1V27.9C21.5 29.4 22.14 30 23.73 30H27.77C29.36 30 30 29.4 30 27.9Z" stroke="white" stroke-width="1.5" stroke-linecap="round" stroke-linejoin="round"/>
<path d="M18.5 21.1V27.9C18.5 29.4 17.86 30 16.27 30H12.23C10.64 30 10 29.4 10 27.9V21.1C10 19.6 10.64 19 12.23 19H16.27C17.86 19 18.5 19.6 18.5 21.1Z" stroke="white" stroke-width="1.5" stroke-linecap="round" stroke-linejoin="round"/>
<path opacity="0.4" d="M18.5 12.1V13.9C18.5 15.4 17.86 16 16.27 16H12.23C10.64 16 10 15.4 10 13.9V12.1C10 10.6 10.64 10 12.23 10H16.27C17.86 10 18.5 10.6 18.5 12.1Z" stroke="white" stroke-width="1.5" stroke-linecap="round" stroke-linejoin="round"/>
</svg>
