<svg width="64" height="64" viewBox="0 0 64 64" fill="none" xmlns="http://www.w3.org/2000/svg">
<circle cx="32" cy="32" r="32" fill="#FF8B00"/>
<g clip-path="url(#clip0_4962_71705)">
<path d="M47.747 17.6146C47.6154 17.5462 47.4638 17.547 47.3349 17.6061C47.3349 17.6056 47.2958 17.6246 47.2934 17.6261L20.6121 33.2386C20.4292 33.3457 20.3409 33.562 20.3963 33.7666C20.4517 33.9712 20.6375 34.1133 20.8494 34.1133H28.6606L33.0161 37.7332C33.0195 37.7361 33.0237 37.738 33.0273 37.741C33.0429 37.7532 33.0591 37.7647 33.0764 37.7749C33.0849 37.78 33.0937 37.7844 33.1025 37.7888C33.1106 37.793 33.1176 37.7976 33.1257 37.8013C33.1338 37.8047 33.1418 37.8074 33.1499 37.8106C33.155 37.8123 33.1599 37.8145 33.165 37.8162C33.1865 37.8235 33.2085 37.8291 33.2307 37.8333C33.2356 37.8342 33.2407 37.835 33.2456 37.8357C33.269 37.8391 33.2922 37.8416 33.3156 37.8416H33.3159C33.3318 37.8416 33.3474 37.8406 33.363 37.8391C33.3679 37.8386 33.3728 37.8377 33.3777 37.8369C33.3884 37.8357 33.3989 37.834 33.4094 37.8318C33.4153 37.8306 33.4211 37.8291 33.427 37.8279C33.4363 37.8254 33.4458 37.823 33.455 37.8201C33.4612 37.8181 33.4673 37.8162 33.4734 37.814C33.4824 37.8108 33.4909 37.8074 33.4997 37.8037C33.5058 37.801 33.5117 37.7986 33.5178 37.7959C33.5268 37.7915 33.5359 37.7864 33.5449 37.7815C33.5498 37.7788 33.5549 37.7764 33.5598 37.7734C33.573 37.7654 33.5859 37.7566 33.5984 37.7473C33.6025 37.7441 33.6064 37.7405 33.6106 37.7371C33.6174 37.7315 33.6245 37.7261 33.6313 37.7202L37.6162 34.1131H44.0353C44.255 34.1131 44.4455 33.9607 44.4933 33.7464L47.9887 18.1336C48.0351 17.9259 47.9359 17.713 47.747 17.6146ZM28.6602 33.1743H22.5811L42.9037 21.2823L28.6602 33.1743ZM33.7854 36.314V34.1133H36.217L33.7854 36.314ZM43.6591 33.1743H34.3781L36.759 30.5594C36.9335 30.3677 36.9196 30.0708 36.728 29.8963C36.5363 29.7217 36.2395 29.7354 36.0649 29.9273L32.969 33.3277C32.9673 33.3294 32.966 33.3316 32.9643 33.3333C32.9372 33.364 32.9143 33.3982 32.896 33.4351C32.894 33.439 32.8921 33.4427 32.8904 33.4466C32.8735 33.4829 32.8613 33.5218 32.854 33.5623C32.8532 33.5669 32.8525 33.5718 32.8518 33.5767C32.8496 33.5928 32.8481 33.6092 32.8474 33.6258C32.8471 33.6299 32.8469 33.6343 32.8469 33.6385C32.8469 33.6404 32.8467 33.6421 32.8467 33.6438V36.3716L29.5637 33.6429L42.5629 22.7901L37.3291 28.5389C37.1545 28.7305 37.1684 29.0274 37.3601 29.202C37.5517 29.3765 37.8488 29.3626 38.0231 29.1709L46.6855 19.6566L43.6591 33.1743Z" fill="#FAFBFC"/>
<path d="M19.491 25.7576H21.4524C21.7114 25.7576 21.9216 25.5474 21.9216 25.2881C21.9216 25.0288 21.7114 24.8186 21.4524 24.8186H19.491C19.1057 24.8186 18.7922 24.5051 18.7922 24.1196C18.7922 23.7344 19.1057 23.4207 19.491 23.4207H20.1775C20.3401 23.4207 20.491 23.3367 20.5767 23.1985C20.6621 23.0603 20.6702 22.8879 20.5979 22.7424C20.4851 22.5154 20.4277 22.2712 20.4277 22.0166C20.4277 21.1157 21.1606 20.3828 22.0615 20.3828C22.9624 20.3828 23.6951 21.1157 23.6951 22.0166C23.6951 22.2712 23.6379 22.5154 23.5251 22.7424C23.4526 22.8879 23.4607 23.0603 23.5464 23.1985C23.6321 23.3367 23.783 23.4207 23.9453 23.4207H24.7097C24.969 23.4207 25.1792 23.2107 25.1792 22.9514C25.1792 22.3511 25.6675 21.8628 26.2676 21.8628C26.8643 21.8628 27.3503 22.3455 27.356 22.9409C27.3557 22.9475 27.3555 22.9539 27.3555 22.959C27.3535 23.1958 27.5283 23.397 27.7629 23.4282C28.1084 23.4741 28.3687 23.7715 28.3687 24.1196C28.3687 24.5051 28.0552 24.8186 27.6697 24.8186H23.3301C23.0708 24.8186 22.8606 25.0288 22.8606 25.2881C22.8606 25.5474 23.0708 25.7576 23.3301 25.7576H27.6697C28.5728 25.7576 29.3076 25.0229 29.3076 24.1196C29.3076 23.4353 28.8789 22.8347 28.2634 22.5945C28.0945 21.6462 27.2639 20.9241 26.2678 20.9241C25.5911 20.9241 24.9907 21.2573 24.6221 21.7683C24.4968 20.4658 23.3962 19.4441 22.0615 19.4441C20.6428 19.4441 19.489 20.5981 19.489 22.0166C19.489 22.1743 19.5029 22.3298 19.5308 22.4819H19.491C18.5879 22.4819 17.853 23.2166 17.853 24.1196C17.853 25.0229 18.5879 25.7576 19.491 25.7576Z" fill="#FAFBFC"/>
<path d="M45.3276 43.8542C45.1665 43.1235 44.5137 42.5752 43.7351 42.5752C43.2869 42.5752 42.8801 42.7571 42.5852 43.051C42.3767 42.1475 41.5659 41.4722 40.6001 41.4722C39.4771 41.4722 38.5632 42.386 38.5632 43.509C38.5632 43.5872 38.5676 43.6643 38.5762 43.7407C37.8875 43.7959 37.344 44.374 37.344 45.0767C37.344 45.8157 37.9453 46.417 38.6843 46.417H44.7803C45.5193 46.417 46.1206 45.8157 46.1206 45.0767C46.1206 44.5396 45.7981 44.0657 45.3276 43.8542ZM44.7803 45.478H38.6843C38.4629 45.478 38.283 45.2979 38.283 45.0767C38.283 44.8552 38.4629 44.6753 38.6843 44.6753H39.196C39.3584 44.6753 39.5095 44.5911 39.595 44.4531C39.6807 44.3149 39.6887 44.1423 39.6162 43.9968C39.5405 43.8442 39.502 43.6802 39.502 43.509C39.502 42.9036 39.9946 42.4111 40.6001 42.4111C41.2056 42.4111 41.6982 42.9036 41.6982 43.509C41.6982 43.6802 41.6597 43.8442 41.584 43.9968C41.5115 44.1423 41.5195 44.3149 41.6052 44.4531C41.6909 44.5911 41.8418 44.6753 42.0042 44.6753H42.574C42.8333 44.6753 43.0435 44.4651 43.0435 44.2058C43.0435 43.8245 43.3538 43.5142 43.7351 43.5142C44.1133 43.5142 44.4216 43.8193 44.4268 44.1965C44.4265 44.2029 44.4263 44.209 44.4263 44.2144C44.4263 44.4497 44.6006 44.6487 44.8337 44.6797C45.032 44.7061 45.1816 44.8767 45.1816 45.0767C45.1816 45.2979 45.0015 45.478 44.7803 45.478Z" fill="#FAFBFC"/>
<path d="M23.9836 39.4727C23.8225 38.7419 23.1697 38.1938 22.3914 38.1938C21.9429 38.1938 21.5361 38.3755 21.2412 38.6694C21.0327 37.7661 20.2219 37.0906 19.2561 37.0906C18.1331 37.0906 17.2192 38.0046 17.2192 39.1277C17.2192 39.2056 17.2236 39.283 17.2322 39.3591C16.5435 39.4146 16 39.9927 16 40.6951C16 41.4343 16.6013 42.0354 17.3403 42.0354H23.4363C24.1753 42.0354 24.7766 41.4343 24.7766 40.6951C24.7766 40.1582 24.4541 39.6841 23.9836 39.4727ZM23.4363 41.0967H17.3403C17.1189 41.0967 16.939 40.9165 16.939 40.6951C16.939 40.4739 17.1189 40.2937 17.3403 40.2937H17.8521C18.0144 40.2937 18.1655 40.2097 18.251 40.0715C18.3367 39.9333 18.3447 39.761 18.2722 39.6152C18.1965 39.4629 18.158 39.2988 18.158 39.1277C18.158 38.5222 18.6506 38.0295 19.2561 38.0295C19.8616 38.0295 20.3542 38.5222 20.3542 39.1277C20.3542 39.2988 20.3157 39.4629 20.24 39.6152C20.1675 39.761 20.1755 39.9333 20.2612 40.0715C20.3469 40.2097 20.4978 40.2937 20.6602 40.2937H21.23C21.4893 40.2937 21.6995 40.0837 21.6995 39.8242C21.6995 39.4429 22.0098 39.1326 22.3911 39.1326C22.7695 39.1326 23.0776 39.438 23.0828 39.8149C23.0825 39.8213 23.0823 39.8276 23.0823 39.8328C23.0823 40.0681 23.2566 40.2671 23.4897 40.2983C23.688 40.3245 23.8376 40.4951 23.8376 40.6951C23.8376 40.9165 23.6577 41.0967 23.4363 41.0967Z" fill="#FAFBFC"/>
</g>
<defs>
<clipPath id="clip0_4962_71705">
<rect width="32" height="32" fill="white" transform="translate(16 16)"/>
</clipPath>
</defs>
</svg>
